<mxfile host="app.diagrams.net" agent="Mozilla/5.0 (Macintosh; Intel Mac OS X 10_15_7) AppleWebKit/537.36 (KHTML, like Gecko) Chrome/135.0.0.0 Safari/537.36" version="27.0.2" pages="4">
  <diagram name="第 1 页" id="C7tWhzlyRNqIcXDj0njP">
    <mxGraphModel dx="1185" dy="627" grid="0" gridSize="10" guides="1" tooltips="1" connect="1" arrows="1" fold="1" page="1" pageScale="1" pageWidth="1169" pageHeight="827" math="0" shadow="0">
      <root>
        <mxCell id="0" />
        <mxCell id="1" parent="0" />
        <mxCell id="crDB5ne7UZtfx4gLpUHN-16" value="" style="rounded=1;whiteSpace=wrap;html=1;dashed=1;fillColor=#d5e8d4;strokeColor=#82b366;" vertex="1" parent="1">
          <mxGeometry x="200" y="210" width="170" height="300" as="geometry" />
        </mxCell>
        <mxCell id="crDB5ne7UZtfx4gLpUHN-2" value="" style="edgeStyle=orthogonalEdgeStyle;rounded=0;orthogonalLoop=1;jettySize=auto;html=1;" edge="1" parent="1" source="OfkNTkIY0cdmHu5SkmWy-1" target="crDB5ne7UZtfx4gLpUHN-1">
          <mxGeometry relative="1" as="geometry" />
        </mxCell>
        <mxCell id="OfkNTkIY0cdmHu5SkmWy-1" value="41维流量数据" style="rounded=0;whiteSpace=wrap;html=1;fillColor=#e1d5e7;strokeColor=#9673a6;" vertex="1" parent="1">
          <mxGeometry x="230" y="240" width="110" height="30" as="geometry" />
        </mxCell>
        <mxCell id="crDB5ne7UZtfx4gLpUHN-4" value="" style="edgeStyle=orthogonalEdgeStyle;rounded=0;orthogonalLoop=1;jettySize=auto;html=1;entryX=0.5;entryY=0;entryDx=0;entryDy=0;" edge="1" parent="1" source="crDB5ne7UZtfx4gLpUHN-1" target="crDB5ne7UZtfx4gLpUHN-9">
          <mxGeometry relative="1" as="geometry">
            <mxPoint x="285" y="350" as="targetPoint" />
          </mxGeometry>
        </mxCell>
        <mxCell id="crDB5ne7UZtfx4gLpUHN-1" value="MLP编码器" style="whiteSpace=wrap;html=1;rounded=0;fillColor=#ffe6cc;strokeColor=#d79b00;" vertex="1" parent="1">
          <mxGeometry x="230" y="290" width="110" height="30" as="geometry" />
        </mxCell>
        <mxCell id="crDB5ne7UZtfx4gLpUHN-14" style="edgeStyle=orthogonalEdgeStyle;rounded=0;orthogonalLoop=1;jettySize=auto;html=1;exitX=0.5;exitY=1;exitDx=0;exitDy=0;entryX=0.5;entryY=0;entryDx=0;entryDy=0;" edge="1" parent="1" source="crDB5ne7UZtfx4gLpUHN-9" target="crDB5ne7UZtfx4gLpUHN-10">
          <mxGeometry relative="1" as="geometry" />
        </mxCell>
        <mxCell id="crDB5ne7UZtfx4gLpUHN-9" value="&lt;pre&gt;&lt;font face=&quot;Helvetica&quot;&gt;潜在空间：&lt;/font&gt;&lt;i&gt;&lt;font face=&quot;KaTeX_Main, Times New Roman, serif&quot;&gt;z ~ N(µ, σ)&lt;/font&gt;&lt;/i&gt;&lt;/pre&gt;&lt;pre&gt;&lt;font face=&quot;Helvetica&quot;&gt;损失：&lt;/font&gt;&lt;i style=&quot;background-color: transparent; color: light-dark(rgb(0, 0, 0), rgb(255, 255, 255)); font-family: Helvetica; white-space: normal;&quot;&gt;&lt;font face=&quot;KaTeX_Math, Times New Roman, serif&quot;&gt;Loss = MSE + KL&lt;/font&gt;&lt;/i&gt;&lt;/pre&gt;" style="whiteSpace=wrap;html=1;rounded=0;fillColor=#dae8fc;strokeColor=#6c8ebf;" vertex="1" parent="1">
          <mxGeometry x="210" y="340" width="150" height="50" as="geometry" />
        </mxCell>
        <mxCell id="crDB5ne7UZtfx4gLpUHN-15" style="edgeStyle=orthogonalEdgeStyle;rounded=0;orthogonalLoop=1;jettySize=auto;html=1;exitX=0.5;exitY=1;exitDx=0;exitDy=0;entryX=0.5;entryY=0;entryDx=0;entryDy=0;" edge="1" parent="1" source="crDB5ne7UZtfx4gLpUHN-10" target="crDB5ne7UZtfx4gLpUHN-13">
          <mxGeometry relative="1" as="geometry" />
        </mxCell>
        <mxCell id="crDB5ne7UZtfx4gLpUHN-10" value="MLP解码器" style="whiteSpace=wrap;html=1;rounded=0;fillColor=#fff2cc;strokeColor=#d6b656;" vertex="1" parent="1">
          <mxGeometry x="230" y="413.5" width="110" height="30" as="geometry" />
        </mxCell>
        <mxCell id="crDB5ne7UZtfx4gLpUHN-13" value="41维重构数据" style="rounded=0;whiteSpace=wrap;html=1;fillColor=#e1d5e7;strokeColor=#9673a6;" vertex="1" parent="1">
          <mxGeometry x="230" y="470" width="110" height="30" as="geometry" />
        </mxCell>
        <mxCell id="crDB5ne7UZtfx4gLpUHN-17" value="VAE模型" style="text;html=1;align=center;verticalAlign=middle;whiteSpace=wrap;rounded=0;" vertex="1" parent="1">
          <mxGeometry x="255" y="210" width="60" height="30" as="geometry" />
        </mxCell>
        <mxCell id="crDB5ne7UZtfx4gLpUHN-18" value="" style="rounded=1;whiteSpace=wrap;html=1;dashed=1;fillColor=#b1ddf0;strokeColor=#10739e;" vertex="1" parent="1">
          <mxGeometry x="470" y="210" width="170" height="300" as="geometry" />
        </mxCell>
        <mxCell id="crDB5ne7UZtfx4gLpUHN-19" value="" style="edgeStyle=orthogonalEdgeStyle;rounded=0;orthogonalLoop=1;jettySize=auto;html=1;" edge="1" source="crDB5ne7UZtfx4gLpUHN-20" target="crDB5ne7UZtfx4gLpUHN-22" parent="1">
          <mxGeometry relative="1" as="geometry" />
        </mxCell>
        <mxCell id="crDB5ne7UZtfx4gLpUHN-20" value="41维流量数据" style="rounded=0;whiteSpace=wrap;html=1;fillColor=#e1d5e7;strokeColor=#9673a6;" vertex="1" parent="1">
          <mxGeometry x="500" y="240" width="110" height="30" as="geometry" />
        </mxCell>
        <mxCell id="crDB5ne7UZtfx4gLpUHN-21" value="" style="edgeStyle=orthogonalEdgeStyle;rounded=0;orthogonalLoop=1;jettySize=auto;html=1;entryX=0.5;entryY=0;entryDx=0;entryDy=0;" edge="1" source="crDB5ne7UZtfx4gLpUHN-22" target="crDB5ne7UZtfx4gLpUHN-24" parent="1">
          <mxGeometry relative="1" as="geometry">
            <mxPoint x="555" y="350" as="targetPoint" />
          </mxGeometry>
        </mxCell>
        <mxCell id="crDB5ne7UZtfx4gLpUHN-22" value="LSTM编码器" style="whiteSpace=wrap;html=1;rounded=0;fillColor=#ffe6cc;strokeColor=#d79b00;" vertex="1" parent="1">
          <mxGeometry x="500" y="290" width="110" height="30" as="geometry" />
        </mxCell>
        <mxCell id="crDB5ne7UZtfx4gLpUHN-23" style="edgeStyle=orthogonalEdgeStyle;rounded=0;orthogonalLoop=1;jettySize=auto;html=1;exitX=0.5;exitY=1;exitDx=0;exitDy=0;entryX=0.5;entryY=0;entryDx=0;entryDy=0;" edge="1" source="crDB5ne7UZtfx4gLpUHN-24" target="crDB5ne7UZtfx4gLpUHN-26" parent="1">
          <mxGeometry relative="1" as="geometry" />
        </mxCell>
        <mxCell id="crDB5ne7UZtfx4gLpUHN-24" value="&lt;pre&gt;&lt;font face=&quot;Helvetica&quot;&gt;潜在空间：&lt;/font&gt;&lt;i&gt;&lt;font face=&quot;KaTeX_Main, Times New Roman, serif&quot;&gt;z ~ N(µ, σ)&lt;/font&gt;&lt;/i&gt;&lt;/pre&gt;&lt;pre&gt;&lt;font face=&quot;Helvetica&quot;&gt;损失：&lt;/font&gt;&lt;i style=&quot;background-color: transparent; color: light-dark(rgb(0, 0, 0), rgb(255, 255, 255)); font-family: Helvetica; white-space: normal;&quot;&gt;&lt;font face=&quot;KaTeX_Math, Times New Roman, serif&quot;&gt;Loss = MSE + KL&lt;/font&gt;&lt;/i&gt;&lt;/pre&gt;" style="whiteSpace=wrap;html=1;rounded=0;fillColor=#dae8fc;strokeColor=#6c8ebf;" vertex="1" parent="1">
          <mxGeometry x="480" y="340" width="150" height="50" as="geometry" />
        </mxCell>
        <mxCell id="crDB5ne7UZtfx4gLpUHN-25" style="edgeStyle=orthogonalEdgeStyle;rounded=0;orthogonalLoop=1;jettySize=auto;html=1;exitX=0.5;exitY=1;exitDx=0;exitDy=0;entryX=0.5;entryY=0;entryDx=0;entryDy=0;" edge="1" source="crDB5ne7UZtfx4gLpUHN-26" target="crDB5ne7UZtfx4gLpUHN-27" parent="1">
          <mxGeometry relative="1" as="geometry" />
        </mxCell>
        <mxCell id="crDB5ne7UZtfx4gLpUHN-26" value="LSTM解码器" style="whiteSpace=wrap;html=1;rounded=0;fillColor=#fff2cc;strokeColor=#d6b656;" vertex="1" parent="1">
          <mxGeometry x="500" y="413.5" width="110" height="30" as="geometry" />
        </mxCell>
        <mxCell id="crDB5ne7UZtfx4gLpUHN-27" value="41维重构数据" style="rounded=0;whiteSpace=wrap;html=1;fillColor=#e1d5e7;strokeColor=#9673a6;" vertex="1" parent="1">
          <mxGeometry x="500" y="470" width="110" height="30" as="geometry" />
        </mxCell>
        <mxCell id="crDB5ne7UZtfx4gLpUHN-28" value="VAE-LSTM模型" style="text;html=1;align=center;verticalAlign=middle;whiteSpace=wrap;rounded=0;" vertex="1" parent="1">
          <mxGeometry x="507.5" y="210" width="95" height="30" as="geometry" />
        </mxCell>
        <mxCell id="crDB5ne7UZtfx4gLpUHN-29" style="edgeStyle=orthogonalEdgeStyle;rounded=0;orthogonalLoop=1;jettySize=auto;html=1;exitX=1;exitY=0.5;exitDx=0;exitDy=0;entryX=0;entryY=0.5;entryDx=0;entryDy=0;" edge="1" parent="1" source="crDB5ne7UZtfx4gLpUHN-16" target="crDB5ne7UZtfx4gLpUHN-18">
          <mxGeometry relative="1" as="geometry" />
        </mxCell>
        <mxCell id="crDB5ne7UZtfx4gLpUHN-30" value="添加时序建模模块" style="whiteSpace=wrap;html=1;rounded=0;fillColor=#fad9d5;strokeColor=#ae4132;" vertex="1" parent="1">
          <mxGeometry x="390" y="335" width="60" height="50" as="geometry" />
        </mxCell>
        <mxCell id="crDB5ne7UZtfx4gLpUHN-31" value="" style="rounded=1;whiteSpace=wrap;html=1;dashed=1;fillColor=#f8cecc;strokeColor=#b85450;" vertex="1" parent="1">
          <mxGeometry x="740" y="210" width="170" height="300" as="geometry" />
        </mxCell>
        <mxCell id="crDB5ne7UZtfx4gLpUHN-32" value="" style="edgeStyle=orthogonalEdgeStyle;rounded=0;orthogonalLoop=1;jettySize=auto;html=1;" edge="1" source="crDB5ne7UZtfx4gLpUHN-33" target="crDB5ne7UZtfx4gLpUHN-35" parent="1">
          <mxGeometry relative="1" as="geometry" />
        </mxCell>
        <mxCell id="crDB5ne7UZtfx4gLpUHN-33" value="41维流量数据" style="rounded=0;whiteSpace=wrap;html=1;fillColor=#e1d5e7;strokeColor=#9673a6;" vertex="1" parent="1">
          <mxGeometry x="770" y="240" width="110" height="30" as="geometry" />
        </mxCell>
        <mxCell id="crDB5ne7UZtfx4gLpUHN-34" value="" style="edgeStyle=orthogonalEdgeStyle;rounded=0;orthogonalLoop=1;jettySize=auto;html=1;entryX=0.5;entryY=0;entryDx=0;entryDy=0;" edge="1" source="crDB5ne7UZtfx4gLpUHN-35" target="crDB5ne7UZtfx4gLpUHN-37" parent="1">
          <mxGeometry relative="1" as="geometry">
            <mxPoint x="825" y="350" as="targetPoint" />
          </mxGeometry>
        </mxCell>
        <mxCell id="crDB5ne7UZtfx4gLpUHN-35" value="LSTM编码器" style="whiteSpace=wrap;html=1;rounded=0;fillColor=#ffe6cc;strokeColor=#d79b00;" vertex="1" parent="1">
          <mxGeometry x="770" y="290" width="110" height="30" as="geometry" />
        </mxCell>
        <mxCell id="crDB5ne7UZtfx4gLpUHN-36" style="edgeStyle=orthogonalEdgeStyle;rounded=0;orthogonalLoop=1;jettySize=auto;html=1;exitX=0.5;exitY=1;exitDx=0;exitDy=0;entryX=0.5;entryY=0;entryDx=0;entryDy=0;" edge="1" source="crDB5ne7UZtfx4gLpUHN-37" target="crDB5ne7UZtfx4gLpUHN-39" parent="1">
          <mxGeometry relative="1" as="geometry" />
        </mxCell>
        <mxCell id="crDB5ne7UZtfx4gLpUHN-37" value="&lt;pre&gt;&lt;font face=&quot;Helvetica&quot;&gt;潜在空间：&lt;/font&gt;&lt;i&gt;&lt;font face=&quot;KaTeX_Main, Times New Roman, serif&quot;&gt;z ~ N(µ, σ)&lt;/font&gt;&lt;/i&gt;&lt;/pre&gt;&lt;pre&gt;&lt;font face=&quot;Helvetica&quot;&gt;损失：&lt;/font&gt;&lt;i style=&quot;background-color: transparent; font-family: Helvetica; white-space: normal; color: light-dark(rgb(0, 0, 0), rgb(255, 255, 255));&quot;&gt;&lt;font face=&quot;KaTeX_Math, Times New Roman, serif&quot;&gt;Loss = MSE + β*KL&lt;/font&gt;&lt;/i&gt;&lt;/pre&gt;" style="whiteSpace=wrap;html=1;rounded=0;fillColor=#dae8fc;strokeColor=#6c8ebf;" vertex="1" parent="1">
          <mxGeometry x="750" y="340" width="150" height="50" as="geometry" />
        </mxCell>
        <mxCell id="crDB5ne7UZtfx4gLpUHN-38" style="edgeStyle=orthogonalEdgeStyle;rounded=0;orthogonalLoop=1;jettySize=auto;html=1;exitX=0.5;exitY=1;exitDx=0;exitDy=0;entryX=0.5;entryY=0;entryDx=0;entryDy=0;" edge="1" source="crDB5ne7UZtfx4gLpUHN-39" target="crDB5ne7UZtfx4gLpUHN-40" parent="1">
          <mxGeometry relative="1" as="geometry" />
        </mxCell>
        <mxCell id="crDB5ne7UZtfx4gLpUHN-39" value="LSTM解码器" style="whiteSpace=wrap;html=1;rounded=0;fillColor=#fff2cc;strokeColor=#d6b656;" vertex="1" parent="1">
          <mxGeometry x="770" y="413.5" width="110" height="30" as="geometry" />
        </mxCell>
        <mxCell id="crDB5ne7UZtfx4gLpUHN-40" value="41维重构数据" style="rounded=0;whiteSpace=wrap;html=1;fillColor=#e1d5e7;strokeColor=#9673a6;" vertex="1" parent="1">
          <mxGeometry x="770" y="470" width="110" height="30" as="geometry" />
        </mxCell>
        <mxCell id="crDB5ne7UZtfx4gLpUHN-41" value="βVAE-LSTM模型" style="text;html=1;align=center;verticalAlign=middle;whiteSpace=wrap;rounded=0;" vertex="1" parent="1">
          <mxGeometry x="777.5" y="210" width="95" height="30" as="geometry" />
        </mxCell>
        <mxCell id="crDB5ne7UZtfx4gLpUHN-42" style="edgeStyle=orthogonalEdgeStyle;rounded=0;orthogonalLoop=1;jettySize=auto;html=1;exitX=1;exitY=0.5;exitDx=0;exitDy=0;entryX=0;entryY=0.5;entryDx=0;entryDy=0;" edge="1" parent="1">
          <mxGeometry relative="1" as="geometry">
            <mxPoint x="640" y="359.71" as="sourcePoint" />
            <mxPoint x="740" y="359.71" as="targetPoint" />
          </mxGeometry>
        </mxCell>
        <mxCell id="crDB5ne7UZtfx4gLpUHN-43" value="添加&amp;nbsp;&lt;font face=&quot;KaTeX_Math, Times New Roman, serif&quot;&gt;&lt;i&gt;β&amp;nbsp;&lt;/i&gt;&lt;/font&gt;解解缠约束" style="whiteSpace=wrap;html=1;rounded=0;fillColor=#fad9d5;strokeColor=#ae4132;" vertex="1" parent="1">
          <mxGeometry x="660" y="335" width="60" height="50" as="geometry" />
        </mxCell>
      </root>
    </mxGraphModel>
  </diagram>
  <diagram id="SujYYXl0y9nOJhbWvcey" name="第 2 页">
    <mxGraphModel dx="830" dy="439" grid="0" gridSize="10" guides="1" tooltips="1" connect="1" arrows="1" fold="1" page="1" pageScale="1" pageWidth="1169" pageHeight="827" math="0" shadow="0">
      <root>
        <mxCell id="0" />
        <mxCell id="1" parent="0" />
        <mxCell id="mZDMc-2dRMkJbFij3Uou-14" value="" style="edgeStyle=orthogonalEdgeStyle;rounded=0;orthogonalLoop=1;jettySize=auto;html=1;fontFamily=Helvetica;fontSize=12;fontColor=default;strokeColor=#007FFF;" edge="1" parent="1" source="mZDMc-2dRMkJbFij3Uou-1" target="mZDMc-2dRMkJbFij3Uou-13">
          <mxGeometry relative="1" as="geometry" />
        </mxCell>
        <mxCell id="mZDMc-2dRMkJbFij3Uou-1" value="输入测试样本" style="rounded=0;whiteSpace=wrap;html=1;strokeColor=#007FFF;" vertex="1" parent="1">
          <mxGeometry x="330" y="130" width="120" height="30" as="geometry" />
        </mxCell>
        <mxCell id="mZDMc-2dRMkJbFij3Uou-16" value="" style="edgeStyle=orthogonalEdgeStyle;rounded=0;orthogonalLoop=1;jettySize=auto;html=1;fontFamily=Helvetica;fontSize=12;fontColor=default;strokeColor=#007FFF;" edge="1" parent="1" source="mZDMc-2dRMkJbFij3Uou-13" target="mZDMc-2dRMkJbFij3Uou-15">
          <mxGeometry relative="1" as="geometry" />
        </mxCell>
        <mxCell id="mZDMc-2dRMkJbFij3Uou-13" value="&lt;i style=&quot;font-family: KaTeX_Math, &amp;quot;Times New Roman&amp;quot;, serif;&quot;&gt;βVAE-&lt;/i&gt;&lt;font face=&quot;KaTeX_Math, Times New Roman, serif&quot;&gt;&lt;i&gt;LSTM&amp;nbsp;&lt;/i&gt;&lt;/font&gt;编码" style="rounded=0;whiteSpace=wrap;html=1;strokeColor=#007FFF;" vertex="1" parent="1">
          <mxGeometry x="500" y="130" width="120" height="30" as="geometry" />
        </mxCell>
        <mxCell id="mZDMc-2dRMkJbFij3Uou-18" value="" style="edgeStyle=orthogonalEdgeStyle;shape=connector;rounded=0;orthogonalLoop=1;jettySize=auto;html=1;strokeColor=#007FFF;align=center;verticalAlign=middle;fontFamily=Helvetica;fontSize=12;fontColor=default;labelBackgroundColor=default;endArrow=classic;" edge="1" parent="1" source="mZDMc-2dRMkJbFij3Uou-15" target="mZDMc-2dRMkJbFij3Uou-17">
          <mxGeometry relative="1" as="geometry" />
        </mxCell>
        <mxCell id="mZDMc-2dRMkJbFij3Uou-15" value="&lt;i style=&quot;font-family: KaTeX_Math, &amp;quot;Times New Roman&amp;quot;, serif;&quot;&gt;βVAE-&lt;/i&gt;&lt;font face=&quot;KaTeX_Math, Times New Roman, serif&quot;&gt;&lt;i&gt;LSTM&amp;nbsp;&lt;/i&gt;&lt;/font&gt;解码" style="rounded=0;whiteSpace=wrap;html=1;strokeColor=#007FFF;" vertex="1" parent="1">
          <mxGeometry x="670" y="130" width="120" height="30" as="geometry" />
        </mxCell>
        <mxCell id="mZDMc-2dRMkJbFij3Uou-20" value="" style="edgeStyle=orthogonalEdgeStyle;shape=connector;rounded=0;orthogonalLoop=1;jettySize=auto;html=1;strokeColor=#007FFF;align=center;verticalAlign=middle;fontFamily=Helvetica;fontSize=12;fontColor=default;labelBackgroundColor=default;endArrow=classic;" edge="1" parent="1" source="mZDMc-2dRMkJbFij3Uou-17" target="mZDMc-2dRMkJbFij3Uou-19">
          <mxGeometry relative="1" as="geometry" />
        </mxCell>
        <mxCell id="mZDMc-2dRMkJbFij3Uou-17" value="&lt;font face=&quot;Helvetica&quot;&gt;数据重构&lt;/font&gt;" style="rounded=0;whiteSpace=wrap;html=1;strokeColor=#007FFF;" vertex="1" parent="1">
          <mxGeometry x="840" y="130" width="120" height="30" as="geometry" />
        </mxCell>
        <mxCell id="mZDMc-2dRMkJbFij3Uou-22" value="" style="edgeStyle=orthogonalEdgeStyle;shape=connector;rounded=0;orthogonalLoop=1;jettySize=auto;html=1;strokeColor=#007FFF;align=center;verticalAlign=middle;fontFamily=Helvetica;fontSize=12;fontColor=default;labelBackgroundColor=default;endArrow=classic;" edge="1" parent="1" source="mZDMc-2dRMkJbFij3Uou-19" target="mZDMc-2dRMkJbFij3Uou-21">
          <mxGeometry relative="1" as="geometry" />
        </mxCell>
        <mxCell id="mZDMc-2dRMkJbFij3Uou-19" value="&lt;font face=&quot;Helvetica&quot;&gt;误差计算&lt;/font&gt;" style="rounded=0;whiteSpace=wrap;html=1;strokeColor=#007FFF;" vertex="1" parent="1">
          <mxGeometry x="840" y="240" width="120" height="30" as="geometry" />
        </mxCell>
        <mxCell id="mZDMc-2dRMkJbFij3Uou-25" style="shape=connector;rounded=0;orthogonalLoop=1;jettySize=auto;html=1;exitX=0;exitY=0;exitDx=0;exitDy=0;entryX=1;entryY=0.5;entryDx=0;entryDy=0;strokeColor=#007FFF;align=center;verticalAlign=middle;fontFamily=Helvetica;fontSize=12;fontColor=default;labelBackgroundColor=default;endArrow=classic;" edge="1" parent="1" source="mZDMc-2dRMkJbFij3Uou-21" target="mZDMc-2dRMkJbFij3Uou-23">
          <mxGeometry relative="1" as="geometry" />
        </mxCell>
        <mxCell id="mZDMc-2dRMkJbFij3Uou-26" style="shape=connector;rounded=0;orthogonalLoop=1;jettySize=auto;html=1;exitX=0;exitY=1;exitDx=0;exitDy=0;entryX=1;entryY=0.5;entryDx=0;entryDy=0;strokeColor=#007FFF;align=center;verticalAlign=middle;fontFamily=Helvetica;fontSize=12;fontColor=default;labelBackgroundColor=default;endArrow=classic;" edge="1" parent="1" source="mZDMc-2dRMkJbFij3Uou-21" target="mZDMc-2dRMkJbFij3Uou-24">
          <mxGeometry relative="1" as="geometry" />
        </mxCell>
        <mxCell id="mZDMc-2dRMkJbFij3Uou-21" value="误差大于阈值" style="rhombus;whiteSpace=wrap;html=1;rounded=0;strokeColor=#007FFF;" vertex="1" parent="1">
          <mxGeometry x="670" y="215" width="120" height="80" as="geometry" />
        </mxCell>
        <mxCell id="mZDMc-2dRMkJbFij3Uou-28" style="edgeStyle=orthogonalEdgeStyle;shape=connector;rounded=0;orthogonalLoop=1;jettySize=auto;html=1;exitX=0;exitY=0.5;exitDx=0;exitDy=0;entryX=1;entryY=0.5;entryDx=0;entryDy=0;strokeColor=#007FFF;align=center;verticalAlign=middle;fontFamily=Helvetica;fontSize=12;fontColor=default;labelBackgroundColor=default;endArrow=classic;" edge="1" parent="1" source="mZDMc-2dRMkJbFij3Uou-23" target="mZDMc-2dRMkJbFij3Uou-27">
          <mxGeometry relative="1" as="geometry" />
        </mxCell>
        <mxCell id="mZDMc-2dRMkJbFij3Uou-23" value="标记异常" style="rounded=0;whiteSpace=wrap;html=1;strokeColor=#007FFF;" vertex="1" parent="1">
          <mxGeometry x="500" y="210" width="120" height="30" as="geometry" />
        </mxCell>
        <mxCell id="mZDMc-2dRMkJbFij3Uou-29" style="edgeStyle=orthogonalEdgeStyle;shape=connector;rounded=0;orthogonalLoop=1;jettySize=auto;html=1;exitX=0;exitY=0.5;exitDx=0;exitDy=0;strokeColor=#007FFF;align=center;verticalAlign=middle;fontFamily=Helvetica;fontSize=12;fontColor=default;labelBackgroundColor=default;endArrow=classic;entryX=1;entryY=0.5;entryDx=0;entryDy=0;" edge="1" parent="1" source="mZDMc-2dRMkJbFij3Uou-24" target="mZDMc-2dRMkJbFij3Uou-27">
          <mxGeometry relative="1" as="geometry">
            <mxPoint x="450" y="250" as="targetPoint" />
          </mxGeometry>
        </mxCell>
        <mxCell id="mZDMc-2dRMkJbFij3Uou-24" value="标记正常" style="rounded=0;whiteSpace=wrap;html=1;strokeColor=#007FFF;" vertex="1" parent="1">
          <mxGeometry x="500" y="270" width="120" height="30" as="geometry" />
        </mxCell>
        <mxCell id="mZDMc-2dRMkJbFij3Uou-27" value="输出标签" style="rounded=0;whiteSpace=wrap;html=1;strokeColor=#007FFF;" vertex="1" parent="1">
          <mxGeometry x="330" y="240" width="120" height="30" as="geometry" />
        </mxCell>
        <mxCell id="mZDMc-2dRMkJbFij3Uou-30" value="是" style="rounded=0;whiteSpace=wrap;html=1;strokeColor=#007FFF;" vertex="1" parent="1">
          <mxGeometry x="655" y="220" width="15" height="20" as="geometry" />
        </mxCell>
        <mxCell id="mZDMc-2dRMkJbFij3Uou-31" value="否" style="rounded=0;whiteSpace=wrap;html=1;strokeColor=#007FFF;" vertex="1" parent="1">
          <mxGeometry x="655" y="270" width="15" height="20" as="geometry" />
        </mxCell>
      </root>
    </mxGraphModel>
  </diagram>
  <diagram id="L6jtXdMoN3IHeFRrisBD" name="第 3 页">
    <mxGraphModel dx="988" dy="523" grid="0" gridSize="10" guides="1" tooltips="1" connect="1" arrows="1" fold="1" page="1" pageScale="1" pageWidth="1169" pageHeight="827" math="0" shadow="0">
      <root>
        <mxCell id="0" />
        <mxCell id="1" parent="0" />
        <mxCell id="MCR6JwHrrCyDz4MZnyCg-14" value="" style="rounded=1;whiteSpace=wrap;html=1;dashed=1;fillColor=#dae8fc;strokeColor=#6c8ebf;" vertex="1" parent="1">
          <mxGeometry x="510" y="120" width="200" height="250" as="geometry" />
        </mxCell>
        <mxCell id="MCR6JwHrrCyDz4MZnyCg-36" style="edgeStyle=orthogonalEdgeStyle;rounded=0;orthogonalLoop=1;jettySize=auto;html=1;exitX=1;exitY=0.5;exitDx=0;exitDy=0;entryX=0;entryY=0.5;entryDx=0;entryDy=0;" edge="1" parent="1" source="MCR6JwHrrCyDz4MZnyCg-5" target="MCR6JwHrrCyDz4MZnyCg-9">
          <mxGeometry relative="1" as="geometry" />
        </mxCell>
        <mxCell id="MCR6JwHrrCyDz4MZnyCg-5" value="" style="rounded=1;whiteSpace=wrap;html=1;dashed=1;fillColor=#dae8fc;strokeColor=#6c8ebf;" vertex="1" parent="1">
          <mxGeometry x="160" y="150" width="140" height="190" as="geometry" />
        </mxCell>
        <mxCell id="MCR6JwHrrCyDz4MZnyCg-3" value="传统方法：难以处理非线性流量，仅依赖人工参数设置，局部信息利用不足" style="rounded=0;whiteSpace=wrap;html=1;fillColor=#1ba1e2;strokeColor=#006EAF;fontColor=#ffffff;" vertex="1" parent="1">
          <mxGeometry x="170" y="180" width="120" height="60" as="geometry" />
        </mxCell>
        <mxCell id="MCR6JwHrrCyDz4MZnyCg-4" value="LSTM/GRU：虽擅长长距离依赖处理，但对局部细微特征捕捉能力弱" style="rounded=0;whiteSpace=wrap;html=1;fillColor=#1ba1e2;strokeColor=#006EAF;fontColor=#ffffff;" vertex="1" parent="1">
          <mxGeometry x="170" y="270" width="120" height="60" as="geometry" />
        </mxCell>
        <mxCell id="MCR6JwHrrCyDz4MZnyCg-6" value="问题分析" style="text;html=1;align=center;verticalAlign=middle;whiteSpace=wrap;rounded=0;" vertex="1" parent="1">
          <mxGeometry x="200" y="150" width="60" height="30" as="geometry" />
        </mxCell>
        <mxCell id="MCR6JwHrrCyDz4MZnyCg-41" style="edgeStyle=orthogonalEdgeStyle;rounded=0;orthogonalLoop=1;jettySize=auto;html=1;exitX=1;exitY=0.5;exitDx=0;exitDy=0;entryX=0;entryY=0.5;entryDx=0;entryDy=0;" edge="1" parent="1" source="MCR6JwHrrCyDz4MZnyCg-9" target="MCR6JwHrrCyDz4MZnyCg-14">
          <mxGeometry relative="1" as="geometry" />
        </mxCell>
        <mxCell id="MCR6JwHrrCyDz4MZnyCg-9" value="" style="rounded=1;whiteSpace=wrap;html=1;dashed=1;fillColor=#dae8fc;strokeColor=#6c8ebf;" vertex="1" parent="1">
          <mxGeometry x="335" y="150" width="140" height="190" as="geometry" />
        </mxCell>
        <mxCell id="MCR6JwHrrCyDz4MZnyCg-10" value="卷积计算生成含局部信息的Q、K" style="rounded=0;whiteSpace=wrap;html=1;fillColor=#1ba1e2;strokeColor=#006EAF;fontColor=#ffffff;" vertex="1" parent="1">
          <mxGeometry x="345" y="180" width="120" height="60" as="geometry" />
        </mxCell>
        <mxCell id="MCR6JwHrrCyDz4MZnyCg-11" value="计算注意力值，强化局部关联" style="rounded=0;whiteSpace=wrap;html=1;fillColor=#1ba1e2;strokeColor=#006EAF;fontColor=#ffffff;" vertex="1" parent="1">
          <mxGeometry x="345" y="270" width="120" height="60" as="geometry" />
        </mxCell>
        <mxCell id="MCR6JwHrrCyDz4MZnyCg-12" value="注意力机制改进" style="text;html=1;align=center;verticalAlign=middle;whiteSpace=wrap;rounded=0;" vertex="1" parent="1">
          <mxGeometry x="355" y="150" width="100" height="30" as="geometry" />
        </mxCell>
        <mxCell id="MCR6JwHrrCyDz4MZnyCg-17" value="融合模型构建" style="text;html=1;align=center;verticalAlign=middle;whiteSpace=wrap;rounded=0;" vertex="1" parent="1">
          <mxGeometry x="560" y="120" width="100" height="30" as="geometry" />
        </mxCell>
        <mxCell id="MCR6JwHrrCyDz4MZnyCg-22" style="rounded=0;orthogonalLoop=1;jettySize=auto;html=1;exitX=0.5;exitY=1;exitDx=0;exitDy=0;entryX=0.5;entryY=0;entryDx=0;entryDy=0;" edge="1" parent="1" source="MCR6JwHrrCyDz4MZnyCg-18" target="MCR6JwHrrCyDz4MZnyCg-21">
          <mxGeometry relative="1" as="geometry" />
        </mxCell>
        <mxCell id="MCR6JwHrrCyDz4MZnyCg-23" style="rounded=0;orthogonalLoop=1;jettySize=auto;html=1;exitX=0.5;exitY=1;exitDx=0;exitDy=0;entryX=0.5;entryY=0;entryDx=0;entryDy=0;" edge="1" parent="1" source="MCR6JwHrrCyDz4MZnyCg-18" target="MCR6JwHrrCyDz4MZnyCg-19">
          <mxGeometry relative="1" as="geometry" />
        </mxCell>
        <mxCell id="MCR6JwHrrCyDz4MZnyCg-18" value="输入" style="rounded=0;whiteSpace=wrap;html=1;fillColor=#1ba1e2;fontColor=#ffffff;strokeColor=#006EAF;" vertex="1" parent="1">
          <mxGeometry x="585" y="144" width="50" height="26" as="geometry" />
        </mxCell>
        <mxCell id="MCR6JwHrrCyDz4MZnyCg-25" value="" style="rounded=0;orthogonalLoop=1;jettySize=auto;html=1;entryX=0.5;entryY=0;entryDx=0;entryDy=0;exitX=0.5;exitY=1;exitDx=0;exitDy=0;edgeStyle=orthogonalEdgeStyle;" edge="1" parent="1" source="MCR6JwHrrCyDz4MZnyCg-19" target="MCR6JwHrrCyDz4MZnyCg-24">
          <mxGeometry relative="1" as="geometry">
            <Array as="points">
              <mxPoint x="555" y="250" />
              <mxPoint x="610" y="250" />
            </Array>
          </mxGeometry>
        </mxCell>
        <mxCell id="MCR6JwHrrCyDz4MZnyCg-19" value="LSTM处理长依赖" style="rounded=0;whiteSpace=wrap;html=1;fillColor=#1ba1e2;fontColor=#ffffff;strokeColor=#006EAF;" vertex="1" parent="1">
          <mxGeometry x="525" y="198" width="60" height="34" as="geometry" />
        </mxCell>
        <mxCell id="MCR6JwHrrCyDz4MZnyCg-26" style="rounded=0;orthogonalLoop=1;jettySize=auto;html=1;exitX=0.5;exitY=1;exitDx=0;exitDy=0;entryX=0.5;entryY=0;entryDx=0;entryDy=0;edgeStyle=orthogonalEdgeStyle;" edge="1" parent="1" source="MCR6JwHrrCyDz4MZnyCg-21" target="MCR6JwHrrCyDz4MZnyCg-24">
          <mxGeometry relative="1" as="geometry">
            <mxPoint x="620" y="270" as="targetPoint" />
            <Array as="points">
              <mxPoint x="665" y="250" />
              <mxPoint x="610" y="250" />
            </Array>
          </mxGeometry>
        </mxCell>
        <mxCell id="MCR6JwHrrCyDz4MZnyCg-21" value="GRU提取特征" style="rounded=0;whiteSpace=wrap;html=1;fillColor=#1ba1e2;fontColor=#ffffff;strokeColor=#006EAF;" vertex="1" parent="1">
          <mxGeometry x="635" y="198" width="60" height="34" as="geometry" />
        </mxCell>
        <mxCell id="MCR6JwHrrCyDz4MZnyCg-35" style="edgeStyle=orthogonalEdgeStyle;rounded=0;orthogonalLoop=1;jettySize=auto;html=1;exitX=0.5;exitY=1;exitDx=0;exitDy=0;entryX=0.5;entryY=0;entryDx=0;entryDy=0;" edge="1" parent="1" source="MCR6JwHrrCyDz4MZnyCg-24" target="MCR6JwHrrCyDz4MZnyCg-29">
          <mxGeometry relative="1" as="geometry" />
        </mxCell>
        <mxCell id="MCR6JwHrrCyDz4MZnyCg-24" value="注意力强化局部" style="rounded=0;whiteSpace=wrap;html=1;fillColor=#1ba1e2;fontColor=#ffffff;strokeColor=#006EAF;" vertex="1" parent="1">
          <mxGeometry x="562.5" y="270" width="95" height="34" as="geometry" />
        </mxCell>
        <mxCell id="MCR6JwHrrCyDz4MZnyCg-29" value="整合输出" style="rounded=0;whiteSpace=wrap;html=1;fillColor=#1ba1e2;fontColor=#ffffff;strokeColor=#006EAF;" vertex="1" parent="1">
          <mxGeometry x="580" y="330" width="60" height="30" as="geometry" />
        </mxCell>
      </root>
    </mxGraphModel>
  </diagram>
  <diagram id="pjOscwmvsxFwsbwkIWGq" name="第 4 页">
    <mxGraphModel dx="656" dy="490" grid="1" gridSize="10" guides="1" tooltips="1" connect="1" arrows="1" fold="1" page="1" pageScale="1" pageWidth="2336" pageHeight="1654" math="0" shadow="0">
      <root>
        <mxCell id="0" />
        <mxCell id="1" parent="0" />
        <mxCell id="MPf_6T6VnH1m0KOM8aa1-2" value="" style="shape=image;verticalLabelPosition=bottom;labelBackgroundColor=default;verticalAlign=top;aspect=fixed;imageAspect=0;image=data:image/png,iVBORw0KGgoAAAANSUhEUgAAAPQAAAD0CAYAAACsLwv+AAAAAXNSR0IArs4c6QAAIABJREFUeF7svXlzHHeyJBh131W4CYIU1S11T/d7M/Pnfv8vsGtjtmuzu2PbNq9HaokXgLqrsu41d4/IzMIhkiIoiiL4HpoiCdSRlf6LCA8Pj0K5UNyZ/9rt9J/4X32l/xTf8uC/FwqFD3tMf0k3fwp/vvlYBSvgLz/s8X+T78br0kvjq8u/Rv7Fzgr4Sr/Bv4+vrcC/11fRivibYvHW4+Cz3G23tt1u+XjbLb626SeKn+Xj74x/v8Fnj//P7ga9Dr1A//KL45c0rjd/ZofnibsHr0o/ws/gxq94ikLB77dfus0+/S34m3ziv9WTFPKAzgNbt8Hv92rGjZK/XeK/40b7/QLab/aiGaCo1xsoyR2puTcX/1kslqwIIAPEAGXuINsKWQ4rARpfANsGgM7Q6j9fIA4B9jW/78MAnd0vePXZc+NdEcrFOLT0r+lru3Vb7XIHid5pCvY4J34rRHzhz/OHAnQaSzzi/W4BHdgFoD3aRizbeYTO8iThQAFUURv/B1DHwVWMaE+Q5w6HADCiMKO0QMvrVCzwMSNyrzcfAOi40Arq/J8AoLIKHFL+PPyjngv/47/ditnZWRTZix8Bj4D+oCPmiwd03FvxrvMR6/cOaITXUgngxKsGGHHPZxEWMOQvRFGCIQttNwENUJdKJUVeRn1FyUAWHneLcBzA8ucCkJlybxAlEdXTuOtIza7sXvqMl5yL6MJxLirHn/WB6Hu3O2YKuUTBH9z/jm/vEdAfhOAb3/yLgM7St495ik/zs/mb62ba/aWk3AR0QYAGEPFnpsUejXVvM7zabocYm4bXXKruQCoUUkCXigXDl65RJMOegntUBbgB5O1mQ5ARaIjinjnzYAHAhUXPCu6vh3UoCbs4XHjAlEsqCwqFNBPwCiAtC1jf45nTbOJGyn1X1ff7rQQ/zc3+AY9aKBdKkTilP8aTOvcg+7HhAx79E35rSoAh3cs9zxcRoXNpBWMzAS3wCdC6/giyTKcj5XYSSfDK19z6G0ToUqloZXyx1t4nBfk54nxgTY2ovLbNekOwgRRL0+EdUmQAbZsCDdebWUEQpqjPPQpn1BdKgp2VikV+lStlr/P1vnSA4CDZzwL43JGZ/CJYcyTaI6jvRNcjoD/hoXPvQ+dPIE8zFeAQRTNyqYh0vFhgNAbvjfAXN34AS9FNz1QulayCr7J+j/qc8EfELgpYm+3GVuuNrdcA9DoFtIdNpv8EYA7QPHRIdnk9vtmoVvaDKPIAALpcxsFSsnKpktb8DBJ4TBwgaTTWC8fhopIiuIL7rlwO0Lpct3/Ftf1KAf+egP79Md5fdITOujopQMV2+w3t9TKycAC6hMhYLLE9RZD6vUxwMmUWIDJAl61aBqDKjJT4CWVZipJgtNcbgHpNUDNyesq9IyungyOOFv6Np/ACJthzMmF8fWp/qdXGdDsAXa44I58RcMgKopUWgGQ7LcoMzxcDj3q+m9i9K1LfqL2zc/FzHNmf7TkL5WL5Fp14M+XOH4afu5V1q2/tKfd+qu057efuQQchlDalogbOetBIf/FtJZJiAhNSUPx9EXG5WGD6XAI4K2UrA9RgqBHZNltbrVaKtpuNUu1SyWqVilX9C38GpBGVGZFTQG9ttRGgeSD4oZBLENL+M4OeH0ICY1a3k3oDiKN04B+KitDlcloG4HFBwAWgEf/jxEBr7Wa/WoyB987JIeQbcu/GS66D9+5v/gN9xyOgH+LDvCvN8/I16lhC2Slk/DcjmUdatqFQAwMA5bItPXLabuMkU9HK5YpVKmWm0qiTWQsD0Ix4SmcBIKTb1QoidNkqlQoPAzz+erO25XLJx+bjbxCl8btHeNS2PEhuprJ6cxHhmfI7kRe6lwAznp8g5muoWK1aI8GBn1ksl5YsV0zxcbikdcIuWnfIQkQQRhqPZ8X34n2maTkziVzEvie1fgR01q9I0638vZ6mQJ9ZbHKX8ig6rxm7/VtF6HvSPG/fkNDiS3HokqlWSCuTCUYqqleP/y1XK1auVG21XtlqtbbtZu29ISM4Kw5YApqCEES8je1Y3xZIQrGGrqCGFriYEluB6fVqtbQFIvpqnabdkbIj2gPMOBzSjzjq+p3Zxln2aAWqHy6olwpm5ULRqrWaVWtVq1arKaC3yAw2G5vO5zZPFgQ0/ownI6mG7IQkWsmKJUV2vL/4LEncbfQYBPVG1zAl8O6ppR8BnVcZ3WgU5k/Ez55y35ASBphDEiko7zPADxGE736MG4D2bxIbjNoyL73SkVhAWgzSylloKrio4toSgPgSG72zzXrFmxjgRVsLN7wAqp6u+sAIcfp71MxIySMtVy9an1ik1VH/Iq1n+u01LdluMuD7gFb0lzSUzDvJOc+/UzKuYNVy0RqNhjXqDavX60z98WuJQ2S54EGyXK5tg8NkvfGDSPUSGfEi3nuk6QI03icPLbxO/xmy5Gx08UzQrzui9FcL6IrX0EoJ72YS1MLY//VbAztPgnn8FUBS6ePtVs6nA3I8cqbJTl8M02nwwbwd0ztOAC9YCdETkdaj0JJss27wrO6UtHOHdDOEGCxNlZbyo8Lfe6otjBVJnrEH7b1fvgJ+di4ayQlLCGik3ds1Hwf96Czl1ucdLS4dOPrE+b6o6XTZKg+SotWqZWvUagRzvVbnAQMgLhYLAnqFKLva2Hq5FhlHljwHaK+5WfNT8abPVs+t8iLSbxx+0TO/QZj7HRG00Lup7oxmybcePv2d86meofC+gL4J9UdAqxAWKZTlCQgX7NkSeFuvgVEbQmRRUEsJqTDr4J0ly4UtVytbr7aKVOUy01XWvyX9DIGE52KU1t+lohAAMZVs+aGBA8XllwRitIwABBJTOEDEdBNYBL6Yax7e3pdm9uARPmuX+WBIscBDSal9ycog4fja9frxGsGmg7TD+2Pfe7VhHS8Sb5vOfEAtx8yiHBp1V7N4BhKg5YHD0uAeQKue0UERWcw7SsQ7h08+Fdp+g8d9L0AreO+TEV8GoG8eQ3ngfeTVjTo5TfC9NcQMGACWRgvBDAy1yDGvFwsl2xURZbe2WC1ttUIk3hKwJL9YB6tmRtSOA4KqMo9gkWlyACMnzMDfK4qiPtfNr7YUgOxfW2UEAnT289G+UqSOdpFHZr6nOCjwOiQewQHFg8bFJHjtBHRRvWyAeQkyDIfIekNCDr/jsCAJhowCpUQJmUW0wXBxlIHo9WflRbTXeAhF3/qujznKkffmfN4dob+EaJ4COn97p4nKjbo6n8Ck/53TH38kRO788bvaVGmqHe2TyHdvtqkKiAL+Svmhu775IV5oDtAKB8EEK/BIiAEAF6xUxQ0OeG9UW++KaiMhSrJ2xa0JQKOGrHg97Kk5QO39Z5JHDuj4PZrSEqRkqjnVnk4mMSJnAMbf6wtRWoBRjb0/Ypm/TGTY0V8mqIvkAvCe8P4IPvahle6DFMPBg18ANA4tkmEOZKnFtlK1ebYCQEf5hIJFPIJeNw4idrmc4Y43CjKQWM8TeVHkpIfcu9Pu+28Hgfx29/M2+H8vYH8E9K8Bd27wQMST31ShtvabGx8y00mSXSWJPHAQ7MzZ5o2tUSdTkLFThC6CmRYBxsOAveUyvyJiI5LFXZYnsaLu1OsBkaX0Omp01rEObqbADmQScGm6nc1Mx83MUiEHaA1hqI4WER6HicCOtpWylCLbaorKArTGs6l7E6NdLvkMiYQ1OAjRatPD+utHFhG9chfA8N+91Im4oywyorlnHr/m801/Jg6Zdz/I7yV1/3hA597rp0jD72pTfdYI7Vm7+sgSUUh+HYw2opwuitJt1Jrel61U03bMfA6yaGXrHdpOOwIXQGUE9BYOKlje4EjDy+jrVllX4/ukjRYDnSYo+fvO02YIRwAkKcMUmQVqZ9dd3pmm2fkoGKKRYtGqJPM0ix1ZU0ak+kso+L/7WCgOplTIAkUasxGRl2V8D7INRnLcOSpTcIhF7xx/G7U+2l9qW4m8i7gbU2Vkvb38iN/vEkjdhOa7E+38rMB9ETv/qNkjfo6o/UGA3rtf7ugW/FaAzlfCMR98Z27Eb8yn3HEUvPvEvfM7ck9MWWaQYWl3SsVcys0A0KgzS6qHqyUMKyisQWgBQC83Sx4GqLNxIysaqydLVRa00bm/R6QMsuyumzMlkFzeifqVpBuiMwUdavcEQBDBWae6qGQvrfUnwEuuuk5cDDQOFMk1MxJQbgZR79NNBRfJgZbW50if/aCgnNQnzagU50O4uCTQkBsmwXsgoKNfFVNqPlG22aJnLbIvMoF3fdLvA+jsMd4/Ysd7TJm/d72QB/r39wb0zefLn343q5SHBHZE6PyFz1pV0Rf9hY8l/uljSql48+7AgT+GqUA6XxjfU5BtD22BGMAl8hBplLmTMGJu1rZYLVgDggXH94EMA6mEdBTRFNdS7SgRUkzfXXwR7R3JsZRmB6tNzTZIKNawK6X26ZiTs+Reo2pgQ+2hyDYY+f2a4X2gb86BD7bb1EbKgIVo66WHM/IENDXo2WcjdZurxKJsiImtlEz0qTEn2XR47DzLQLsLgpt4YXGd9dwANK/rSqRbNKrvux+j/PlQLN19t92O3p8jDX8PQMfb3UfEFwPoD/207vr+SLNDLOKBPp1mzItdcuODHKagDlsCD7VbdAjhZicLvAZhhJscLa0yCaU6FFeVskdNXfcYyhCwJU7hfyPlZ6DETa8bWq2nqD9xcHgU9hSd/84fyupM9ZzVt9ZIpdsXedRlhHZGG5eDyrLcUIditdew8R7x3tNWm897e4RGOI7UHb1wZArF3Y6HRg297ErF6tWqj5RuyZQv1pCugjGP7AARXYedWPUte9zLheSlcYDdd5b/WkDffUvdjt6/G0DfisZ+w+QlOb9Un8QFfIhI/dER+mMB7SmyBhBc/RWha4/q1y0NbFMJRjbav0o+X8zBiGhRqd5U/1fRTm2rEsUZGLDAg8XschBJJJ1Qawe4cvY+iF6UggagY+DCX6+ir0DMm9m/gu0WgYYIqLQW4A5BDIQjOGR4OO0KaoFx4MMFKbnsINJwtaFUJxO8TMH1mExxnKFeOeteLhSsVi5TmFKvVbNrsN2q/bVa2tL15xDdiE3TqCZArUi+ttVSkZyH291CsvSuuD+3++Vk/L5/1fXav+myTs2HJfi/5ta9M0LfD2i/ab0vfXfszmD/KQAdlyTTbe8P8f+ai/CLP+Mp44cAmuIRr3WpUXbiDDccUmzcnIos6jcj+hLoJLh2vKEx2IBUG1EGUUlmf7n025VmkWLj32JIQzUxAJezBfKUPQQiAoGAABY6WSxtCUXXYpFmBpzDcIVbAwCrVSn+4ESY16qh+mJvOV6Dj1GWvcRgA4/z2C5f9XSb6q+1pJ3QddfKJatVIVCp8ndkLDGuiTSaGnc+70o6dzpAZO+DB5kfSozU0MO/A9D3ffb3kbFpZXXvTSNyL//rt4zUHwjou5OXuEmyyLz/hj4U2Hu956xcysk8g3n8lGC+Levci9D80PTJMfJBb83WU0Gji9UqU1Qytq7sQs8X4OSN5jWqjAA8LffUnnPMJZFo+BVRXWOGoVX3KOvzzvg+DVooYqJlldaaQT7hzvJpqUxiqcENkHSr5dLWq3WqJQ99PN4TMgYcUuw7I3NAy4s8gOaqMfARem+8FkRnSEJTFZ1fryDCeN1SWatUcFKZYVIMPILadCGaifbbCuozDq+ITCQ/TqktLVSVnWAKzfmDVM76ESf9LS1Ejmu9/bBfJKDvZppupuG/NvX+5YkqXUKnILwf+ylSmfsArSwFwUHd1OzG5NRRqWDVak1fNBlwwsbJGtyQSFNxU+ImxUOADIMOulRWLUggAUQUmbh7SHhsRxoNcBM0kQFoRBIpJ9s9Duh8VUBWntOPINfkaILPDKBEOssouxYRp2sMRRjEI1K74aDxsQx+R7TC8F6Wqyy9pcAE5YMDOh8G0mglMkGTZ9S2azAl3FZweEBKSr4vvMPxOvlaV5TMIkpjGgvhnfcMxSl6jwR0Ouv9EIzojaib3YE3MP1FAfquYy67WJ8K0PttKi+dIvsPd8uPOIHv+tE4lT0gpYbzoZEO+kfRWRBA9NI8siI0p56Ack9RcYPxGnnNLOnlmsCiftunraKVQyEJU+WsjIkhhciKaHbgY4/qL2eO6ntDc3Q/KWoeIoQhefIMvWrv9eK9cMYZgKYaLJv2wrvh6CYPArD0qlVxSMXzsZdOFRh69JLExjFMmadLSMPuV4DO5K40dPDDMKSv9A7fbNTuWyxsjvJgtbT1epXOcHPs0o8cfC8yoRDQPPDtkRP83nzkLwDQvwjjB5SHpvVxnjXem6iSPnovTLip+8d9YLcjvAuhPMX0AQwStSKTpJOW7W1Mo+GGQqqI9BRfjEZId3eInltbbFaShcp8W6BYrxjxNQdc1lglJZ5yH5HgxC1+AeyQZ5LYEtBl+KfIT6DnygE8T/SOOTASkdENCbcexRCZMUyByC4DA11m2CPICgnkVja6qfeztvly6RpxZ+P9+ULWib+NjR0UlETbLVRzVNOhVy8ZKHXvfM7M9UQcBK7VmpF5sYBZwsJW7LGj5tenT2NE/+CYBRHQMkDk+X9jLPhj7pmUw7kV/B8BnV7XiMT5lHs/tQ5A+1Xkbw+hz94HNP6kqCSWNlVaOlCkClOKICWjJpV4Y5bVboGqy2ckeEMrrUU6rPFKPn4IU5jfZj5eiOysrXmDOmsa9aIfKKloIyePDLEHoyiBJLBQL+2SUwpNPaPQ9JJrvHPeYulzOiPN/jdrfQ1Q4NGR+s6Xa5skiVRnfo6oP+8z32Tq3VPcjQlAdim1LkfBIt073r9fA0Rjpew+H03FmTIClAYAatTtZOX90FdGo1IJKTfYbvEJj4B+5+GVHkwPGqHz44iRpKmay3oBuHNc7vhggN5/uyFBjCgR7R3Vc+HMKWZEUTpn0sf+ac3qlSolnerrrnkzgqlFcGYfGeBwpjlTX4lowk3J54aUMijT8OXG23edNAUeblTAdlVuOIPtmq1rwQmeLKuQbFQHEQ4B+oqx3cVcOhOJkHXX8SpXEQeeIf3dWrJc23SRpKIUJSSq/+lvVq7wZ2NaCn9frUI0o/aXMxDSdsMVJXr1BLRUc9S1OzGoscuVrddSgwXTHmaFBLS3Gfm9mGKLTOoxQv8ypu8DdJS2+d8DCO86JUjC+ARVfG8ardPm3mcAdE4EETe90805JxB33axWrFFFH7lKZw3c+Kj1EFEwD0wyNrXaKZHJjvqR4OR8cpBSciJRvugzwD6cIPpHmyoC1JGv8PsZqNwsAMMOFI04cXUT0Ow7YxJs52Z/obxydz7/TCIxUdQzHgQwL0CqnkZoEmk+ZcZUWTU+etHhyKLsIse9uIhls9NsNg4ykXClVOAiQ0Ow+PhdJQYPplyKL625rhf162u3GvQo/flS7qyYfBcGPvbf36tt9UtPosyT8SD9tiDH0r/JZbR3XdS8eETEZ5poZ3Y32aN/8ggdU04BPA0kOK58CEPEFto2urHE1qKPKkEEokvY56SqJaop4aXl4gpMMVGBJclnCEJCfBH1uuaN8zWgx2Jm/n5jY77Y561ZJvAgcGN8gsqVXf79WTkZo5MCtExElFZrkkufohxO9mek2UoiKSaLIqXbPjWVk7mS9vCeN0wQ9doiUdbpU3CnUxFybubAN+2LAXjoQBSD5/IFe14u4DlV7mSA1rWPVFuMfPTsHwLY71ND/5b95zQAhmPJrz0ZHhrQew4gecmNA0pL0cJcHjnwbULr174XtYvQelINGCl3yC4FR4+IcOGghe5WU868ocoURODnoyUUk0H4MyIPU9wYMnAyLMYrqZxi+glw6H1J5okUNbdG1t+gesFqU+Hepa8YPbHR7vIRRCfMUpODnQtYfLABCa1MBARo5OIa4PKi2OmCBXq/iHgx3MXyQ6Z9APp6s7NS2TOGcF5Kxyt9CIMGDQA0Hh9tN/EfnLoi4ecljRN++cGbvL1GyLTphrJei2hE+8/HNuPzlwGjJK2UxXrrLw/oXwvuuxSMet6MFPvCAe03gdcqezH7AyL0vYCONDK/U5inyQMCGqDzCakANG62bKgi27NMO1rWxkiso7cLYYSUS6yLc/1yDWeU2BqCuCSY3zAtYHsm6rzUhSTrGfOQ8FWy4qUynzCZAQTV4Huj3Zgf/yCTPRFJ2pGFmx8OoxoI0SCH/s1YS+uzDB0K/pywbNj/NyrTXByiVpgAKdOEbF5ZmYNvAQmbXh9cEX/gDmybXLYQs9F5hxYfCdVB5lZKlICKYuEU2p5MKxuGkX+aDtOdL+aT19qvW295nySZrbjoUae35gPeo++IVh+dcmcwzlLvWyl3Dnd3ptxpiu01tJ90+6LYT7wZwdNFyBUFMg0+ENAeHXna58zqpJSSByXOGTHKYKflGSYtc/RdNXkELTKmn+K6kdH2IQv+nZNs4SAiQir2VmV9aT3AfqmTX4tDJ1A3X0A6jH4tIhojSBGmfjWr1eQDRhZ+tZSGG4MifkCQdPNFdgB0RMNInER2icCitbAb4y/g7snyQsx1WDIhaSiqOpEfWzGzWOK1pQxUXtwkJt1YAYddRFpc/zBp0PNn3mTRkUinxJxcLMDyCaTbnnuoi29cbvuhWV1QetnPue0UsRvymw991I///kdAx2HDkUffUkHnzKwXGjPMmiYQFOMG0c0rn+nwx6pWqvTIVlQCwH1wAAcA/bzgt60DQy0qRe/QIksM4etpvI5lJHPhipxPipxOSn95OkCRib/MaF8F0ORbppodlrsAM14jvbOXS/4OQFNl5utpkGYvXJ2F1hsHQ3i/Kg5FqgsuYE3xx5a6cC6QR6/bW3M6BGIpnV5gRGfaE7Othr+PUsN9y3JqM7Hz0WbzbMHT85jF5vP4BWBt7csLcLjhanGvF9pe7k2ejZTmruV74OqrBHRcl73MOHqCuYuWT1/uT7k/UYSOvJgpIG5WESthWBf9XqV1MrSnsITRa0uTAkRq3Iy00oW4hEbz8NXKNjZS5eRGAwQWetFedyuqi9FNBR6p5U5uDNDTyhBQpEb+orTTiJwrYZ3tDm7Lt2ugtVarKUVlSg4GfqV0nASXC1U2GCZZW5L6gW1MGYzSSl4nOrKoZ7zcQPwhGSkBTYN+rfaJhCIGUAhoEmhi8pXJICp7RoNDy2evQ8QT3uJx4KnMFwkXhy6PgwC01+dUnZGMc4HKCv1smT5IWeeHTe6efFdt/QjoKCM+FNA36hCRYreyzfc4U+/5Fgc0lVG+oVGA1vwucmm1Y3EjZ4Z9Isc01gfGW3JHSRa1V6qqx6OuWDcQzPLYcmGfFQSWUl9susgDmsAmeSatcqyCQdNJohTcoL5d0g8aAswN9xWt3HDfDevjhicB58/HcpO1pYY6+HadGcaNngDM/NJ7BKOOWp5q1iDsfMsl3is8xsO3jOOXG7MVBCHUh2cu5dER0eEYgHYLIgpY1KfGY6LVhmvAltXaDQ09q5IgReltaHTS2wWsv6/mIFlYqbLvj29U2u5Req2DJ5Xyuon/hwI6O1j+wCn3XoS+D3KRFzqBlEVot7S5VY58CkBH/ZO1XALQoUTmuKNvc0z13L6aVR+h0ruQNhKgvocZCjHZ2WJCSLUlIhv1zqw/XRGmW9MXtkKQIvY5dMxhIcQDxxldZbLKcURMZbY+Go8MSx/nBNx4MBcy0xQbQJUSTAYGALNAunYHU3UAgpGWgiwmqnb8/oX7l8nRdKc03J1SolHFZ3DSCzmPbHyVdos8zAwIyc4Hm+6Rd+uoJdmWI0XZDmSykuV87BpwmCZm07XVJL2mOGxcTpuq/rykej+nk7j2usF1+f6gNfR7AToHdNZkaR/6JqBzQFaG9PG/fK1M/oGil6sxwczjKoz7RGAJJGwtRboHLTEcR8oVvTa6kaCtgi8fMVwsfSbYjQJcmx03QqyCiX6ubXWc6OYTS43ogsemFZCnvql3kF/AcPEITbjGC1VOZISWerqs210xAvVaxX3AAGjIO5He4g2h1q+65hqvD60qKeoEIHzfbLWiHBRput6zesZpyeX6cELApa+Zvlt7uChCSrdOQrkWm6d1EHr57h//LscjaCkALwEPNbwwbB/JjAVBFFIf786qMQIqwUrOw9w9ydP74gZJnTnV6GTSYfoHB3Qec++DvayUzVoNTB3Tw+6BI7NyxjubXhGBo7bTgITmmkM4EatbdfPo00SkhfJLDiAa80MKquEJTVaJEa54P3tr6xVaWLrr2UaqyiyQUcv3U6a+2a7bBqjVws3HotxEVH47pOeioT9PW1zBkDvrrFQepKA8vGLxfKVYsHo5zP4zv3HJAcQUr3F4Qdu9wrAG1GM4fNCeU0svD2gstWP248sIeN1IzvlhkyPPyPhTJx5daOcwvObmueAkpe63uNP8XpFEUZmS3B5E6jGlh3pOghstwpNPusodHaLpw+UA7VVYLp58BYBOI3N+20ZaQ/tJdiO+8mS9VQj9EqBvHJu/Jl7f8xAem61Y9qEErGhBrzQnYpGtrWuSveeM70GEQ3sHQgyN78kqR4MTYJl1M0mMoRWv2saomrpS880ZSN8ZZXxow4cz5GiZq0jTPVbh4R0Hj5J3x12atsbanLjejJAg8pzxVi28JjmGFLxVKVu3jskxyTVpKIDDx6e8cGAlAPN6bbOlAJ0sHNDeow9A4+DDgZf6k/sprpIDranbPeFwJY1ShSqydP9VdiDfVPLFuhwCmnbAsQzAdekcWFHCTk8zEpLqLhDQvo1TpUl4wTmt4i6jcSf/4SP0gwDaF5ndxJw4tYdWiOX0KX7Ik2QqQ4OcpdfYeOEYI+kFcYbqM9V+UcfS0A6GAW7OJwdQTRjjTGBU8Dni8JBWG8v7zSFl9H52dlb5ZosQfijfT/O9dLWMW+imGgufP85KBJFrSKPBULdqVWs36r5Az2wwmdk8SdjaAaCPmjU4nmQeAAAgAElEQVTfmgEJpaxyCW/XYBPMq7UNk5WNk5VNk6VqaRJp0YliX1CkmpsnZmOdqssjJMZ1xN/Qnsg/E0ZgL0NiTDSubbZGR+0vZkS+iI+rcNN2XqTlkXX5NBh3UYfnmtxJtUkkM3f0Oy+t0B8BncvDbwL1VoQmoO9I1m8B+gEi9T3RvViSM4kvh81saeF/BXaaFjmKKiRyPMZAwEErHxctFCICQfpJYz3IKDXh5AOhGmBw1laqJ9z8svPNYdYN/XMXkkyux+KIeOG26bpqMt6uGWf54LUyamKY8nUadeu20JeWBHMwndt0ltBIoFEpWa9Rsxo80ooFSxYJHTg1pKJ6Hm0tROf+bGn9+dLG84Xqb49s+hT9xfkWzTBQTEU8eZlvGAnmZqmZfrM/Hhsp3d+bjio+4OJZBp6JnQUo8vg60LP2tTn+eenQEKGX3mU5gRN+DgcWhEM8mP0e0bvI33NfWcodN3l6DdIImKEoLs9eyv1LgM4XZQ8p/dwDtk91wege0dNJFkoLkToiNYbVrpNUedMDpmsYrOJklVJEqpWQ3i2RZmNCKUwBNY0U/VAy2L6FEhsdmY7mpkd1Y+uqMkqlA1FhbOBmBC5ECW5CmyErBrO/erVsNdjllotWL5etWa9auw7lGEwAS2ytUXyxXPC1YOQRgEYGMZ1ObTaf8T0gFcVhB/AC0FfjxK6nC5sslrIOTrdait9GbCRj7WQjlXVFtflQ18YxlYk9JARBPa/91b7Dmix03DXyO4NLKN5b7KXGoTqnrRI2X8qnOy+sk6xVf5dKd3mtJbGN7IMciOvAA/h5QN+UeaYear+mBHyAn/kkSrGbryszxcnY6fwZF4MIUbsKo9kNehNn+0fBw0dopnacoEIbRE6b6neqnYJ7SSZ2UnfFER9um5RXmnrFnPt1myCSZVQpLbObLIibdHu5hBsAMk35KDrxqSnvv6tHGlpuT309qsm+SIb4KVtONw/JUhuVstX9q4FRz4oA3WrUrdNsWLMOt9GC7SCESeZ8a5yUgr+XFZiKJ4u5LTAH7ZbBSK/ny5VdjefWny1susBGEE2BaadzZCIQmWREGdteNAeE6UEcXvo8Y1oKji7pRJcbIHol7x0Rs0atbo16zdpNqd/wS75jyIQyQwSmz/5h4XiJIQ++R5NAho4pGCBxrbzslTTPni4W8Gzjdu0cx+cDIPNXPsRnBXR6xqapjqdmH4TRD/rmuy/TjYcQSGNli7TK2Q4l3U5IiSF3zKdgiEmbHZhs3aCYieZML8URvo+Zy919vSpvsGCu3D2UkkjNTOPQCI9vRAJSYSnwFWHotMnUF46gvtY1NmvkWmrR963CZKBUZDRr1qrWqlesVa8TDMfdjh11W9aAWeF2bbPpTKaByCBQLlhRAw4g/JYJVXIQnSyYcq/sejK34Wxhs8WagGYPGoCk1NUjtI9lAuK0OOLObO3DRqRVtC5SSAK2PFkstFM6NPQxlMKfVdusWW9Yq9mwbrvNaTem3BDEgMtYwp54aUmykOxWVT2/mL57tkdA4yClVNTto9xJVe4oeB/5EvCuVPsrAbTHE4Epl3ITR7naKU1l9uqpX3lUve+PBZgjjUcfhC/YyZjgndQgdakxmGFFUo1WqtXDNhLqU9rQwm/bvcCideLtK6ZwHKH0n+F1IX+sCs0Va7hhkebi8UKSKj4s2jiRRvrIpWvCg6ST+s03S7i3Pczs8YXDolktE9DdZtMOOm0C+qDTNIB+t17ZfIbUGlEOq3SQ/mohbmQaYPJhcABWfL5a2XC2tNF8adPF2hYAtFscqccLGagIKEVuB5YPtbDl5xa+oYID4CjIWSzY245le2KitcgPfAAidLNet06rwUMUZYKcVdVFkEpPUVZmDDpgw8fc1wmQI6A9UlUrffFZpJNq6Fjk1//c2X/+SgD9LmxlqfYDRNt3PZn/ewAjX9uH4IF1UG7heTaU4b1f1rlupOc7rPBhSxhSZc2JdFwMrW4XxXVnX2O1Kthit9jRKVKwXTDi5Lkkx0S0p78We+GZTDEORC8GpB7zySSm3rzhMSIp8oc+ZjT+g3VwyZrVkrXrVTvstO2o17XDTst6rQa/Z4sadDZVhAQR5oDYMVLDaN/YmkP6TV/v1ZoM92Sx5tcCkdz72QCvFGMCM8EdxhDUwLuO3ok7SmfdNDFACWNAZAT0CkMavMNElt4f6mf4uLUaWCFUpdGixjhhwKCZafp5+xx6rLhFa05puDJDPB7KHGwJkYZfJQL71KsY14ydX19xhH4Xxj5HZE4BfVMikG578BQ4UjSy0FqOFuQdz2NGUw0VUCPNdE3vKPTAYlOVnnDk0tfHaEmdix/cWkg7jwXvbLRXksb8MAP13D5jHa2gsLz1+1POna6V5i3rxgnolTdrZes2anbYqjM6H3Q71mk1WUMXEMUwLjmbMjoCFAnsc+lQ6mZ+VrTZAlF5xhYd09sVxCWbNEJDxx1Axu/4M+NyGDmEzjxmpekjptYWeQPsl3YT/3Rb58rXCe222uwJLsOdVslr4FBIHVsQYbO1PhLV7NIFfso+kC3pdeHK8wCE7sCZSL1e6dJjX5gPwN2hEHuM0AqQmRzsXdh/sH+/C9ACQuYMIqxn+iOe2WGUF/pp1l1F2Q6RBNPUVPSXY2giyDEQRCmg4/HZinH/K7+BdIPh6kjPnfZo6foBAYs8t2L9bNb+8V55HAg5foKCEMxCl0vWaVTtoFW3407Deu0W688GdmrVqraDC8pqYZv5zDaYJltvaHDANlA0hYslkl9occ0WqJtV50LyOV9uLFnjv7e2xCqfzc6WdO10QszLLhkh6v3EgngSgm6CiKsvM39ty+BqXIo/tAwADDlXDrlBfxwE3NaZfhZOhPk+LzwPSDZkFHjdaM3pMUXdaqhFM9ypWQKvIdYSySU1+tNfCSmWK5TfA368aX/LmvnOlDsn88vKfJ3Zwbins8eeT/jyunIFE1MVa9SbStMoapDyiJBM21BSltEdhGN7/sV6UtcspKUiv9D6ArPq4kln0zVApD1R0Udlrc7UXERdtay+s44DRXzcpPq3EttWnVrFDpsCdLvRsGazbhWkq1hKv1tbYb2w7WJBths5MkQaaLWlq1oNKbfYbfSdR1hg7/pvpOcJ/m21JbDnBDcGVCSvpD+Zs+dQw+EayoBf01MEtfeIueYWvftUPuuHpV8vZCrpkgKf/MLthJJHK3mdafcJN5RDIBFRY88SHESLNJXXaKd7mrE7ESuBvzJAB25TDjDf8LsH1J+jbr7zpXhN6mNQabqrqkpzz2oRBdJVC8dwBtJsmutX6ySuRFhlGx5l2RtGgK7zdjsgaYhDO+wkXOqhwGXK++27/BYKH5HM67lRK3Mda0UKMD8mSLZJ3qm2FciwTr1iB0i523VrVmtkvcHu4qtY2FpxuzZbLSUeYe2r18pamub8MjPA36HvPIFKbAnFmOpc9KYXK4F5ttykUtgVJ7Dgw6bBFwC3UvUWXzoLTb6eh2nMQKdTV2kfXqMaNInImffjc8FHxTKklK0RwmvFR4mIrsTYZ73B1CPyI/3mWh2d4Tyc08k1EZ9Sm7ksFOOZOU5XMekPknJ/sYDe4+DcTSNYeLFPqQehZ8fuyRWALlrJo0sZlrkkcmRZFBNZADMmsODdhX9jlCOJpPqNBBEHA2I+1+eSd0YA0kyApJZIGrf29zI5RCsehQuqqyvQoLMA98kL2OL6rqlWpWTtatl6zap1G/iqWwPCDGibEeHwO1NhTDJB072B2FmiDgc0Uu9koRU0ACXaQaidL6eJDROwyh5Rt0Zt9xQDG9CtkwxEK8sJM2feRSL67ixX3AWvErPaeB0a0hC4RPoJ0Pxv3zCCC8Opq3BA9c8x9lwpY5J4B784JkpQgwdYpoDW/HiMomZDMBTLYGmAtw/3p6weAf1Z0u00UucAHVRUdtA6oKOL5ZWEtkbKsRL1X4Ez8/rAuR6WS9srcv8k6+0bKL21xZrQGWOqkCgt9JaMyw0jgsTwB4AWRFJsx1CloumhuPlRTyNbqCNr4ISUFFU4IjQ+WbBWtcR0+6hdt4Nmzbr1qkFgggXrXMLuU0/QtVXw81z5qmmkmBhDlAbjDKILM8hci7Pe2NtJYoM5am31rnGwwYwfKjJovTVfjXRXPeroFGLCDH1oLqxLl++5uaFnMQK0shjNfbvRAw37dTIgqjM/cpkoPrJo9ymb0KGUWf7KwSQFNA4pn90WmL28cVIzZuPTrZm5lO+rjdC/m1R7r1Z2wX64lrjFkARjIdDXD4RKK1wu/S+V5qGeK1es2ahbs9kgqEsVyQkBhsUCWx88EqMdQi8vbYzEDccbkJ7drlBjtNQkEuWkjOS+dobjvrDSB3utwwf9U0hSOy7v5NwyerkcSpaJfqtWsl6zZk96LTtq1Zl6N6pq+3CyiwfXlo9bg/EfjQp8hStllGoHxWgoorPW5ArQo/mKHmRIfRvVIqM1AD1eYMsGptDklIrAT64A7xnEFsoW9O+5pA5iHMyT5/zDCEZFaeKX7TgdoJLl6s6iGwk92QReup+44X9kQlwqyP3diu6s+Rcrmy9cH+B8SQCaHAUrANc8Um67l97503+FEfr3COiQaUQV5PlsNg/rohKqi7yYFjHlHLj3PEQ6KTrDcJ8CCQ7UiyGVWswB7P1Nrmtx5lSeWj6uwZtW7qEY8+OQAck2z6SdhY30kymms96tGhbm4UaXGATtJNy4uIEB4MNmzZ4C0O0GU24oxuAAqskiqeSQujerFT4v9kYjIgPEMurT+wDgZGSAGll9aKTXszU81oy1PAmozdau50sb8N+XrK2RescEVBnZjK+PjRW8+DcdFErVGaHJbvvHQoWZFgOCL0DqTQLM91VTuw0ijGWL/l2e6BpjxX9HhyCsh2nM4F+8FzxC3wI0z8dYCep3dIrvfaDfQyF9sr9+EOnnh9TQvxdAZ22rTKiR+UhlEj8BJtvDpDouKrmsqaV9TogYALWWsakd44D2YX2lrmsKI5gGYt8VCRb5jNEpxQ8IElQgtzApRE0xppz8aoe/NVTjrLOVeisyKtLhR2UltNFC9bKi83GrZhe9th23m9ZrNqxRF6D5enwVDw6nTr1GEC2Thc2dDQ6XE0wwIfomS2mdATow2mC3R8s131PVd0uj//12urCr+cKGi6XNF1pT4wS60m0X47D159eA2QXaZWD7Pe33yof2wLjOODgb+BkMlcCkkC0pOJhK2onhGC29Q22k60GhyXrFjIoTbYjgkItuPVInyzR/4/x1ROg7PeE/L4Bvngy/EaCzN50dZJ/3QuT70PvsfNwycak0x5v2JF39lV1IR58LOLTwXZNYAEW4hmpIwdVGqYuJnDRwkJRp8I8bT2SNVEswGkT6iRtRqTo7ue4Uorrd54vpwKGCv+6Ajt1QqF2pDS+X7LjdsNN2IwV0pwFAI6Mop3ppPD/A0q3XtMZ1ueRQBsQdkqwq/Ud0Ro0cLpzI7FFL9zE+ud4YMAQRCzTSl5PELmeJDRJIQxXRYToAYhlgDFDHtJS2eeB9u5sIpZeK0OQPoElnd6FqrSpm0/X6EWW54hbiHa4TkV86Mid8FhKWaEBGbUINreC/UQKhLJoly1R9QBWeO+eEM03W8fj8KfZvCujfSzS+K7+5S1iSd3qM40Y30N78Ynjippm5rJLCoKCglJv7reTMGetv6F1FgwCN82nzBAg2sdKI7qoJNZxRKVd593Lhnbe6ZKafbXxQ31YtmhDCYMaZ5BzaNki5YZ7v5oBn3ZY96TTt+WHHjtstGhvU69iYWSFRxf75bsvX0qvXGanwujkHvQCDrZKB/tZItWOpureT8Ofr2YKARdaBEU30xfvThV1PE+snS6bmIMnYwlrDzxxCELmR4jrifYQNkjzPQMzp4HDJvAANMq9atXatTnDTPQWsepIwCst2SC0oHFDszQO4XGSn8gGfb5gSBotPBj8SoWhGsUwP+jGfbn/ewPQIaL8C9wE6onUMLIq4yVJwV5qk15EDFKmDp4AV62RFuhjXmqLHqagkQGh0D6OZuqGQ/kHBRSMBF4YgOuOepOyRemTNA+d/RQ0d2nLcXhiuAGMMUgvPsVhDyLGzXbFg5722Pe217duTnp202yTwEKHRi8ZNLD+tNaNqp14nb8xDAakvBh0wGonJI7agsoEHyDpZr8PoACKT1Zo97CqEN5WijedLTmIB7CP0rBdK0UnYeU+anISICfXzY6WlH2LqMOjdI7Iy3QagG9j2KUBDsTaez310ElNekr9KUaaOgw5EHCZxSOgTlhmjRCepF1ruYqs17V2F3Dz2JyuIf8UDf9KU+0uM0EG6KL0SO5wSMTcusFJeX4Hj1joAdA0DGpyQ0qmu2V4xr9GDdrJWGytdwQXRB+pftHsguID4ArJHjChy3zHJHGeHY3gkFUJoiopG+H5IIEKTm0UtitR5t7XTbtueHrTtu9MDO+12OHaI0clOs8n3KUBvmCq36lU+Fl4rzA5gaoCUlCIMvqaYxJKzB1NwyEHhdoLyYLeViUKlZJNEk1j9WWJDuJoka5tiK4cbCQaoySY44NjvzbnWZD1fgQqDGMgsoHRD202AXthoNrO5ZxMqiCTPjVHUUNZp1lkaALW6IjPIJKr585PuwiENTkmxWzHyV8Dw4X7kqwP0fr28H+54I6Usqi5yPg2/9dERQNJHazheJFiwp1F/qWes1ljUeHgiZAHQTjeqZVr9tKplMs7qLRsJJjDUiM6xDhU9ZW5T9HWpSCsprEBkRq0oX11GEoFb5gzJBqqtjR22G3Z+0La/PDmyJ4c967aa1uu0rdfppG0r9mo5wFHhY+C1CNCJLeEXxskn9JthHoA5YZQESHdXjJDDyZy2RIAFsgSQVtB9j5Ol9SE+mS8I6AlaWihDYhhFTTh36RTZRnt/t2diFuIL6fCakIVA9ilAV1nKzBZ4fHiiQSgCGyhv2VFzj1pdUTpaiZzeyqXzqRLZPS7yh3kKZl5fnazZ/YQ38flr6kdA51D6IYAO6ae8qcPtAqAWoMP8ILUEhvLKhw3o8umAxg0Gm9x6WW0iRUX1PRH1dMP5Qjz0TCni2NqUemmRaniOarHIQwFfsXqGBF0RXuFlmyzXNlqurAENd7thfzk/thdnx/bk6MBOjw7t+PCQwhKyvcs1DwV8L5jqMthhbJ9E2g0wJ0ubIa1dJDIOYOoNQ4IVgQRAQwmHFTsg4lBKYF56msAEYWYDAnplk+XGJnh/SNcxOFLISEStDlKpEu+RXYBoBXIpvHZCo47GhBUyAmQzkyRxQKMrEID2tl5Z5oDKXHzlj1sURY87FZTkes0pGef6fm5w8QCgk/8R0A+XZ3zAI90VoSMKx7/Fh/dLEZqjix5JAWoaHuBmCd22K644s+v9Zd/YnJJqiH2os2ulgtXKBWtWq24BpAXvcukQ2ytroSIjH+aNQS5BqIHvwWtplErWriHCq+7Ge0B05TBGpUpJJn4GB0W7Xrfvnx7Zd0+f2J8vntjF2ak9OTuVVYoVLEmWSpfpPVawGry6N7ACWpHxBoin05nNZjObzjQPTbEJJJSLhQ3HqGF1AOD5QVhB+jlfwKZoaoPZgik4tN/jlQ4ogBr2P3gvnIjydhtqchBxINi00iZW5aCk0fWLfdyoe/FakG6HlJN1OMoSXxOsIRCfdfbBD5kvqL8e8zjpqKoq9j0WJR3YCYLy6wB0jj76DNNU92H8PkDnk+/3AjSIFh7l0g3zRiQ5BisbqZ3o40VAoHUjL2vtn1ZqxujONBkG/WELVJOJwQ4KL0xb+dJ3Rv4CwTxKlnY1Bbm0ZJRGewga7W6tQp22ZIuReksiOUYqnCxpOoA09U9nx/aX5+f29z8/t28untqzi3OZ4xHQCds+eJ04aPD6bYutHStbASxJYtNZBuiNt5QAJmye7I+mNkvmjNgxEILMYrZcWn8yteFszmhNQC8gC8WGS6FODithnLjjsAdKD9S6oCejpywXF4E5NaSgx7YGSATohZykaOsENxJp7fH9eJ8haWXtHLuiU9LND1G3V967P3wXVqgQ0jZW/sb5gCDzkN/6oCn3Q76wT/1YeZY7Uu14zrs+l5u1dIWAVk8jgClfbQGaXwADIzCIsiLT4mpZUTNIIN2UkjFirBHpo5O86UpWCiD8wMBUE0YVX0/mjHSQVdJXq1qyg3rVDhpVPpYGQZTKIpWcLJCKQpa5ZR16cdSz75+d23/+ywv77ttv7E/fvpBBHurtRcL6FW+PUR7ZAQc11rZm2r2w+TyxOWrV+ZzzxUjJyQ8kiV0NJjZhSr5kut2sVHiQAGSD6czGCQC9TN1NCGrquwER35flCvUZPb+zzZ3kBtjeQ30PosuHVjz95a5rcg+K0mFGoMO1RJkpJ7J8iaDqdA+xeMO5XbwyldAho+/wujmXaus+8qTrEdCfGrb3P/5NQOe/kx/wjfZiHtD4eDnHGwMSSLdLGtkDOYaIW6Ouu2B1BzTBiqmmKlLgSgpoSTYzwwLOTAvtIm+QuqcyxJ3GFJOFvRpP7WqSkGhiv7dSspNWw07aNWu7HW+CeWTUogAFrYHASmslzEG7ZS/OT+zfv/vG/v6X7+zvf/2LVap1jiICCFSMcdWMdN2FzcqgAtlx9awsfkmSzRP+9womB/PERtOpve2PbTRD2r2werlirUrFtdlrtpTQJ55wFnnFA4ltrKWcTlbuMQaWHVjl+OUKOnAcGBKLqEcPngKz1HIjDUymslT6iGkijOVHjLHC680ByrLACTH1q2HSLxKQvuMO6BAVaThEsVrfpYOBUP8j1tCfD57v/8x7rGRw2qmeUvfGrR5kmmKFJ5daRGJdFZXxRSATwP47AM0Z5BLZ62atxt8xe5zqO3OD+mEuiFoWNx2EJbjJNOUkzTdYZIDhzQiAntE2FwonRKCTdsPOOg07bDX4PMAuBiWQtqIHrHaS1FYw1396cmDfPT+3v/3le/u3//RX6/YOrNluM2UFcCAnZZmAqavlgrZEBS6Fh9JqYetlYits2AC454lNZjMbjif2uj+00WTGCI02XKcmxRnaQ9ME9XNi43nC90KDBD9sMNiBEkKHmYhG1NcANVhyEGvgDNiK8kgNwo/L+MK6KbzEXN7JzzJt7blwx8dROWDCxe9I51UKUX/A3d/Bb8fU1U09gtfWj4B+f/B9iu/8RUB7Ch03QZzESsn1k7jBMSIfM7VYlwMwI52rl0okp2Rgj68CDQXCKhcgasEdxBVYmuSKG1S7ous1RUmY7FeYfu9skSwIDrSLEFXgtHFNQE/tLdbWYHjBCozQTzoNO4N7Z7tBth3meNPVigfAq+GEAMJz4rWcHLTtyfGh/eW7P9vf/tNf7eLZMzs6PvHRRk9tmT0UbJ3MbJ3MrYgBCfSfV3Nbw28MgIbOez63yXRqg/HEXl31bTSGweDKWrWK9Zp1ogqHEl772AE9ReoOWSknsVbcvIHhDu7PhvQVe8KwdH6zsyn9ymQbTK8yymUlZ9VElRso8nm0cVJSUYlIYPanlcCxvrckMo8rezDuueMhHeuCZMyf0aQAukhvzwZyuu5I65UlfF7l2FdUQ+tCpw5hmSA3Fy31HRxih8Io9frPTP+RZis6q+/MdNmdQuBn3QS5VS2xt4y+MtLfdhNArlsLhvA1baiIX6y7kT5CJFGvW6PRtHJV7iGIVGCVp+OJ16xoxyQ2heXPdEqC6XIyI+GFOrMDB89W3c57HTvptqzbaGq7R7FA76+3o6m9HU5sNJ9rNrpet8Ne2/704hv77vvv7Lvv/2LPnn/Dw4T1NOWo6PWW6F4Cn7EdDPZXC1utEttgA8hCgF7O5zaeTK0/HNmrt1c2m805etmBCWG7qbUyqxXTctTXoxl+R+oNjThKAmURKCFw6MgVBm009d2TzY7bLVE2cL567e4iJO4k6wwGm7E1dj5TEw7hiwZGuIGSE3AgADUBl7X5FOlDDBSjmJqRDpfXTBTMg9+9vfcChf8hS/wi2utTl2jp0wD/QQC9zxz/PtntFEG5UzdkAVEVxfdQzIAbStr+TMpNMDug/QbCjUSlF2xxKwVrlQta/lavUDrZbdat024RPI1qzapV3yHtbagyWkP1utUxJNFsWrPZtnK1ZoVyWW6b05mNBkObTqYECdJatIqwkgaOm+jrQmqJnVIAHiLik17HnvTadtrtUgFWb1SZ3vYnM/vXZd/eDMc0G0BaD5fPi6fn9s2LF/b3f/s3+/N331un0+Zrwo0HRrxWK1sJtTRS//nENrDuhYkgv5YpoEfjifUHA3v95pLEGSJsr9PioQEtNg6neA+jKertmY2nMwpAIEoZQ0U2g1l/okV3fnAC2GuAerXhQjyw9RCnIFJLjSZjBxpCcLun7xlzUHPUk8sDXQvuBJm6Ce746ZtFwgGFFr/shWtWHcQiyM8Kptp8I6haXWHW72V8Drt/EEBLEaWG3qc5hT4qFc/1GPIDGHlQh14sm0+OUxWsb7RANCBfLXqqXSlaGz7XtMetW69Vt14TPtdNa7dbrJurpXAxcadKgKXRsFqzabVG0+rNpjWaLbLQuJk5tjiZ2mgoQM9ncxuNRzYcjxgNJ9MZIxxcQiCp1HbHgp6/WbejTptKsHarwZsTNaNAg59Z0DYIqWvvoGenJyf25z99y2j95OlT6x0cWJVDD7K1hU0RDq3tAk6gqJ8BZmwAWdkaU1iLRK9tMLTL6z6fD++5h/S/23F2POE2DhxGAPJwNGFqjrp6Nl+kkXswmzMao9Ulnbu80sDYA9DgDTC9he/B4AlenzIJTV3FEAYHS3wGHbJVsN+UgzvLyJqZ2NeAC0odjbvKYB8RWlZR4jBkPpgZGGJRgjzhMsVYno7JksAvOkJ/GYCWK4ifqpn/n/OXMH+PtaPBZ0bfWPUz7X4iMpdhHFC2HrdQwHivxa9eu2NdTDTBvaQGNRPWrJTpYoKbr1qtOQ660fsAACAASURBVKBbVqk3rYohg1qdfTAOVQB006lNRiObI5LN5zYY9m0wHNhoNGEvGLU1NNLDeZLuk8KgAjTOADYGF1pw9KSEU2ks2lnD5ZqaavwcjBTq9Zo9OT2xi/MzRuuzszNr93pso2FaqoXDBlEbK1rhXMLo7JNjawF6PB7ZZDS24WjM54JrC+yBO+22rSETXS4smc1tBkBPxjYajm04GNloivp7ZmMcWCDWkIEsZZYQRoIgFhEkpssNBzzeTrQUDyt4ZN6ga6qWlnzR0Iqn6QE93FAmoJeebaFWmzEAjdFVRXfU75yGoypPpogANdRhZfq1SeKLWoCP76OeacWdptyp4+OtGBSjmA+den+ClPvLAbR3L/YudpgEhFV4RHFKPSEOIUnkdrkgwuBxXSvbQavGWePjTsuOuh077HSs2+lYu9W0Btax1nyrA2SK9BurWpk3YIUpdgVpdqViBWxhBKChekJ9mcyZduN3AHwIMA8HNhyObDqZUbyBgYTpPJEbyHolK9yCRgap1IL8Eql9tUJTfYDTqlUC4tXV0Iaow+dzknW9bsueXzy186fndvbkKcGI2r7d6Vir3eLIIm74LWx+0cPlVgmk3YnNJmMeQBCeAE04JADqOlhutyVGHZ3MZzabDG3UH9mwP7T+cGiD4ZjMOAANYIMXgDyUkRJtOdoSF9jWQpvrGmt30MtORPKxNUUjRrWy6FSClhZNGCE20dI6Ls7zfnFaKoLkxM+FuwkHagRobulAdsNRTE3HxZCHrzFRlKaqT4+YkmR7PM0+pj+VB9lXA+h8na9IJdVWxGgJ70l9pExnzBejeuBmDIhGXNWFG4z6a7K4NTvptOy427LjTtsOuSOqY51Oy5qtJplr1KTVGoDre6+KZYJXs8Cwz+V2edOWednRIeXmGhonnlCDjkdjm45HjG7z6dy3LIL9VhsIQxMxYgnNcuzg4rrVeo2AbrdaVqrVyJhf9kf2tj+0y/6APwdLXchAn54/sYuLZ3ZwcGjtdttana41Ox2rNhqMgFjTA6EJJrM2nnIvsAsLopQNRCmQaaos0ax2xhRRnJLMbDoc2Wgwsuvra7u+Htj1cGQDlBiI4GxvaS0tauUYuoIZL1pbYL0BbLS6tKZH7S72jvGc2H7BFbWS3UXbD/8dJaHbJYjwCmmou4iiH03xiZsjAtBgVii2cRKUGgEHvxYCoNuQE5l4S+uXSsSHjtSfANC/T1JsD9CurS6jv+rctyalsuVz8IyKdhWlnewvw8iuxHljjATCuwuuHodoFR0eaNlbu03RBlLtZruZAbrRsGq9LkYbN1qO6aShO43dAXCx24hLBLTXqxjIx67j2VQRezaZWgJRB3Y34WuD7/W+Kt1DNTPMFBL9cBgB1moENVJ9vG+opPAYV/2Bvbm8JsMMa6TDoyOm388untrRyQlB3UCkbnWs0mhZpVZjqw5Pgtnp7WJpmwVS2gXloYQMgEMPa71usirOmrM1tN1aMp3YdDS2q8sru7y8tNeX13Y1HFl/NKL4BC0t1MhQt9GHzCfLOGJZMBstNjaco7cNZlz7q5D+SryNZxTgXKGrvV702hbHs0k/f/ydhmeY3dCYApZFRS6LT11Z2d7KlhagE4BDk9kU5t3RCQjf8HS8MssD7gL2Q0fqBwH0R5FUv9EPx2WlnI+7qCSYcPpONz7HDXMtBbe15tJzSBjdgADikU6jZp0myKcGNzYize61WtbBalOvW+vw66JnlyI00mr6jLFwi+d21pS2OkgZAegiAb2ez1l3Up7o63XAfENqySmnxdJ3J4OJhemAC1AINEU19WElnAgzBLaCfIMHF6PPkbLPtXuqULBWu23dXs+Oj46tc3hgnW6Xh1EFPfJqjW0tEUi+WQRprJv40eLYN4gAtEjH1ysshxfIKEt1A3uQaXgPw8HAhoO+vX1zSULtst9nlEZ7i2oy2gopCtNYn1JaTJCJ9caSefAIqaNoKs10hxEfL6XCz5+bgPf9VRmTomvEBYJcDKjdWOhnY3FAeHFrug5tMklleTjSkgnpvxsz5PpYeaJMzxWHSvDGD9fG+moAHcgNIiTPYPPk9hsN5FH8YtrIiaUyjejBYmNZOmSWh12PxC2QX00teoMwpCzDvXq9atV6jfVnE1sRqzVtpUh3JimSUCsMgBHQcAlV6o2bYDObklGOPmm+c0BDP8wSe13IG4+rUn1HFm4sX1a+XC04QcU5Zjf4x89y13N+ZQ/ELAAr2ms4hBpta4ChbzXlXsq2UNgFof53H23nF2KRX2zApKc32kWLxA8VTYaJXZYGG7+S2dRmk4ldvXlrV5eX9ubyilF6MB6TlUfqDYKMrDccYSpY5VNl7x1p96vxnMMq6F8joscOrfyIlPArQwpOrrEfjcPVddq+FTP/2RPQFKhgL5eW1uNxYsorvxwQ157PG4DO2WKwpr4RuFIzo9CppB2hj+sMfVWA1lQUhBz+4WI6ijpfn5DCyeuA44wxzeXkIoIvrJCBpBJa7INeh8YADXhysV3i2yBhjUPzuorV6hKRwEgehE3m/wXvLMlGWePGBggCumQFJ4C2kFu6XZF8wLHZAj8rGx3ePC4JJTnl9rRURnnfF5EcQxTTWUKVVvRUmRXTaRq9XP0O+x85hui5AGAAu1qXZzcPI9eYV8F+4wCgM6mENvJVUwYir2xMaaH36+OPIJUc0BGTeJg5sQY2H9H6EoAe9EmWYbYaunAQfnBEwc/jQEWvH31pGCW8msy5tQMEGdtdmBOPgYkckILY1Eir6uwwpVBvGS9XEVn9ZanFaFboBvw8GPxAikwjpKKZT1y0qXIk2a1M1LsnKaAjV3wE9Hsl7ZFhAUBoPShSY8BCIK6CFSbhlc3YEsi1qrVcg12vaRoKhvDtTstaLam6MJgPFpcWt9udBjQqJTLbNNvnUL0vlPPRSrKw7J+KMQfRRBCx5pWUcccei6fmVKah5VWxIoc7fEYXz8vVLIrONNSDQyhEHBiEQL96ghaXAK3Bj6IOBtbqWGWjCCQbIY0fguFlFeptNt2iIpQQZXkd2HqraKUu19F4BPd0FKSf5rizsVEukXMXFPDWuCocgUQdigGPydiur/s2HPbZ0wZJNsR7gBpttWKMZF+8WqZXGoZOXk8Tu5qqH49212KJ+WoBEr9ul1v6PMhqw5qI3IVsfrEgECUNTf7zrLUvFHRnCm3uCNWXj7uyxx0H7S9E6CDlvB2u5NHr+o9tY301EZpTTWw7wR5XHyhOe05DoUbGcAWdQzDGKDfJTrNG7TVq4jrcO1x4oJ3Q8t2OfdB0v/CBgLAe0iJy39uECBZpXwlWuwCE2ixhGM8UFqSbRz9G8bj5WeOXrVStWpH2vr4twiOR6ADJHBdoIc1mNhqNDOotiFDQrwZQw6EUWQDqZa6xwWpVWvVie8SCKjLu3UKYC1+03IAKTfjZhtNhJfN91MdadM/2EcHigxM8ROUuoi0dyli4ttV7yCLKdhSpzGZTm07E5o/HEwF6PudrQ6TUZ4nnlQnE1WxpV7OErqKoqWGksORKrn1Ax8kf2y21rVOfIQ9LzmGLfOOqH85gu5qM3S5fTevJhzuhpyJOtatiFY9/b/5E8RfwCOj3isH3fZPImEi32XKoIDKjnyyiC+0nTklRg13RVFS9RkGIwCzJJj2yUSuhr4n5XZ8t5mfmiqTVGhsbdSPRNxqbNHy7g2ovRBiY4QPQGtIHoOmlDTUWDhNssmBvWgvQYwYYhBl61wQ1iDVvm4T0BaoJpIvz2dTG47ENEOFYi87k1LnZqEdbKjO9hkqM+urFkvpwaqvnie+gwuCCJI+8kd0FhTVkSXZJ4Wctxw94mkl+ScIIwMZzMbPQAj/8G0sW3ywiVZcyFDLL1EZvSaItYcWLfjWEKHP0pjF7nUjC6ekvrjLSXNTRkL8iSkMCi9Q79lPje245pXoNzWyNJJsOUrwO3CvqW8vTTLPOIrp4HfZSZCe4eAOki3Iyk8PbbJiisffB8xE6rd0/Uuf9FURoABr2NTJ9j1MZkk20oTBI0UR6TKueijUaVequqb2u+5pVpI7uoAlSCRY3aJUgklEPjE+DgMZWxbUWSsGil8b5sgBC3Yf5aA5u1CpkadG+QgRGpIb9EFVZ7BdjiAN/hvrJa3OvV8UyV61YrlDvTWLGY8Sabasl01b0q/v9oV2PRnY9mtD9BDcqSDr8PDJIHEoQgVCYAjkoBB3zhGyxVtzgPcmkTwvsVT/SyQQe2jGySGZYgFDf2TMN70MjRUZyrfpX/AJ688h6kLbjsRC9tTCTWwV8PdCaPW4OqMAhZT7j69XWTum48YW0my4uk2W6cgeTWRj6wEdBk4e9895jJCI9zAYZqTHhlpkZwC8cRCN9wzwDUYrl3QKPxOlhcRPQEdnvAPUjoD86QsOvCoDWZgpEEghD4EaJXjLILgpGcLMhtcZNxrQXESdIKKONLncfLeH+IVaVk1lumJ86n/iNQJEKHUyg2JI/NYYnQOiAqUUKD3AgBW1DVYU+caOmnjE9pwVovja8HrDPNbS/PEq7IEUeWahBYeA3twnY4dGIk0/Xw7FdQYSC173dMNtA2wlBDr1TpLGcUSagpfPmzipf+gZAg2VH5GRN7aSW1sf4YL87ixLQvmyOkddTWv69Dz8Q0Jwuw3XG9cXWDgEaLcPgvtlWxLUj6HYc9hDBB2ujzJgQIhbMeGMKazBbMkJjjxansmDowGX1OnRpdnBD7AGMgkNhqQM3ExeWxF7qPTeSNKTqgdJdYARvFqHT2t0Pg5u37yOgPwrQSrcFaB8HLFdkOuDiEACa43dc/+obH90uVoPzblqHKAeB/2Yrxw1fqRoffuiOY/9TmkbRchZ2RNgXVeXOKJA6NNUvFqg26zbgjY00HwMRStNZCnB/U5lAhM4bU1nsCQPUSNnpwKEovUgSS1A7D4esn2E2cD0a22V/LN3zes2UHikmCBwAOlnLMAHtIWy3wAgjIvcKQEYvnCWGFtiRkPISgBV7TCr5/ifWz566AsA4Z0g4eqsJ7wnvhY+BiO1L5vh3SL/deFEZQJmZTLteZfYCYwVkIOAG5ouEPAFmo5ExoUeMPjV60SDGIAvFRBZ702wnqQRSppGN0EbwpJwTPArHRrX2KPr+NFt2M0h5l6koxr5stLMCvOoUeHruQE5lS7korbtpvzWakWIfP1r5x0+5XfsgQONDU10LMMOHS6mwK7don+t6UF8iLiE+tijKtE/zs8aohtSbvVzf8yzLGv+w4kP0DYYxsI8ZaURpHCK6ueH2qUEKTEj1Wg0tu0MEJxjkNYY56gbmqaENh5wUoIbyLABdcEBjrJLaaGikPUKPpjZGjQyPLd6OMt+nod52zakrRDOYDEyTXLqNm9Z9yeBDjUwAdWfqDpJOkuvvaDYAQDswUergwOKIqa/nQdQWy+2qPN+KyY5DDtCos2FpfNxt22G7TY6jsNsyA8FMOBh8KLO4FROKN4xfJgA0tnMI1IjYEKXAtSUvyQxHGmZWLh5CUYDXrZaUN9XIvQDQIjT50aaAVs85M+h3p5tcvf0+gA54x23zsbPSXyyg92ZNnfK/1cHLPpfUO1vCkIo16YMtH2i0i2Smp9E69iN3O5qys6UEfTXLZLUyELEAaDDH3PHsC9x8sjYkxQrQfFESj2CWGpJRALTFiSgcJmrBQEIKQB80mwQG91wVZZ6P2r6FlBwiFcxWQ1vd0silzBDAJhsjNIYjAGi0fi4HQ6bb/TGGHuA/tuDNjdoY7xeptECNdTki+pC+MkLHkvd0/5N6zWKmteKHLDxvdIEUhyVeL6Ozr96VbFbm9lrmrijEa+WFrS6RVHpioOEJXuUh9+T4wM6hVoNktVSkjxnr/vmcq3lk+C9A4zMBoDleOcWIJVJvgVpdJ6AxUmNtokw9AeFl5uIxHjjIenyqKjzI8m6ArKu95NhuNR0XfWu2MDMrjb1lDTcj9COgPY/NAC0zN+2huPHLAR2SP6R6HC1M09mi11iqswLQOh+U9kXNx/3DvrkQ6d0ca2EwDxyyzDvrpRj4cLcLztOqVoNdkRa5gVnH1oyKdetV6yGlZqoNogaeZCDukIrjq2mtVovDFZh8wux0rdlgPQqwgRkGww0wX11f2+urvl1CG42Bh3ADIWAhQglAq0YGeYQbEjc5erjao+yT4a5950ZMchA46NSGAshAgjGTADtfUS2MlBUe4tR0k1VW6grxC3c4cxunQJAKMvi9qtMRnXG4wffs4vjQDpCZVCucv+a+atgfwUIIKfd6pa0dCSSg8E6b25txwi+0skY8eCM99psCWm68Fp9nRl0LQMuFVSQf2pIENgU3fj24o9oXBjq7vSOgcT3z35Ofkc50Yo+Avqd+Tod3Uks/92e+ae4Sgxi+3RE3HEDCG7JYpB8Xjd43niB52owPk04Y3lph2o3FcxgWWOJnlOpBycWa2SNAWL2m4Zn1l4T/JJWcNKL4hBpxeI/BSBAGCQB1Tfa/bKXh7xWdIS2FxBRgbrfaBHSzJVkmCDNEP0w6oYZmdL66tleXl/YW00xj2A4tuDAOhnuIwLEsj4SXysIYTEpVUjohdSiFXDMyDICLXQGSiGKrydIT0Ji51iyxVFfBFOvv0EJD71sbN5xoRNbgww9Iv0ESovx4dnJoFyeHdtLtWqtRYy0PYwUMrVBhxqXzGFBBH31pE9gzzeb2ejyzV8OZvRnP7XqW0NtbXIBEMIrUGnkE8Yf7iRHazftlL+XKPQd01NWU1+Z7YTts+RRpGgKfvNTzpgW0r7vbu7Ols/+Ka+gAtKZlAZh7AO3m9hKUyC4IgJb8r5AauXP8zlMu9Hg5p+wWOLF9UimmiBEuOkOUcUZbn07oqaLW8tQSVWsIeqMvi9oxlZeGoaD2WzGT4IFSsjYELvU6xx4Puy3rtGQYIEDD4aRBggwbJRi55on1Aejra3v19tLe9If2djAmoJF+LtdQhfnt5iBm7Z+WBxm4uRmEgwqxNB2CEmx71MZHlgDep0eNjwV93O/sK3Wob2YUla82ugPIbFCq0Aifv6N2l784xw/Z7kOErtG+SYA+srOjQx5oKG+RFSEbCUCD3MPiPGjVEaUnjNAwRZzazwD1ZM7ZahzcAG8AR+WV1uW6a7GEN+BbXMGH3j8OKKrIcJi4rJZKukgJnWyDDoWttBtNskdA3xGVc8Mre/8agI5TjwyiMwyRXJEQg4gABJh7gCkcGZ0ktQzO2zIkw3wQwQX8kQam2zD8KWIBXfQqNTqn1I5RicyqizN8pQ0x5DUogeLSU9TLaGshWpON98VzMBk8bGma6/gA45lwQWlbGzryIMfgw10pUWUFO91Bf8CU++Xllb2+HtgbGAnM5eHNNlQ6OpxZ1KJujUuHQ4u1LCWpqn1ZJnDTowwPIbqR4SFEN9J0o+9OTsK3WeAwiKgG8gqbK1HzaqsFat45+9+IqOh/c6czfLcLBfaoEaXPD3t2fnxoZ0cH1M6jRKH4BHPf7uyJEU6utoV5AgY5MBIKR9TRxH7sT+yn4dSupzL2BzcgbsM3JIAbIV8Q4hH1mqPfnnqjU+utz1IL7+Fqowo4+tTq2euOzP+6BWgcGvvf4pNwX1GEvhPQfmoGm6i+v0siPfUWKSNAI90NQKPNgA9xvhapgg8JP19GDPZUS+tTFCmRXjIFZ6oOcktDArSPxQnND1nzuMF6qzbVFI62RSrFi2wtDhwCm4PzqlFjLSz8y9q1ip1023Z60LOzwx6dUGCe0O4K0OpLQ0FWlggjSegCAtMAAbpvr/pD9pgRpdm2oUBEN49rJbRk3r9wExPIBLE4B/TIIbZB6o8VtE3U+pR+SsvNvc5CiktisenR20CQmCICY2LKU+5kvZKvGIwFXd4JoY6mv8Q1IK0/7nXtDJ5nRz1mKfg7vE6AGdkRfifQOOCx4v5qSD8H06ldTyb2z6uh/dAf28sh+uwL30gpQLOjwbFu/+z4GToxyplqHS7p9gyxpengawyrkO1mv1u2zI+AvqdO3jvl4g97yHamMfeNEiY49QBfMM7gqlYV0ypSR4DeMlIQ0JwZRkPHV6ZA8MDdxmX2jlHbUtvN9a+62XCzMx0D8+0ez6gDaTjAGhH1ndpAVF75AIQmnmKaJ+2EpLUqDxZG6YL1GlXudH5y0OP6V0Qp3NidXsdanRaZbgKnXJbJALZXgOXu9+3V5bUDemBDkEMAdKieckMLumllgMh+LCKzi2oQmQlwKtXciI+e4dGz9XRUMUY3PxcPaOiBa3Z5SEkpRkWYNqfz2kPOCfdPfMHQANdNVj4CEzICHCInPRxkbabhe6oyElEOaFxr8BvYmQVvsunMfrwe2o/9sf14DcvjObdz8OGRfUHB5hp7zof7PDkkryS4Arpecyuq6gZkycYBF2nZY1G8Rlg/PELn2e6PGdT4YtpWNzIUrSrx1kj8W0QbLmrD7VV061X6akm7zW2FMW9MQKv+gjNFtJ3UB9biN4D5qFnnNorjbpMG9TDOR7qJyMX2DKeUZDwAlhgrYFQjin3l8jQf6wPwmVpyx7NOdf23V+Fpm8h4oBw0a7TkfXrQY/oJJxT4fnUPerTbxbwyPL3BysL4nv7YgyHtdF9dXdsbROjrAdtWADT7yp4lMODk5oTR92b97kMi+G+yvCyytciOAEDJAIsfTlkB0JrDijFQAJqfxdYn19Caw4w4WlGI7hgrrdc0MYYldlyLs7CZr4EFYYZrhNqYqr5ahW4wmEGH+WKjXkkFLih7IlIjdV5Bg43VOdiQOZvbz4OR/et6ZP9xOSJJNlzg2uOg1+FCPTq3a+JQRkkQklF0AkSWpVSDA5rZus+Fo+AmU8/nlrxWrinZr/dJub96QKeD/DdUONEXZerHWkguGerrBqBVP2ufsMgYMqxkOV1vXKnYYaNqR626nXaadthu0pIXIOaEDnuqivKQH/J09xqQLC5vDBkKQOivcTxFEi1vz9pGADOIKva4Eb3dkRSTYAdNGOe3COinh107wE190LGjo0OCutXu0BKoWC7bEkaC6ENf90mMvQWg+wOm3HDWHMGyyDXn4SeN9xwD+1gdS+EHHVOgjtvZAj1qvkdporlYD+mwr/SBEaD69T7zzTQWRNPaVolmmHF9OUJZKlirClDD2wzGEC3rNZua7y4YgY2aegi3EjiBzmcsaQDo04MDOzns8QtqOmRO1HxB/EIXUrQQtaWShyrW7CRLe4vVPIOR/eN1334aTOztFDZLxrIKBB905Th8kE3RTtgPFw5juK8YuYW0hJMShb30mB/HIYns6xHQ75Fr+7dEFM6rb6IfGI9yM0LjBsoALWkhI7QrfgBoDSLI4ofSTbSKYGRQqXDx2zEic6fB1A8TUrSccXkRXhPrZQgJWIfp1eGmYrrtGxmp/0ZK7t8Xuuh86wgtW+inEw54KN0DI3+AHVTdpj077NnFcVc39dGBHZ8e28HRsbW6XSvX6laslG05m9p8PLYhDAKurti6enM94K4pbH2ETpvtIneojLNQ6b22ZSIt1k4srH/daFkc36NqfwCJ+6rqDW0EacJ6WGYHIsV8BBHtwLkyFWjeeYhhB1fBqJ/H4Xh20GXWgUUEMIogp8E1PyM6kcIFlMMttaqdwLPtsGfHB13W8miPYV6cnmWYwCKo1SIjb0HN/Zrv++1obP94dW0/XI/s5SgxTFXjAEQbDO8FP4M0HdtFQKjNFmDQM7afG0RcCQc+RSaOBV4bOKTEYc6hEbf1fYzQ78B2HtBZrzevx9EDKNnW/3KJHCI09cVez1FeKBEJx+TIcHu7BGwurIZqZetUy3bUrtkBUsSarGv1wW1tlUvFEFlUg/pwgbdstH5FmxdCooj/DiZcFkh6pfhvgAsgStY7bozEc6BP3atX7aLbtG+Oe/YNWjhPTuz8/MROz86td3xqjYNDAbpUssVkZPPRwEZv3lr/8i2N95Byv74ekvUdTOace4bTB+tUJ8dCZ8756K3ZZLGhX9eYJJVvEQEbDy81kmNoWzVprYQIzdln35LJUOYGgTIRFEkY2zEg20SWgnod2cdZp2XPzo7t7OTQmrAXNmOExjjnLFlx4g2HBiyRO50mDxHoB/AcAvFC7qM4EZ2cwmOoHkYtveCS+f/5+sr+eTViG2sFEhLiIrbaygTzFDpwXB/08jF0Qw+xjYwNKyVrV5CtNeyUdkwYPS2w142RTZQKYe30COj3DNL7EVo9QL939h4hU+K4Ib5/IBhIIEHjBBCJjOiTbtY8AGgEiL4vhiXqUm+B+IrhDI3jafcV5Znoa8cKFg7sYwRQTiL4YHFYcGcyLHaTpaZ/2L8Wo04iitsdRUohpcVytvlWIgiw3b1axZ71Wvbns0P77vzEXjy/sGfPntrx+YV1T55Y7eDIylWtrVmOB5YMr2389rUN374hoJF2v74a2NvhyC6xqQKGgItVOvwPYLFNVizaYms2W+1shG2QqPvXGM/QdY79yiGd5Yw33nsFTivSAKRL/XBQuKCHPV+0hlBS+PYOtJeQosrTvGIvzo7s2emRPTk6pI85Zo5xLVCGMKOCLoDPJY9xeuPvtlx1C303dObq8/v0F59Ppc0MywSmc/vhcmA/XI/tp+HEEhIHJTmgVqrMWHB4gERDDxsz4RhDRQoPPgBR/LTdtG+PD+yvZyf8OUz7II3/j7d9+xkZkJtIhI/4Y4R+zwitBt49gCbqMx0O3RkD0CC6wqAOHzjaSymgsRVBmyK72EdFVhs7JnVjMPWEOGKN1Sza23zUxRK2BvXGHEmMbQ1x80KRxcgE9RKM7LFudclNkBBRcEifIgrtLsZr0zCPalZ6UZsR0C8OWvbXp6f29xdP7c9/emEvvv3WDi6eWevkqVW6R1YCKYaoNOrbYvDWJpevbXT5xvqXl3b59tJevbm2V15LYxcW9kKFm0cAGgfRaLG14WJrI+ya8s2NOniC/JLDJb9I/GTulbjydb55vAAAIABJREFUyFLJ8G4d0O51jesFhRnSVbTm1F3A8jgdbBcHHXt+1LXvn57ZxemxHR0fWqWBrKNCiSeNDbiEHnbAO80w53TxNP/nvPo+oCFAATE5mS/t1WBqL4dj+7E/ZeYBeStab9wGApXdesvMAFs/MKGGTAI8COyleo2avTjq2n95/sT+t+9f2MlB12qNmv23f760//bPn+3/+uGl/etywBIBXMyvaVt9daRYjjM0KwSLGHaKHgZ4crt8xw0BpTl2Jw2CUQys+sWZPBFRBicxUlwMTmBWmoDkGlPUneI6OVgB9ruBfc+yJcLPIkWGYAOECyeyfO8RUj/0XKOVhcekJSzZbE+5HTThKgsnEWTEiNwg5v501LG/PTuzf3txYd9++409e/HCDi6+sdapAA2zgyIY80nfVqMrS/qXNu1f2vD6WoB+dWk/v72yf11e2+V4aoOp1ubgNYQTL4A4XG7pdT3lhFLMJPkQBtls6J/Vc8X70/npU1NsYvtUEiO0yh2VI7ruYZXMTZQUj2tQGdccWzMvDrp2dtSz08Oe1Rs6JCkd3cAcUCk/+A31xnVAUGrqmREVWp7KUROAkgdz0cmKqfHr0cz+NZjQUBA9aYhhkGGgl47DHfUzeuOwbIoUGiYYIEa/P+nZvz89tf/6/NwO0S6s1+yfl0P7H6+v7P/450v7x6sre3k9ZIeDxgh+bXhL3mhjsf9/s20TzdZU/qng9KG/vpi2VbwxHxdQnPALJXXYjQtAQYkrrspYtIaUWw6fMSQQNW5YCWFGuluvkIwCCTJBbbVEZNb+ZUoxG1Xr1TWMUHEbHxAjU2iJV1vuMtZ8tA4XTeXgF6JRGt/4N7HDId6HhB36EOWuWbTjpm6mvz8/s39/cWHPnj+z82+eW+/Zt9YOQMNRBTf+dGDr6cBW474lw76NB327vryyVy/f2I+v3toPr99y82R/gtHDbI0qh042WwJ6jOjsyjm2qbw2oAKM/tOx9sVfv5v506nEV8loaklTUzFySPuetG6Sog7pMi4Jvg++bki/AeyTXpsjpjRAoEqtJEacnQao1DB5Bv26pr94K9wgo7hOFoYUC01iwWvs7SSxn4dT+wlCk8GYnxGvc7nMzIK7quFEw26ADl0c3iftuv31+MC+Pz2w744PqWADO47tHS8nc/vff3ht//3nt/aPV5dc44MWZnyG7wvor1bLnbHcLnnymyctqnO4Ru9ZPlcxBinBBm42pEUAHsYFocnGnceJIeq8Rexwu6ETSPjg4fGlCaOCFVDouZcWPvwErSuyx2pHCbEazIg+JtNFjgeih+vDEGGjQRMGiS/w9IjOOFjO2k37/uzQ/vbs1P72/KmdX5xzO2T34rm1Tp5YtacIXUDEnU9sOx/bejqy5WRos9HQBtfX9vbyyv718o398PK1ve5jWGNqyQolgcYoUStz9/JKK2aQIaid5VNVrGOh6ZYpnya15CPO2jqNllLTcW4a2ZBHG4Aa6S8nuNKBCDDSOhxiGRQuCepqrBYCGYm90odoGXbV4gIrXa24D5jLLv1k9IPT9fg+CoPnWvFAht3vikaCL0dzAhpfaG2B48AvvC+1GCEh3bAuR7kGchRZ0lmrYYfoo3v2hgwOnY91qWT/MUrsf1wO7f9+eWlX4wkNDR8B/Z65RXbIK2WMGi8FNHIZHzbQ6KP6xuwd+9QQVy25g0WQVDHggdUmmnvWjQBWO9hgbI1MfbQgxPe0EwBe+egco4WnW1RO+fsK/35ptDHFoxiNlFxe97BJcgKoYFpTWy7ak07Lvj87sr8+O7O/Pj+3J0/O7PTsiXXOn1rj+MyqvQPJL3EwJHOte51PbD0dWzId23g4sH6/bz+9emP/IqDhMzZlNgFAY1gDdf0YIhi0YahR9mV8HDNVaotICYIohDAQMkOzHX1pymO5qVLquVC60b4YBwFkqWD54YLiu6ZiyRsPQifM8PEhU4KA5LTXtSdHXTs97JLdhiEEKnV5kWuBexgMqHsQAzZSr+H6btaY9d6QCMTWylfjxF4OJvbTYGxj9LrpUaZuBMBMFd92Z7VygQaSPXQ8YIaB98WRqo1VzaxVKtjFUY+rgq93RfuP0dz+z1dX9qqPcdXJLwN6z7NEN8hXHKE9+MkEOV3vknb+Y2KqYG68p/SYziNMaUWqhLBexgZKP92fjt5bHNiABNAlXGRrSXiLdNPcVS7VdzpXH0woqpQNxNJ4PC/031CApYQbBhY42ifCTSOTxdSN9KTdsu/Ojuz7Z0/sr9885ZrXk5Mn1jo9s/rhkZXbXZnz48WvEtvC6haAnk9tNZ/QMBArXt9cXtqr11dcTIfF76iRaWiw2RLMwwQbOnRrYdIJX2BzyWa7tptOo3I2kBe3zwxrkEFtO05omdjpcDXFdYcnGBRcLDvwEDxVNYbIyTUnEAFyZCmdRtN6HawXaliXLi5qN6KVhHYUWGjqudlyDDIuo6MkNfCe9BqWUWsC+vVozumrtzDwh9gGrqIg3qCyw+Hqmnw42rTLZTuA5xxUcThKIBBarg0at2bJ7IJy1JYl1Zr9NF/Zf38ztJ8H6CiMHwH9ngE6m2NhWitAx3RVcAhkjosF+lFhWinYbeqDo1fN/VaacWZP0+vIxQoDG5h3hoxTYnytTYEYIQAqAYYsasV605AeU1o0cIeDpI9ouq0OBz3Yy8X3m20pFcTooBatgVXG68D3NCtFknKNctGO2k32n/98cW7fP7+w07MzOzo5tcbxqdUQnRtNTTiBXV0m/NrMZ7ZJZrZazAwbIfEFKejV1YCDEJCBwrca5JwM9uC/tUiN9GlYSOdR9WljGTprZEZqzQprYinseYIQg6wSLquwS1anAO8Li/cQpXkI+yRXcAqxiQInLiWV3Fddt0aj5QcgHgcHuAAHq2QucId2HYvyaF8s3zNXZ6aTUWgzIgubLjY2SFZcFA8TwQHsiiYzfsH3G71kTmKBeUftDD4F6baTpHgfGPwAY47ypmJbO++02OnYNRr2erm1//dqbD8NhlSm3ZdyZ23V/Tv+q4/QYkKCC8uxgW4IiH7lYaNmB/Va6m29RWNFQzSpM4Y2TkpkgtbUOIE6CrWz29a6ywgjK8wEfTIqHDsw8khDPzee55ghdN6QY7rUVG6jyhJkhq953iXmdwlorXDBDYWoA001SCIMgRy2GxzKeHF+bn+6uLCjszM7PD21+tGpVTpdK9ZqJJcKWMCezGyzQNo95z6ptd/08LnGBg2Y1sMAANNIaNsAzDDaQ3SaAdDQs2+33hWQUaFqem2ZIH9Qw2SXgB0HKSSSQV3IjktrdVQ7K6IuoFJbYNVtlDDQiGsZD4YvsHr3oNeltRJMEGMpXijwtlv0riH4gApsYQtINKfYiTXlwYiZ6yCgSESSz1BrEpF3DmPHJdpyaxtRNLPl4XY1mtj1YMiF8+w7244tMewxQ718ggzB7Y/QAkPbbz5f0bDwpFW3bqNmpUbDLtdb+/+GM/tpMHoE9PtG5/T7Ar+3qH8RTdAjA3wnzRpBHatXcDNpIijbT8SVp9R0b7gQbbxAdMZNiMVqYljl1Cn7XVru+HgfBwcc0LD9rWNZHbymabeLMT9FcniSRX2MLZGQhCaQRTLVEzHDtHu9ou4ZBw6yCgyBHHWadnrQtW/Oz+3biws7ODuz7smp1Q5Prdzu0Ju7gLQTIE6mtk2mBDO/sLkSAgkuWU/YW8XNjX46wIzDhEKK6ZztGnh1wSIXz68tj6iHVUIg62Gkdq9t1M5Mu50vUCniRB8zHnl5ywgCLiPiJRSJFOGliS9SznmEr8OudTttbuqkVxrthqF/R42NTRYSeyAyoz9NQE9nAjTnnF3cgpakD2qwTYg03Yq2sKLNdyWbrc2mmx0tji8HI5KGo8mE46dYMdwoYsqtxqEcTLkhS4KgBm2tN9ewR57aaDyjVgF68EKtbpfrjf3P4Yy9bnQSHiP0+6Cap7/fODqP6caZ/4WogC0XmO45bdXtuImKR+k5yA6uhqXGW9NC7FWuAOQVB+AnrjtGbQeSB7XkWatuRy0wr3UBGow4fKXJoIMdL9M1BN5fECpIQaWVsTQLoOuF3CQhA42ICN0yojNSQkpFMe0DFRWFGUXrtWp0vQSgn58/sRfPLqx7+sRax6dW7R1bqdWWPzH2Es+ntpmPWT9vEgB6TlkkhxbC7me90sYMKMKSJUE8gCH/cGL94ZhbNsa4sdGm4+pWkYDqVasvzTLDHUxiWRuzHN/iiO9Smotes6Sjkr5jnxYM+NV1gCMMtPGo009hYHDY5dBJtw3zQ7cpLpfTrRWbNUg1fK1shb3Z8OnGehy0mDgUI9eGiM4xNQWrKPATVq7ZrlqzbbVpi13J5huzKyy6xzTam7d0SV0v5lYt7KxdKdpJp2Vnva49Oz3hLDo0B+PJzH56dWkv30h9B9IS72VbrdnlamP/MYRLysSuJ9O9ezLfh76dcvuwb8gnfFTzfeBw1/d8WX3odwDaW6aczoHe+IgRuuqSQKXQnIeuSJmFG1KA3tgMAhCmoD5s4d+LNgznoRsVO6i7QT7X5lTZ4qIZvEczWPDg71VfS7yC6AJYh8YXvU45hq6Y7iKChIhElrdYBKfxTOyfPuy0GcEuzs/t2bMLa5+csX4udw6sWG8J0MuELavNdGSb2djWM9XQ6+WcERpkFAdB3JYWgEPLBqDGYvXhaErL38urPmttjB3isEHWoMETZTHRVVDEFsnIjoI/Lm4wLh6I1TmQZfJalGiKAJcTRGCSXdje2etZr3dg3U7LOu2Gs+nhoqJZ9tiuSUNAjKgCoDgEYV8EH3L2jDUUwed3o0MISniNA9CVuhWxrL5zYLtyzTaFil1h0yW8116/ssH1lS1mE6sVjErBi+Nje/bkxJ4/fWonR4fWqJVthFHMH3+2H356ZT+9essMAyqzRbFsL2cL+8fVkICGKWP+1yOgf+l4uimeCa1GasFa5LwsxAcH+L0KU3lNQ7HXDNOCujZnYPiBThNgfMNZBCtQYjGbt8W0wqVIkQFaKnLilEkeU1Fnd7FMDoy6nEAQpVAXy4AQURi+3ojIMOinlS5el0940aoXfl1w/qR4AhY/deu2WnYEG57zc3v6/Jk1j8+sfnRiRbDb1YbmQwHo2dhWk6FtJkNbT53lXswc0Bu5sGBrpftogeBh+r3d2mQyZ3R+e3ltV1fX1h+NbTSGlzcGFWA64BNFri6LejlaQzpnM9mM0k0dmDLXh/NIh2k1JsVOj4/s9OTYjk9PRPA1GlarldEHtB2NF1f6Qs280hejPYBLhnutLSEO6tQXnRp6KQABZijEcGgiQheqdau0u9Y8OrFSvWWFSoMra2HV9OrlTxxmmY9H1igV6DD67dOn9i1088+f2fHREUu4UX9gP/+vH+2f/+tH++FfL5mVbKxko+3O/jWa2f/z+pr1Mya8HgH9ITnGzRraa2kwzNjFjNoT7iJoN9SKmOuVMyeAh1S808DaGQGSAxvpJke3mKGlrUbj4DkGt0yw3nA1ibWzlCCileIiELRUwq5GIjb4d0viqHWtmNIKCyK1dUCgAbgdfMGZw832uVWD6qWCNeoNguDs4qk9/eYbqx8/sdrhiRWbHStU6hovY4Qe22rUt/Xomj3o1XRKlhsRGv1y1KPlWi0FNEgkzvNWKkzz59je2EfPemCD4ciGQ2yunDItn85njNgg07QoPiK2WkPxK4CNFBykJIAMthweZLASOux27ABfvY4dHvbs4OjQDo6OuA0EUko6maR2Qktbg7FPQPAtHNAawUTGQUC70SDTcJQJ+Nxo9yTVFwGNuWz01rH6ttWx1tGxlZsdK9VaNhrB2WVgL3/60fr/P3tv+uTWeaV5HuzAxb7kTlKWy+Uqd3T1zERUT8TE/P+furvGdrks2xTJZO4L9n3HxO8570UmZcktW7ZMqZgRCEpkJhK4uOc927M8PthsOLByLq0h5Ocvz+yzVy/t4OjYatWaFFpmHHq3N3Z5cWXXVze6fvON2eN8ZW+7Q/vNzaMCGvWVTwH95wT0h5drj4uVQwN+zgUn0aOxkQwCBBSCZE+Cmckx1jPatSp43JdZu1xu1gB0mK5WNoSfO5qJ0MCKSYQKmFkCq7gWmILZ2/uQtBwfBoBCmG6QVWEv6taxBDLZN5LwHyAKpHVAHqHyqZ+GwLBaWy6bV8l3eHZqx69eWb51bNnaoSUKZBkCdGu7kKHX/Y6tBx1bk62nBDR99MqVNNEdI6B99OD8b4Ze+YJ7RG+2NgFoAeNIE3FAKUMbwE2mt8aWdjJVVmTm4GIOfkDFdNb9EJBg1ueAfFDBysWi1auIM1TEfQaMwTRbHtulogz6UF2hv3ZFp51znBdzW81ntmalJNcSD2jNBCSyH0QkgnTRNuAGPKBRGOUgDvK96axloqJF9YZlixXLRGX5Zvf7fbu+vLDHu1ubDPoafp40qvbTl2f2k5cvrNFsqTXAhmi9mNu437P72zt7uLvXHh9m2vvB1P7w0LVfX91bezAS/PNPFpkfDHPDjGIPXf7z8dsfzJAyyfTXzYr/4vD6/n+QvaEHEwMKQP0lxOwKOafQqXTbKOgACwAlRKMLBRJKK9EBg043R7zKOQ1gMHLzPTF+T4jsdSfunUyJp349LvODi+FedM91YsNa3JUv3Ac6IZBErVSyVq2sYYuL30WqGCACwO4hI7JGYgpNT37YbNrh2Zkdvnxl+cNTyzbigM5qb7pbTG03Gdq61zYF9Wxi6/lEtqzO6yVDp5Sl9RVQVPK4prfM5vTY7ighE5LbZeA0CdBR4KMooGBPO2GyHKbhrpvmHG8OCac6IhnkDpoEbbVSUt9cqdWsjLZ2sWT5Aqgv7GiDzlswhHc5oKBRxgqPIRiTeqHMWFvRK8cB7aaB0uMOZvCbpYOBaHG0jlPm9gppx7wjH1muUrd8pWqFUlU+WYNB387fvbPbmxvrdbvaPx/XSvb5yZH95PTQmvW6VWuOCGPtSMk/xKa3O5DB3/1gYl/c9+y3N4/2H1d34l4zI/kU0H/xSRCCC9BGBo5rXqsE+lHpUrHO2G1VeiNc0KhEdsSKpFR0NwYCWn0vLCluErTAYu1oejD63rWgg8jgShuMcjXcxAJRhOCOgWOuZ+0MI3dd9J4bQkGjWhb9rsE6pELWilQp0NtTHbDe6Y8xaZ8pWLBdPWbSevbCDl6+stzhmWUU0JEw3Oo751Pbjfu26rVtNWjbRgFNdl4KWaXdO/jzGH8aJu7QE1PpvPaoZOoEPXkmr7kCAbTAeH3Yt3G/byMM8AYDm4zHCgQGUlwrHrFoA0NBd/DERbNgxWJBGRiZpEiywyXL511HXAAVrh2vbbu03WZlyWcsOiG2yK7LpQ5lJu9yKQmGgeCtvdR2fW8qBymLSpBxG3b7yyDtBKE7bUkEFcs1K1SqFpVrOrQI6Ddv3tjl5ZXdP3ZU1dUKWXvRrNnLVk3l9wEKMY2anEtQTwE/QIuC7/Z1b2i/vLy3f7+8t99e38l2iIP4U0B/p4D2dQrrIgAdBE8BJQoNorb6kAqppCbVrWqkD4ndIlYrBVZOnLyyivVgZt/IpFflWphCx/BEKXiugtyQ0GpPlL04+cWDMrl0qKenvC6IYOBDobqVkeKNipqealpqu2CXOrfuwAOaLzi7J4eHCujWy88se3hm6cahJfMFrYGM+cB8YrtRz5b95wE9V4aL5Y44eGKssyteQhtk1xsCmgMiqliqUDJLZoLwHSqiU1tNwYVPbD6eKKBnk7HQZ3CU5WARnDHkg830P59TpaRhVyGybFS0NOu8XF7rqmTIxLQ4YNC3C3bAU9uuF648EpRO6P2xuqG8d1H9+E8f0vneHuleAtqF/KkaNPtgKMZhIBYW1DsPaLYDcUAvZjMbDvv2+vUbe/v+0i7vHvRcAEsOizk7KRfsrFmxFwcNe3l0YK1mw2q1qnp9Zqyd4UTCCf/j7ZX9+uJOAY3qCdiCbxvQTwix+O75UZbc8ej6GawzxnXuG4T4P8jQO5cYkgWp+zrTL7MSojeElBGlkmLxHFQj6VhJnIATN0y7JQW7N55jXcPzOl6b3yS1jTU3jsvEusaWv844QwmKGmR95Mao15OzKiioStmqlbJVypF2rWQq7GNQ3ZBwIDBQrGBHEz/l5wsBVBggnRwfW+v0hTXPXlnm4HQf0IBKjJZiOrTtsOMB3W/beuq7aCbFjnf3lmQXSLhaOyGnS4bOZC2ViywVFRXQyULFkpmc7aSMuvFp84qy10tf9r8AO1AYjbW84pWWhAIDDFamBmwBsnlL5nDJxAwgIwy3KKICzq8swfMLDDPRHpjn5HeqX2ZtJgiul/VPIBO3wHHpZLfWIZhZZ0nqaI/AW8qIb71NqOROR0XLV+uWL9csX6rIyXI0HNiXr9/Ym/MLe3d9q+EfFVcL+eQoa6e1knrqFwfIJDUV1OifoQoLDfWyM7D/8eWV/er9jf3HPkN7yf3EtfswvL/OH/q7SPf+AHroZwEdsMIx2dtj6DmvmJJ3FzSjPaBjumQc0Jy4TLylYVUp2lG9sl8NiU1E+ccALTgmuFk5pTjZ050ntXbCoI6yGwkfuM5hwivzk0DWj/t5kfozaWVY1jW1Ws0qlXJAkqHcAT45oUGLUFzTmQ3xcx6MJJnD4Il9bavVsNPTE2ucvLD6yUvLtE4sXT+0ZKGgHfSODDnp22bYsXX/UQHNQGwzmwli+pzA4lr4XnoLm85rYDBGQJOhC1VLFsrKZAS1+lm1Fqz9gqA9PTvrK0Aq4M+3wdsLGaBAWtFvUVkPqD5tlkZmOO3gEwmLEMxrHOo1od8CWZ1DJpnaGrbYEnQbqDBfYcWKrPrUg8JmrPApddHgmoGQv9ZVmj8A2lk6CYXpN5riUUlT7nypZrliWR7T49HQ3n751r58996+vLwWao7fAymjycS7HLmMcqNmxwdNOzpo6WCmlcAA8KY3sv/55aX98vzafnN1L/okFZ4PSJ2mu/8K/xkDZeOD1q/Xjz5Dh/lNkOZxWF8cy7GaRnArxKo1OEsS0AxcyI6xfC4ldz6dEHn+gICuVTQFdyVP9sqgvpCmzViBUlG621kNqCRpG2ODlQ1cOF9OEcE2h1cai7drMBZECuidGRBVGQbhRRVFlkL8n7kyzwkkE0E8lbIT6wLuQHIXiaDN1o5aTTs+OrTT01Orn5xZ5eSFZRrHlq61LJH3HTSQz+24Zxsy84CSu6PJsDDdBFxgY7tFDQeXI9Zk4yMKZEornRSDsRzBXLJ0sWzJfKS/jxUKVLrDSON9K7KcyOBOEvz9h0SZvc8xaDMOjnBNVMJom7A2Wy9hPPh74DUHltgaUEzAoiMESHUUiGD6WYF1ZHnrO2nWkjI0YP4xR7wfrywPaHjf8rTicC6WrNQ4sHyJoVhJVcBsOrXzt2/tDQF9fim1UaCqoMWqIMYQXCgV7KBSlr8Wn0kLN8x61abLrT0MJ/Zvby7tl++RIrqzNhuB6aeA/saWQwZxwSDc76mYVQNQJJiQE9DsnMmIOXdBBAgg8sESFC+SuAR0zg4qkR1WyyGgczJbRxgQl0etkspYvbA7ze2VPIVC8l/rLgmU1UIJpdXHukk8ZIQUgGe/eQNghP1lVIi0Z81mc7bbAppYCme9mk9tOnJ642g4UjA/dAfyceZXvjw+srOTEzs9O7Xa8ZkVj88sUz+0dK1pliv4TU4wjLq26T/6ymrU81VPUMN0rQX366J3VUDr0HGbVwn88R5SGUvmipYqFC1dJFMXhVF2JYb4xOJtpkOQczHijy2oAsZJRn8dOMnBMN2fI+DIRNBA6JugRr94bjuw56DdGOhNx7bSYA/CRFBlffbcOybgCmjKbP93glvmBrOlTal4JB+83OvBrTico6KVmwdWrDasXK3qXmIOcPHunb17995ev72w7nCswWc+ZVYkCeQzVo/ymrlgyXPcatrRYctaraattgnrjKf2/727tl++v7Zfv7+VGCO0zDhDe1IOqfkr66r/RBn6Kb5VHgYzcO4H5y278gUXygX2mHC7kbscGhiKAQQIE2rA0eC3caFolQt2WGXvm5OJuFZcQTQekAcqGVGEq6L3fExjuf9UQnLT6+Z3TLKEBWTtQjmZU7YjoIWBVmbyXhUEGZRAHjv1o1NpaCNAMBsNbDwc2hDOcge3i75PSRNJ++zkyF6enNjJ6alVjs8sOjqzFKSMSsMsl/fDbTbxgB48KpjXo4EAGRwayNv6MN6dL8Sb3hNTYvhmyNJk0WzBkpTfytBFoatkxRh/qSx88g7b/33saBBLLAXOtJPOw/pO2XzNKmHverIvuTZL261WZvOpbcGkT4e2mo4V2AzJ1EMHAUXes8ptrai8bybowXkzjELlE7F+BmIOs11JI226NbUVBHTj8EgiEbzc1WJuV+/e2jkZ+u2F7HeR/k0ldpZL7qySS2vqXSs6UeO01VLVdHR0YLtESgbzv3x3bb96f2W/Or8WsGQwfgpov0ZEcpgb7MP7qxjuH3XJ/XQHcU/ESiNqvQI7yvGxyMS4AgjTZJXMKrddvG/KBxk0lrNI4hLQJQ/oKtm4kHOEFgCTXNaRWsWChh6FQlbrlzTOCvJrgoDB/7O3pU/PKeDFByZY0wR02jO0srQHtDOSfLhGkMNXZke8HA1sNh4ooEeANwZDe+x6hiZDMLX/7ORYGO7D42MrH51a4fiFyu1UuQEDxT2KCQICevgo1c818M8Q0B48LkYIxFQBFsQdYnKKym4Fe9qSuYJKbQIaeCQ76mA067eh+kIPUj8oAn81lNV7Pqu+hcPNJZADhEusMO3Nn/eVvKDNyh8Lym9XXFlNxrZRQDMkg3bppb1kixTQUCafAnq5Qh2UDYW7b4Af4GBk1SjSDVJDuYKVGy07evHCXr76TO0U1+rizWs7f/POvnx3IQ1zRBShpIJdqGRTEjFslPJ23KjZi8MDfSbHx4dqPxCG+DUBfX5JkGUZAAAgAElEQVRl//buyk0NxtMwT3CZhQ+/Ym21//QBHVd+QYQvzMVAbKEACcIHMQOC2rm6KX2IcUAj+ofxWzMENJpVBPgHAS1PYqRdXa0jj6h7Pqv1DsGcZ+2RK/iDdU8m6x+XcNJZz9AEuB5PQRRwHN46Lp3muBz2bD7sy+kCCCKgDah8nf5ICCwqgFeHh3YE//nw0EpHZ1Y4eWlpWFalmlkmEwI69NBDeuiOrcd9FzqgPxX22uV2VdM86SrGjgTeKsQVRBRpEowKSpryO+3+Uz6E9Pra24un9kPHBQeacOJhK8HlpzRnTx6X2tu1RBj2Ek3PSmgPaMrvlVBvwD3Xs6ltmdYvZ7pme7N1gCVMvwlo+Yn5WktyvwSyVo7uhT2eu3DDcLa04Xxpu0zOivWGvfjJT+1nP/+52+msl/b2d7+1t6+/VEDfdQbWncz22wHkh2QYWC7YSauhqok2CGw9VUN/NrPfvL2yX767sv/19tJuEZEYT54F9LOSO2TruA3SJfiAZfX8onzlHPiW//vxs61AEQV4JfeWBlTBQXG3RQQ9acVcSswqSmf6aIJqnUjYDPWRgGZiCFXBUoUPplb0PTRIpugpQ5fI2CFDS7GjyB6V3WlWmTmTiyydjyzDDpiVUzqjzKfBEjdvjAlX3xioSPo8gXKCNd7se8TZsGuTXte6Dy6Gj2WNUyd32uVS/p8eHlirdWCVZssKiOofnFiq0rSkAhplK3rouabcrK02w55tFNC4SQBTDaQUSQz77tZXZKFElTn63LW0EPbP5y0XRRZVq1Ys45tVcbta3quqjYDkCitEHy24Bpl24lQA+wONYRvVTVAOjYUTP5Cp9QQm8AsP1mxkYw4kZeuZAlrcbrHGmD34BJwVWuxpxfvi2s3xxiKgMb0fz6wnP6+FBAJnGL1ncxZV63by4qV99vnnVioUpB5zd/7Wrs/f2fk5Ad2zzmiqa0V1U87SQ+fssFqSZvjLk2M7PjqWcgxsut50Yv/x9tJ++ebC/uebC7tq9wT/jHnf+5L7G/CYcUD/JZK9XxfjP4CADkKA4dW7HCwBosWqRTkAIympMlaBE6ZStoZ3nEjacpNwJwpuju3WyihQlAt2Wi9bqxxZE8M0sMYFR5cRRKVSIfTQBSsUcTr0gE5lC5bKEtAFPRLwnSkpQ7+sFVIQ1k5IwSM81Cew1lrYbr2wFcQJJqGDjvUf2wL636Kb3eupxMcylZ01SLLDg5bV8a+q1S1Xa1mmfmCJcsMSxaolRLSAabWw3XRoNurZZtS37WRo29VcyCsRGdW7bhUMoK4ICNRSJiOfqj+0ezYSnHOhmQAC8mCX6xAnmq09XDMjU/msMq+ydECdKU5pK/B8QnRNGtnerycRVQzT9TjY9b0xYi3ePupkQIAvlN5UF/TUiBqQsYXpntpqRnUz09/R+6q/JkOLAusGgbwPsNTt4cQe9k4ha1vD/soVLF+uqoU5OT2TvQ7zltH9jbVvruzm8tIeOj39LIccVQFJAudRNiOnBy2V2wRzvdXUZL0zGtpv317YL798b//rywt7/9iVsqoGj199n98yy36Xb/tBBHQY63jBEkToJZG7S1i5kLZqlLHDggvkq6xNpWyTzirgiK0hMMrlUrtoSu7TesValUgk9qacJYvOeioWJYVTwN1QDCCyck79JeUnQU0WS+XcbWF/k2oYFjI0NyyHTVxeEcxQANcL2y1nNhv0bNLr2MPdnV1d39jv3l6qzBsvFnbWakgIMA7oZrNllUbDCpWaBPXT1bolSnVLRBUnZiAdShAsZmazkRhXyPiStXebhferVAZMgREFmM20DiIYpqCkxhPriR00k3IJmtSg5bjGwDiLyOhWoTzWFdilctkyQR4IpFksEkgm9pYj/jsGhf7wDMQUnPkCA0XmET483NebsrYkOzM0W+2HZwQ5WZjXD5SVMlwYdd4DgvbqoQG6OEkDQAkSS7CdCMpHApqsvdwIKKOALlXE8IJ0AT6bsnvW79qk27F++1GEDUp2SnklgQJWwvhTV+yg0bCDw5ZVm00r1epyRHns9eyLtxf2KwL6zaVdhID2DUK4D+KD67tE6rf82Y8+oB3d9HRFNOQJU2eWMNUoa7UoaweFjGG/Ku1ngAy5gmWg5KWT1ukNBd7IJU27aGxZAZi0tJMuS9i9UnISAZ7LuUDnQwZH6KYE6ylQVexqfSjGzeojY25OBmBZL7klDxmv1nbGioXBizLLfGKDTtt6D/f2/uLK3ry/sv94f6PSEBeHf351av/XP/4kIMuqVgs3Tq5UsUypZsly1RLFiiUKJQV0IgmWm8y2NFvPzYCALiYe4OsQ0EyIgUfOZgKcxAGNwwOSRAyQCAL+jFVLBv2hsjidN4ywFgdgsyEL21KlIky2SvEgE4SuGUyuBJXMs1WeDwO5FuieM1/gOpG501qVKai5YPTPtAgK6PDgZwI6TIFN2T2f2QpUGRmazAxpA7APck7QO8nOk7l2yZAkCGiGVky5mUhzIOf4nKs1q9cbFkWg9dJeNY1HthyPbBUw6vToAGegttaKRdE/m426NVoNK1Rrli2VpXJy99i2L95d2L+/vbR/e3tll+2ePfSGYSXoAb3HQX3LoPwu3/bxB/ReCTA2I3NJG7dXSQZVkpw1C7CVKLG3CjqQQIWoIMzy7cOjUFggxthFn9TK2kUfVUp21KzaYQOubtUqlZIVS9ys7IwDgYC1VILMk7GEbsSsekNlbWUaL70JaD+Rd3uCfvzfZJbFeGKz8dDub2/t5vrGXp9f2ZdXd3be7ivTvWg17Befndq//PSlDNFLxaJVW9jF1ixTLIvDm4xKHsz5yJIY1FEVaGhFD7py5NVq7gG9DAEtOaGVMpx2u5LTXUqjS5Y90sgGx76WFFGnP7Tb2wd7eGhbt9tRdsymE9LGPmrW7fjgwJocNJWKqhiJ+eVyqlr4bwFUWOfFQg/q493HSpUW/bZWZFnff0sbOeylA9iEioZDCCKGriiHuHb39M4zZW0JHQiK6k4Xcw4mtNGmMw/o4dTaOG6GHnpJTkhnNSOg8jk8OlJVRslNMG9nU10z8AEScETGabm0KgFdLtlBo25NsNytpmiYsNMe223pnf/+4sp+8/7WfnVxa9ft/qeA/uMTaU8s9tMtlK8a8gRrGZhMKI6A5MEuBgAAu2agfjCHCuWKyAFMX69v76XIAWKMgKbkPiagq2U7hlHTrCqgy5WSRcXIubkErW4+7wlj0AiTWwFKgieSZx0CPr1HUKF/pVULg6jF0paTsU3gFvd7dnF1Y+eX1/b2+sFuun2bbkzazv9wcmSfH7fss6OmVmhkD8rtqEQwlyyTd9BHIlcQSkwZmkFcUNeU1U6AYiqo6UE1aPKSWyqgi6lt6aOD4IOQbmC2DQO5nbjQfQzS7x7t5u7Bbm7vrN/r2Xg0soj1TZSXxhbwR3rsYhGPJzI124C8ZQtURQWRMJSFtbKjB4LCycqKTE0hE7YCXEsBVYIUKweTsOOO5+bhuOfdXlxfzCtePwG9WLrQwXwubTGE82mvWBt1Rx7QXTI2cF2E2lIZy+UjOzg6tLOzM1UfzE42U6qauaV5XnAC0DGFVFvJ9qZKhiaYGzUr1+vijwMrvn9s2819297dPdjvrh/s3/lMCej+MKwpAyjnGwZi3yUTf9PPfqQZ+sl8zgM63rc8BTRgklwKZwmH5tWzCMK7CTdDq0KlYrnASOIUJaAhQiD2d9aoKksfYzjeQqCuqr4Vwn2B1Y0AJelnAR33ezLM8j4wTLk1+dV+N+F4bhHxHYPM8GYBagkhvl7P2o8d4YVfX9zY3WBk0/VWXOcXh037/LCpXg3vLGiWYMBL1arlxVRC2jayTK5oSalM5rS2UkArE/pUXYMYLYgDAisO6C3DI0enqeemZxH8k+m079kZNqCqCdtsgHJlu2s3t/f2/vLazs/f2xTxwMVSxJajRs2OWnWrlktetlIR5fOWLxYtKpX0Zzrva7x4k+WgEmxnHKHmAJ0AwAl2tApcsnlM0KCV2HdbLvrgmmFwolc6LBV88qTyYRigDowEKLn1mMytN13YjD49mVJAH50c22cY/tFiFfJCqqVWC8tQEdCzS4zQFUYRvyhGkdWbTSsyRCtGNsalsj+wh2DVe9Mf2ZvHnn1x27GbzlNAI/T4fX99vAH9lJefBXRYWQUoJxJAx0A5Sz7hJqA5iQnofNkDmrKOgAa4AX2/WczbCwV0RRkat0P0rnRaU4KpjMSVEK4wwzAE8+N1jQyfnuCS8rNxjysR70M21G50FTIHboZIxWK8/ti1t7cPdn7/aCtL6PD4p5+8tNNmzaqs3OSbhSZaTgEdMbTR7jsfAppJO/OBnK+EtCoL9jwKaA9sYJ18odYi8kQ4YAhqBTOuk1LqTIfVEhosTt7ndUMUQYbo4eHRzs8v7fWXb+z2/lFyPXhmQwWlZWkgFIHqCKsughl+OQy2iCztMrwQZUDL+e/1sltOG1RAolGGSXg8RGSQF0pqSut9x8W/+6X2gIb7DPNLYgsfBjSaXm0ydAhonCYJaCqpfKFoxydH9urVS6uVy1bM5QRkSaL4uVlaPpUQHNiNE2gJOMPTkoJiRoKMVLfbk7ggFQFEmofx3M67A/sdVjjdgbS+XS76U0D/0YH2VHH7Ua0dNAGdTkqB5LRatKNSQaZiBDSid8rQDJL4ENIZlY+DwUABjXD6q2bVjqsMxkrWrJYE90RkAB4v2QZJnCzuhhqKBaZQUNLQnjX4Ogl9RdYAuaQTnTJxLYohQIc5mtesh7p9u+/2VY5ddvtyPqxJmvfA/vUX/6hp+3IyDX7JO908BDTAFmlU09NryOd61TwYzAmZxpY+7LxFwCDzqqcPxujqS73nFPsqIJdkwUpZHFZRmtiDLFNlsZLmNf7S788v7A9v3tgfzq/s/fWdBAVA7jUjCAslO6pWnBZaLVsRv+VCznL5rGYQDM10TbMuThh/Magkg+uw3PfaobSWDrfvy6l0glWZ7/WD9616/2UwK0D5E8GB+dwzNEE2ndnjaGZtSm9KcIZm662qkahYsqPjI3v5kpK7pOBdDPtSTc1tFhqaHjZrVkLVpFgWaIW9PYNOWpLucCDZ34fHrhv9bXbWmS3tojey39+37aE/Ug//KaC/oTb5uoBmFw06rJhL2yn0tlJeAQ3DakeGK5atVG1oVQEf9pJecDCwtO1Unr9kEFYu2oFUSxDpg6SR9UDmT+Cj0DBD8EhXW+UhaS+UuGHnTBkoRpDADo4rhpZHCTjBZmU4tvvHnjDaN72BDRaAHLb2T//wyn726sx+ctSS+Vm/2xOLiLKZjMcjH3HA5HTjswvX62H4RPbT0M57dwVxIFqopxa+nKzLvMnLb2dLsR5wtJeCSQENZNVLd6251G8vbTocWufh3i7eX9ibt+/s/ObOru7aUrRk54tYYkxHbVVKUmJhIhwV8pZH7lgEmWwIbjJesNHhveBAoh47HEDBL8xLbod2UvGohdEwzamIGjomvbVxNRO3wnFJ4rlAMoPwoHfuTGYqtwGWcB/wPqnA2CO/eHFqZQQmMmlbDLqWWEytmDRr1UqiSVId4eBBy8TBPJ+gjDqyzmBgA+yEJjMJJ2DOcNkf2/tOX2U35T7w008B/S0D2rHJO4n7oe55Vi7YUTFvxWxK5AykaqNKxSq1poYX2NtcPAto9tAvGxVrlSJlGWxO0PDm+QhkSm2w4BLLz+WCXA6lt7svxj1zTAd0S1QvVSm1CWgGNCieIMzO1Pjmvms33YHdDsYIn6ks/e//xz/bLz5/JU/kBWbk9w+6SQHGMOEuImgXMW334RzBS+nHHpyAps/X4A7CiIZ33go8BXSoT9VHP9EoPYOjL0ZAZ533DGyTgNZKcGNbAmQwkMLl1eWlemgM42/Zsfbxl55qKo6kMQNJKKkENRNhghqmGsIOwHB1SHI9qaDI2qp80BPzclatQTiQlKMRJIAHLZioY7dVdgMo4PvdsU6Br+yJGCAuGqDeZnNxlKUBN1tYdzqXiB97aLy8eN9AeFsHLTs+OZbABQG9GvUtvZpbFbcVNiCtpg4iPnNkirDbGQ/HakNgY4lnvXIHkt5sYa/vu/au3bcLdMZmtABM5z+V3F8b0l/N0DEpg8ERAvhn5bwCOnbD2KKhHZWsjPRqLm/bZMpu7u+VoZPbjahwZ7WyNRDrKxDQWWdbSWGDzJFSUCNwEN94IKjiclalaii71QRoUOPlIXBBHpPpRMHcH46t3Rva1WNHAuwYpSFfe3Z0YP/6L/9k//DiWIOqfndodwT0xoUa0OJGnmgf0FL58IcsYlTOEhQ+vNMQL+voLPa9ymTc/AE77b2rZ0NNmHHjDGU7B6AytOYBHtA7MPDDgbXv7rRiu7q6ssdOT3OA227fHvtj60ymkh5CwqkeZWWKXmd4hCm7gDp50VAhyUhwQlUPU2ZvaVzh02GhHwR0gMn6lsu5z/7fMQc+OIcm3CSBoI5NAzygPUsPcdQkmNc7DR8Xa+dy07tXAcs0m1bFU6uQs/R6bhE792xaU23USiXZFBRjJRzJwRHIH45KW9vDaGxX3ZF9cfOo9eP9AOqlq62IxvKph/7jmP5qQMc9IFK91ULeXiEpVMpLkI/+WmurXMEiBh7lioL65uFe5AdQSJVcxo6AVxbyys7yrZKNjTO2yMzchGQVVChjV0mVh3KMIKCduSTKgggQLlkk4TrMxSd4H010mj/2B3bV6amXwyTtpy9O7L/89JX9l599ZietuqalOFbcP3T01pAlIiAqIaA5XPYlNbY6DGuoHvQnBw/yvNn9EIpBV1jeSrTeJXa5mT3IlTkQLtTO2Htx6J+qPBRDlLNrm41H1n1s28P9vd2GtV8PZ0UF9cBuekMbo9O92Qqhh8IHh2SjGGlYBqSWoI7loBTMcNXBi+eR7eUwckO757B3ZWlM8zxB6/mlWcbhpJrLFVTJnjKjw/GEHnpBhl7IHAD89gTz+s3OFomULXYJmy5cjopjATRgo1ZzkUaw+7ZWQEdJ0+YEbzQ3yQPPHRh+VA4SJoRjDy1zaeePXXvz0LHf3rRlIE/lEpvahybh+x5y20c65X66Dl8b0NDasLkpRvYPzbKdVVACSSqY8PvdYfIeFQXvQ3Hy6v5Ok0m0sZBpbVAaZjPKzLFCKP24Cx24OELsi4xwAkMcL2f91H0e0C6FA8kegTp0x9bKzgMmrAT0YGTXg6FUQ/E2/D9//lP77//153Z62NAg7uGxo+zX7gzE7WbCjf1NtRQFHLlLIHk0hps5mANQOahFKOR8B0y/LZURFyRgtcMgzDXPsNxxpQ/uUgeEoCeWDyu62PqVHnZt89nUBv2+dSErdLpa1aDXDdQRRhEQx0fe52wpPFg+mbBGhP1QwZoVn02gCIOZgcQSVYL7kKwACChkafmLhdcX3qVTMzeBKikXSddtY0ImMUh5SmX+OKApuxfOgUYZbEnVkSvYKpW2wWgmaSIQcsgLo+J5WG/IOyyytWXXK0su5payLZtJzTJi2inHiPgDG39QCQwmc/vi+t5+f/dgXz727XGIfC+w2UArDX3/9x3RP8CA9pIL6mOzFNnPD+v2k0ZZxmec2L3JVE6DlskJc1sole3y5laWJ7B48FyG3xohrYuOt3ykkP115RIFNX/HjUipKACJl9ke0K6cFeN0ySCI1KFhRR/HnwT0UBNWX5/cjya22O6U9f/1Fz+z/+df/kkZDLnf28e2TNP6g7H0wfGAakGOqJZkhUNG3luq4p4Z2Erqp5FOYgCFvnixpICmlNY2AAcJIJIMjgSRjMkZBPnO2wpldg/oeEVDhmbIJ/VTRPenMwnwa2o/n8l6lYn9VburXTrTZPcD24j8QgvTKFJ+Y2aAQ0m4ns8DOo/9rlcXXFs/cBxj4AERHDA07Q4ijIr2YJYXNN9i25tYJHAihRIos2tjLLVkQJgvyMsKKaI5ZfN8rsOkxDC10bAmu+Xt0tKQPaZjYRUkqZxwez6Qh2Rd+CMyEkgkJYDAZ4uG2O/vHtU7sxpDA1znzvcdxc9+3w82oJmwHpQj+8VJy352WBfBgpK4h9ws8q+WskKtbpkoEjqr3ekIA8yekUEUOt0gzfaWLWRrBbMHN/tWgppprczbmXLHGvWh7POtFRrQSwEaQFkNJm4fwxSU4QxT1sfp3HbJpPqz//sXP7P/97/+3DKwwlZru213rDccaojG7wZTjnZVs16TjQzTdTdqc8pj3HKkUz6Rz1Mylko6uOK1ltvJsD6bSrNsOhrbDOjpBOldkGIb93rWZB82mSuwuBgnZgPujiFTgR0ZlAADzLG0Pr11f2B3lN69oUTyutOFDZdMvhM6JCXbgze3TA/QbqMS8kEZutYcojwkRMG0O3aNlPKqyGmynsUtw8XanhUpsSk8LU8YmqmX3mxsjnzveiNhi/l2ZwsUT1Fh4ZHJyb1kPl8KPp7JpuxQAV2yzGpuCWCx46GldujPZWyTQC10qzKeg4DgRjCS18/gjYMaZNgf7tt21x/ZZMnO3PXWPgX0nzjR/rjkdg4EckJkaAL650cN6T2x70SpYrE1W9ET5iPbJNN2ce0BDZ45k9ip7JZxe9IE5CAzErjcZKxaJIqvwPaSHAC/LFChBe4nsr4Pp8wnMyugx2MbjCcK5j470dnS+vOl9eZrTaFRRvmXz07tv/3kVCtVgpTg4Ps5FMr5vDXKZTtBt6rVdK/kXM4N2JDbEQabAdzWUsmMAhLOdp6ALkbqrWkNAFyARZ5OxoJtoleGGB7rF3pASm8yDdmRqTqHFdUCsUOVg8IpKz8OCMQNS6WyzwlWSxsO8EceWHswEGb5Fh200dQeJ9i6+ooJDXTWiLh1VrAlUkBnFNRolEv3LcgtUwFJHTMgwNxPGi1tf0hhNNwEfO4p/MTkfOlGg7L00ebDjC07mtzjJQolLj20TrDKzFgmH/lAUcozHCSpfQ+d364stZjZejzSHp7tJK4baHvzJ69HQ1KuUypl932GYQBJunaOY+d4psMkqZ/8FNB/skD5UwHNAOYXJw37+VFT1EOADdigLJHHTWdsYZh7b+3i+lqm3nBqU7utym6tlJM77VMZhJAtpBYaAptemvWLVloEvLS++VB9OCaxQPynGJDM5sIPQ9tTUAtuOLf+fGVDbq7lVgdCNZ+zz1tV+/ygJk00RO4ozTndURJFLeWgVLazg6a4t/R5KIVS3tML09vKNXK18Yk3KzrKbeCXUUHXkYm7C+K7P5W8qUYjm04d78xrZjXEdY29n10gyX2dFUj0xFFkjWbDDo8O7PjwUBPz9Xph4wEKK0Prj0Ya+ClTD8Z2gwn6fK01IddWOui5tFWht+bx2XaL33K+IB23WD9d+2gqAKSSqULAaHNoaZbnO2der6yHKLU5jMP+Og5oeW/Th6WSGoqiVNLnkMW2l2y/S0rwH1BJicMPZBuHTTFSW1CyjaWBm8JGE5NrKeVOHuyvKV2oLrhKq+3G3rf79karKl9FYn3DdeWuehIs+PuE9g+s5NYMVKw7emiGYr84JqAbdoobRaGgEnELFzqKbLzaah95DnG93VaGpkeCdSUdbszhEcTXoCXup/NBO9uzNZNvz+AMd+irEZP3HS8T1hHi+MA7+ZPd83xhvQk+WHPrYyKPFSsukpm0NfM5DY4QncOZEoA/WUD64TvTkK5RKNgp0NRmTQoZwBPp+ci83Ngyi4PaJy+plLjbbvaWcReJ5Vym7TKcm3C4OL55CHlBiCmf9gqJqWyyczP6cCcyQSaL4vDx8uzUTk+O7PDw0MkQy4VUSnHPGE0nqi5uO1277g58yjtF9oeMhrlBwiIOsSCyV8URVNnaTQL3GZppfQDpSDSfgZykeZ0J5lhu4KL4Zrk7igI6RbCjxLLT5xE7iIIII5Ddj2whKDAwW4aAwFORVEbAoQbCDRkqth2pnRW2a0uu4IozPCOYmZovXXgpGNxT/aG7/eVD1/5w37HHwUSfNQeRmy58VV/7+y++P/qAjtP3UyflwvqcrCgx/uIoBDRMmChSr2ooV8JXnS20Lz2/vBLVDXlbbsyk3CTckwqtsSyqoSDMKLVzcUCzwiJj+4qIspuVEqL8QEwlsLFe25AVFcOj2VS6VaxyMLXrcMIj/E55jOtlLmMHDInYdyeT6vOQRyLANHghq2XSwnQfVSKRR14eNEWsx1OJHpcsRD9HUFMaE3wEhv4tlZTf1GzOQA4k01QQyIF2s0sbBsE8eky8nxyv4XBapgMEBIECwKZZKduL45b97LOXdnp8ZAcHB14d8PwolU4x05s9BXSnb1fdofUmoLIQt3cdbXw0S7C0chn11fTUbCc8oL2HzmlSz+bAS2gFdKhYeI9xnnNwDT5hqKj6rl1lOhP7MP1nx75gCs0OerZQpcR1ZiBJO0JmxrwA04N6rS4JKmYxtXTCismNZTcYycc0zIWNg5yyKKbbnXXGE7ts9+1tu2fvHnsK+uli5brkH4gBPlOs+Z4HZD/IgOYakc0QN/jnw7r9Y6tup42ahAESIKuCciVib22W/7d31m53bcbgA85wjD5SQNtTQKPrTVYO6qHKBhoYueFcJul4cTJavHcezwnmuUvfzFc2mK+tO1tYD0gi4gY703AN8AX7ctY4TKjZWXLgjBeYrjMl3mpQRnnfLGTtsJS3V62qCCQQ7LOIB6RTLvQvDTCfeHPQKLsmzAULCOA5AzlnGdHD87o0KAo3Nz/7FNAWMlxKGZW9PIyqlwroF3Z8CP+55QZtQFonE8MTar6YWydk6JvOwG57IwURCptUHGtOvM1WQ0gGZc181urI4WJwEKbc+UxuX/nQ04KRZxgGcIMWhNLbA9pXdiD1hIqTPPCTvpzwAYBlEG1MpGy1S6gaYTYx4jUv1wro2ESvVCxZuRTIJcXI6tmElZM7y9laDC7EHjxDz+ULTtCS9W/7YzvvDDUEY03Fv3EtvcbVAeAAACAASURBVG70eueDCd7fYTz2gw3oSKiejP20UbGf1it21qhZvVKyTCEngfhdNq8bGsbNfbsjphC7VfpAVjqUcfRuEA3ErdZwjIBK+dpKAzKXA9Yght0vQzGtrYAnAjIAVjiXXCzm4oP5yvrztQ1XGxuu3D+Zm4+JubTMakWJFzAthTOLTE5nikQOpmsbZUo8pwG/IHr4sl6y40pRYA2qAw4VDY10ULhrCBLGvjPdeTBzmMznnqHmKw2I6Gsps6kEVhIMpJx1OV2V7srOKStl6XlRdKnai6Om/eTFiXTNGo2mJvLMCxi0acC2WGg6f9/p2V13aLdIGaGJDQtKvtEOUEHfmiqonvNWo1bIaLUVD8kYlNHW+LQ7mAZqr49xu2PP4x08PRIB7YxaaJSskzjYnDkGtNRQKk1l5D4Jpppen8AEJSbTgyhSMGMWCCmnUsxbJbnzXfTWKZnsq8nutCvsteFTU3HdD6d225/osGT6LUnpP8rMHt57TblPGfrrr8DzkpsL5s6OKTsrR3ZWKdrLetValbIVypEURAAWMJQiqDv9vspQqHbuF+0BzXUHGsyD/ozSO5em381YxAPRfmVpLwl9veKgDYJ5ufYpqHafi7X1F2vrzl3UXSuTHauOpEzcj2ole3lYFdiCg+Ku3RVA46Y/Vq+HeyJPznyA30mmfAkKDs2zYl6viczuAonhQMJCV4oqfs0or8EWtxnKKbiYWHsvqgl2KFEV0ObTbp5K5TZtQZYMmleGPjlo2NnxgXDNjUYjWMxubDQeySOaDN3Di6s3sLveUALztBxcCxn5hYAWlHS7luIq70mlNwMprbN8rQWQh4D2od7T3lefucYVAU4mcgZBH9ZoEuHf7FVQANWg5ILMsg6w1VqKqkBwGZYB5cVfrEYPjUYadrdUC+uFZdYLS0l8EH3vpSoo4Qi4f2jdpktVVGiULcCGrx21FhQYwk371Z75Uw/9jefZhwFtWv5nMwlrsY+OCnYCt7latnq1KKIBvRQ3NRmwxykNgiz4DAvxE6RtuEckE5zyXtoDOq1+VntopqoKGscdx5PV2DeLgCYrwaKCCMCDIQwfNz/H6qtZKmnQRdZjVQbu+65NZuvbNQE9niugNVghoyXRGk/bQSlvByiyFLNWIrvAJgtXKJ5SU6a78NFONxyDKUr+Ea9D79OzMMUrxudkPQ2cIGEEIIfsb0VHJehwiHDhBwL6oNmwer3ufWsiocxMac/MoNtDNbQrt4n2YKjpMjrolMqaVMtsziGUVD5UVZV8JvTUvs5iUKadNK1SGMzxumIjADHNhFFH5zxpW8TxVWUEq1nQcC6b4JLKgFWyeQU9QU0ws0pkXoGoQqVUtGajaQfIO7HDz6ZtMx7Ycjiw2aAvMM2IdSPZfbbU5zparmzMBB93S4FoHL3mAf3VW/b7D+Lnr+AHW3KjcwUEkF66ls+JDolL4FG9rBuDE5lMxQmL8DmKlkkKJE1443HQ03CMSauroBDQKX8w3Q4Efb/ZYFZ5OckJvVht1ZvygdMzU95ORevxNQo9GxDOs0bdzg4adnrYki3reDwS2uq+O7SbwSgE9FplMCUcNwplMDd7PZ+1VuTDMmxZtAdnKCf1XEz63KqGIOAAI6AptbnxPLH5Dbbe7RTQS+20/X3Ep4N0DtMcZr53ZxB33KyJRNKs1zURjkEgrLQEb0VEoNOT8AG9dHc4silSP4gNrJb6HrUG+l0MrvwQBmKrliLvFjN4dgsSCtkkEEd4vVRF2jyoJM/6qlDBnDC4THodMpxfOIZe+2tXJSFwGXnyvZTbDLd4beDVS8VIbQQWvezYARaN2vfWu3+w+7tb6/XH3q7ocwWsstWQb7UMlUPomP+eZfWfquJ/oAGNzKx/4I1CzhqFvAIaaV4ECxhacTrfj2d2L1WJuZtwy20ulNvhg4mn3S46SJam5PVemhWVrGaDNlZcDpLloM4RNJAACOQBvReQw/VOwxsyJzcjemFnzZpLHTWb6kF73Z49DEYSZEfUnX6M5xPWOh4DwRpLJjQVp+9kl8sKiFaDm1AaIxoGxYAQs96c7OxZksEUWTWGMNLX+pCJtsHlh+JcwnM4PjottBqa4AeNmp0ctrQ5INhoS5iks/6hRyVLQtaAuNHu9RXUMJBQD5likYusruxq/PDQdda1pQVh6s2KLmPVAvtph4gKPw+QWgGd0n8j5Mcajd9NhsYocCvBxqyGZwzqxuOpqgbK79jyh/NKmITN1jcJKJaADMxk7aDVsOOjAytD3smkFcg3VzdSYuV9QPBAymq+Dnv5+LbZ4/Seodf+DoOvH2FAO1CDoJHdJyoTaGyjI13GDSGljHU3mSmoe+O5gPNSkaScC3voAL/X+spZSI4eI0sTyAycVNI6DUmwSIKZTMegiQe77vFyI/IFKCU5UNCPU2IWUIws2kmraof1mqRwkch9fHzUQKwbiPKUcvycxlSqpYOG2Xaj8lsDwJDZEOvjwMkYQzp6e0dHMuyiPOQBtlmvg4Cm50zEoJGtG7KHTBjj0smGYkVRkVBVVMrWrNXsoFVX6S9LZ3lNm8NLg0AhNFGydBcSR38oWKUw4LOpBoUENO6Qvqd1Wx6GfswnaoKH+sNNA3MCe7DGIhsT0LwuwB/lyOGpBDTGCbsUMkx57e6ZNAOeGU/GAt2oFE4kbL3Z6VDns/JWI95lp61Rx8SgaeVKVatJkITnF1f2+t17BfQEyeMAQX2qqWNaWGjsv+dh17f9dT/QDM0ghxI5aa1yXuL5R+WC1EhqUWS5HEIHaQ0yHkbzPSkfAYLYWlYZOWh+x5kqbH+01+S5HYzvpW0sGO87ya0CGeI8axoys07zYMTGzUi2IbsR0M1axVr1mh0069bv96XVRUCD/UZ6lvJ0h/OGpqYgjmjWuSmdsMBBk8skpTuuDM0D6GZQ/OQQoKSeMaSTZE4gEyhw3eWC0pwMzEHjMwGvPAhugplBHdRG8OOopUAxrFerls6AT0byxwUcBMkJBnes5EBOEQDae+O8yLwCVRO+H0cLieCHQ2bD1NskH1XSbtqHZEy91U9HIMjc/YQ1lOCyUV6DRHpsDrrZAjhnSpK8qLsimggTDDDNaDgWik6mgEG0kVKbvb0Y4RzSDP5wJqlj9VOWb9n7q2t7d3ktf2gkhmjPYkzLPqDjafszRP+3DbLv8/t+MAEdX5S42FGwQdkr5ST8d1wp2CH2NjJWd1nZx/Fca4brTt+6w4luMO5PhksENqMrz9aBQhwAAsnArBE8NGZYaf7hJRjBA7eZHfIYBg/WpnLL8Owv3m8OJ8ui1ZDnqVVUxgLl7LQ7dnt3Z+3B2PqwsFCuVKnI9BacNt1hQKJtAp5ZCCTvQ8n+rNBYBXmG9TpQ0EkIDdLkYqrtFQdBIawNuO8cWTBvBfjIgFHI1jGmm/IW5xDE/hAohPrIClBva+tsLV4rfTEsqNjREnMDQWDXKsF7+CMzVV4uNOleMkgioLWa40DwoR9VhwNOWJWFdVaxoNKbft31xpzQQklOIJJ5WQ+C1Qd9lyuz1ajYcrMW0AWqJ3aysucL7DiYYpTjrAX5Ow4tD+iK/LsI6IvrW3uLGuv5hV4/8lGBPP6VWPz7AUa+7aHwgw5obugyHNxi1k6rkZ1USzIVq5SQWy0JQP/+sW9Xj12tIfgCt13OYbwOeX2tvpmHNrlhPytNgKB2E8MiPXA8mEF1ASBBFYN+1ftfMjp74YRFEYSGotV4SB2DwVJZXkpIDV2CXOuRzSbKwAQEfSY3PL7HMR6YDBivnHwirZ2Z49DjYA6Gr8JiCyEeW70GI49QXcCzBusOlBQADprllLHI9/oozqwO4b9SUVAjGSTWFlWHAnolcAkCiNjlqIx2q7rggpGSflpvOLJ+fyTUGtdT6z2AIiGg+QkOkTwTZ2ChGo7xcDVRR5HlXMAhldLeXrjvENAzQDJc98XKolrNSvW6aKME7P39o43GE7fjBWiSTonFpsd8rs8fAUYO11azZmVMDHJ5SVS9ubixP7x9L7wCB4ACOhbt3LfMnwL62x4s3/r74murS4ugHjdElLWzWtFOKkXpWxUL7hB53R3aRcf3pAw6CAL1tpmMy+5uN+qXCUKyn/fJTgSQXI/7sO3HHvwbQxYyhK80lhqM0a9RDvL86hEl8lfUjchUlfKuJMGCguSE4WYPIcTPZs4Sktka9EgnYDgu2XyoJJUN9rqueBpTjziE4jWPOx16L+0eyn6VGHYJEANWPQMenam7m+HhEoIRH1maAKX3zWXdRpd/h5dNNaBDDsz5bObkDu3x3bRdjo+LlQ44JspuuA6WfKrpszPD/BEDYngv2gCkkpp2E8jNKGONAmaBXj1Ig0zSRc6Ck1YcLYlYUGvh3+nREYMsVqvSAqfMRl0VIT8orDqQ8Thb+0GJogkXiQzNKo6hWKlUkeoLmfk1csXvLtRD8z73KqOhAvJp5ROB9lvfsH/zb/TPem/umUmmn4/s/ua//s/9BfsX92Sh4XPgkMbyWdwnM/aihrVNZC2YR5K4TYkBxJ4XgABlscD9GnYl/SbbbiyfTnhvCrwzJihoHeRTYF8QeaAzcGEQxmS7h2oFzg1rAsjBGSpvWXvl6EULeo1I7yDojlIHGVEZS3hsFx4g9uihuUFFW9z4wI9fju6ziBjk0Digw6tiyq/A96vxIaeYsn2HiAFwSM90YmdpbVNUlqb8L5fIxBmVqxw0KvcTpgwm4wEYXKy7VitZCdEbq00Jh4VsWwcjXVtKbt4LBxATbnlPhcD3LE/74Os1r2TigAbmmrMWyquSUXbRA/pohnRsGghsjlkm3DN4z5Txi6XlcgUrRCWr1OuyL2IeAXrtodt1sQHjAHfyBywuDmmUPI8OD+zl2ZkOXT7d3/zhS/vdl+8U2Dhy8twx3HR/v+4dRf/cO/hv9f1xIH8Yvh99yf1hQD/l5ziguTGiXNoOywVrRjkBF0BUkTHjNQ6EAYIlZkpxQ1Gi8XcK6KDxzXPx4Ysr7c2jC9WFrMfNCntqsIDFNbfxcum2tqGfj9FkstKhnAX6yeuTXUxQ7wxYZKG72Alv/QZldSWoI2QDmbiZpGmZEkuBJIBAXF+MgdizGyUIc8U7ciHOqBbgcQcRAbIcOHIptASes2xskLFlMk2piu/Veq0eGp9sdujc2Az7KGUpXXleXh5rLqbatA2S/RFhBKUUP/gELQ2POKCF8Nq5VDE/D2IM1dDjCpuKgg/EUCANnHN9H7xsSUCldCBM5QXNAbKxbBYt9cgKpUglOZ8Pr5GyH2w919Wn976+E54bzAIyvmdnlgdRtt3ar3/7O/vt6zf25vxSEr0cRPtsHF/njzKgw1ZkfyskfoiaYk8Zif+i9ASDTdlNCcdah2yk8mzrQuiUaQQlfRuBBPRTlMW1B3QhA94aEImvm6RkAngjKGJo2KQed6thWG+xtRECApqauzwR5W08zIoHMm62xs3rDhwcQi6kAN0RGqAfLIgbAH6IVy4xXpzeE80ytQJhpSUbnrCrcknj+N5L6HvFwtLr8ek1trAEM6UsqDWHuSIHzKHjhA8qBQzfpuhPL5f6WdqFajHvE+PdTv9GSU3/S1sBpJWSezKZywp3svDX71wFUFt+l7n9rxMYdDgS0GwowBBgpF4E5RdpQ8GknevkSDAH8FBVqBoJWVr7YSR0Vxv9XTbrooMEtLcPa6ECqW7GM1w9fZ8dyzJTKR0cHNrJyYn8sMnGv/rt7+yLL9/Y+eWNqhCBbmLlwk8B/dctMf53JTciBQQTNyuQTXozsqsyONjnADLheSi31QczoFGQAkmEDeRTV6bf4LchU+CowEmtG0S9shMoRsut9Rc7m8M9FmDCfxe9qsvOOpZZr1vlpVMTfcWU0I0HgiwOWqHO6KERl1f/7oW+27D6EEye1wyoAiFDbKM4mEXAD0Tc0GOLGSbKJ72os5Nc9gcxgeAtJXcNyvGkrgeDIK2XkNIR59x30zw5hyFZkQm3/LDCKm+NzJGgnlwbf9/EglZGoVkJ4a3KRzTysIYjyJqlvB2XoIri1V1Q70xQgmRzCaSVr9uCyCAEDPbQ7O1ZRynrAoYpRMq8rOAIRgecLBx7ILVQE6AkV8hr4IfRHg6artA6tS9ev7U3l1d28/CogF5SFcX3UHw7/yAytP2QMvSHB8VeGSJBWctgy3suymZl2SAmz4csQr9sqfjAERVY2noLo4cMzcQ1Kagnu1FIA0xbUQ+JPZMQB+BnCLzRYmuDJaAFB5HEyC4CQ26TUtoMLCB4xmG9FPtO0dOSNZ9nr3ia/ZRuPUDJpomEB7KX3PEBEvf3zg0IG5r95FsBnfJS05lYfphltVN+Dl7xbE9fjxomNzglt+/T+d3odvmgzfHfWgj5a2eFF2xrGJypz4/JHztAtmH6EHpm2gifS/h8gtcGhuCkHNlpvSyUn/fKuLquVMJTtVAtkF3p/emTWcdRReCSod+PmkihqBkFn6+2BhzEOJhwCAfWG+W5HD2RcK7VrFaviY2FnNIXr9/Zu8sbe+j2NKjUoSYnknDPEcyfAvqvk6mfMvQ3BbRnKAKHGwXghat45nSyk2nigY1OfwIayZjgn5RB6VUBDR0TGdqcbF0a1UqQrp1KYkbIpzVA/a2NVtw0jj5yPqxnYd1IEovj77ilncklaZqgyiHlDTGGnkjxysvPp6ihJ/aZl5Mb9oxbZUj3rRKxhAk2Jey+j+fvAWZ48CjIIPjr9ypF+t8FQgPfJcJGCGQNCwGSeEQHj7mngI4PFzbRQtLCWAv7911iF1BpQVgwlNy8C0p0DlxWSQKypFN2AKW0UrCzVt0OqiVlY14HfTCHKKL5tC/01fVaVYAXTAFoEcT4YsC42VmuUFCwa/YQ/K7jkj0OaKbbbBzEtlJA19X/M0D79W//YG/eX1u72xOohO2HcPCfAvqvE8R/1rOETQJ/ECiUmFoXFcIuM5kUjpe+jCwZB7RbrACP9Jttj15C2ghd7HLJptOpr2o2rqLBEAzAPgFNmBK2ksthohp6PvW8yjMe0MkENIEAHw3Tec3DBAbxLMaXsNni+8Y+VSETPtOs5i5zgr9TJj2DO8iE5OtlbSjZJeH5JALgw6x4R+29btgi+wQ6lPiCwwYPKa3UVqiIOF2QAZ7E7eEqqwWIA1pyXioXSGTbrUvgaj8QthM6yGgDJJvs9FTKbPrnk0ZVxnc+rFyL8QTnuI9/VDCJZ58PhzmKSnpOPKHJ0gy/sLchoPHU4v3z+ngezSDCgYsWN9mZg6FarVmlWrPuYGR37bb98je/szfnF9JHJ6DXqPyHLsY/nU8Z+s+KyT/vm4MDxPMpbxwUIUujOCIhAVHvQDJ5VuKeo1SmfI6zpzK7fs7kj4WiBtpkgDDg/LJ+YUDG2kN82MVaAe1WLilNp7kJ2OVq//uspFAniZa0wvVph+xuDDCG/FDgiz14Rgwyz/YSoN84XZNyNk4ZwmIHyGfcdvhUPljK7AMp9qYLAnvBpC4ul/0X+7/pK/xODjd45uCoeSvzxUbC9UgXwTqSnHDYEHDb8+C6qtsOh6sv+p6+/P9dhIDPBfFFuNGtcmSHlciOa2Xh8IVIg1+OnS2cbtQ0mUnY1sqlSDzmZvPA2CKwC2fVBo4bfy/kiNmtSwSCQaPUW2Z+WKbTsr9p8PP1ulWqVbmqtHsDu7l/tF/95gv78t25qKAAUGit/Lo8ByF8bDvoeJ36YfR89GurPw72bw5o7UfZNSLsh9YWN3/K2UX6YJNeXlKGaWYWxP6AepLhCGhkjbQPzeYEokDtspj2/hha3Qi45wqyPKyjlKtXoKg5n+t7eK4ATVF2JqBVTgevJn0MZBGVwv7XDMuYHDNpLxbIXvSbwBzRG3OKp3o6ldC+k47vNb2PWPzfR3T+3vScSc0U+JPfG6t68u9kSGduJTVjAO0GRryAUmcJFFlSg6fBaGHd4UySuK5HFssDkbGd+KDDMQbh6FKHQIgn3QLquK1QgV5W6p85ZWjWjQ2UQwLMlA0EvS8MuW5YiUHAwCeLqqnVaAgcwjWTEcBkIlolE2syMIe4tNJZK8YBjXgDcE8IJwctIfnI6tgPXd/d2+/evBNBA8MDVoUE9FfC5FMP/edl3b/guz/I0H4DKaBZywBMYAXCdFmwzjCJDsJyfOBe3gIw8UYQ2iQBBZ0PcEMaA7fdRha0KFYSEhD4wW9TduPciBFeH2M0HAqnM6G81HbtnJQJVZmfc1vUsNYmthXQHhAiDQjBlrQ6WuOVghhIuUzCemOm66yhQhke9KK54b2cDwAYKal4v0uwa5WXcX0wpvbIKXGTOvKMrUBShBZsdFELYcZApVHIZ4TWwoGR69MdjO2xO7H7HkLyTkKZrBZaG1GCL1e+ylOCD4eI9uNhQozufNz7k53JnkybwWsT0PTQkGrKBYA4Xi5z8FBFUW5jJYSULsgwHQJY2NQrgq1i8UtVxA5dVrGJhA/OGDiCssPOdzZTZcZgrch0u16zo6MjQUsx9bu+ubNLcNzXN3b78CgxBOiYtBhxgtafn4Zif0GAfqcf8Wj2m/yJHC+P5IDTjtFUmvLuAxrDM9/zQhhAgL+ad9tWZZSEaQLOzQ+NEPLECIridGGzbcJm651WI0xk2SUL34yxeFg8ETgEtKbG3HSBREEIPA9oApCV0lE1shfNip02SmIftSE5rHC5iJ07ktK5AqElxc8M1jlkKz+Y5N00X+q5KhHG5VWrADnN5bWeAXDB4UImxiiPAOGwkALJdGqI55XKYOFLUlW5fejYY3dg7d5ImHXw052xO4Igwsdrw8DNJ/LOUGOOAWszLNy8EtEk3mmbrKs4YCRGWC1pwg22HMdHocE2aw0hIa60+w4QYYUFWYT3CuCFPT4BLciP1n6OCiNQhQxLJdQWcFABcOFAZ11YrVUV0EBwGbS9e39pb99f2vn1rSShxBILCLcPUJ6fAvo7Redf8MMhoEOWplwVRTAENOse39v6lJdUxs2Fi8Im2Byy1immU3tVEDIsvSn9JAMb5GehMMJ7Jnt0pysphEiWBo2pre+sITHsKwVxqWOxeM/S+9WOAt2nzQQnUjgvmmX76VHdfnqCfG9kncHQwS85CP48V8o6g7HE+Rn+QWSA9EGlwWAOlBN63GTAeqVoL06PrFarWC4XWa/fl9kAL4Kd9NnJkUzbOGgQXZiMR7LgLVUqVshHWtlhcdvpwXUe6eBCCfOmO7SHAVzuiQQNkHPSMFJrQ4fVElAMIem5UY5ZSuvPVVz8vaZUYhPML1uotTqunMys4SM99Hii3yvd8vVGwaygDlRKDl2nf9JGeZnv+G+X+hUrjk1EEBLk+ym7QYnlCy6L/PrtO3v99r29v7m3x66TMlh3abAZ7/a9yPgIcdw/mh766+L9awI6WLxIrgfnxcAtDqNXYZwpq53w4OqZoMzKOfd4ikXeyWaHlZI1ywXpgJMthpOFMOJ3ECwWgCqcQEFvDv83mcBqhkoBy9Sw+mGPK1aWD+i4B13ny/W1CehXrYr9w3HTfvH5iZ0e1Gw0GmuSHBWi4P1s8puGnkjwoIkF8cMHQTtxrYejoTtYViv26uULq9Rrls0WrNftWPvhQYcNO9uj0xPd2BxA0/HQpsOelWp1DYsQMGA11BWJZCgcd380tc5gYu/uO3b12JdqKcwwiKhINfH6Ke8p9Xk/BDOigXDGqWQ8JLx14JDEKOFFq2o/OWrISYNghEDDwUFgUWpTjUgkYb0VJRbCCKurWIvcd9tUYc7vFrWUINeu0AeOyBNJfRVPs2LJmq2WJuJ8yF+8fmO/f3NuV3dtiR1yiFFledXxfMwd93dfM4n9C9LPX+dH/JrGW4T4OX+AQ7FvuBxB5MPXV95bygBdWE+nAT4Zn4EwYkiTURnMTcaNiEkdpSDDLfbJZFCw2DC4DqpFUTOZoDIEQ1j+bjBRb0kGIUjJpmRphmGUoAQdAylsYsmEkO/du8mVOLnPCWgyDeUzpfZnrZoC+uVhQ4wlDXsqFb0XBmJ9jO3GUw3tUK1knSNW0War4BtPRs6Yqlbt9OyFG99nC9bvdazzeC+kGEi1g+NTy+YBz+CGMbDpoGdFnBgJ8s3OCRu9noQD2Au3+/TTQ7vrDKwznKi8Z4cdZXLBoAAwi4NcJACB4QADQwJ6xXtkcu/yQiiu0FKctqr26qCunTSn6mDsckxkZaCkzCzEv96aJuMFbHOz4AscIurUSsejC1TCUFIAQQzmMRmkz3ajP56fYVqlUjXgswT5796ci2F189ARyURKL8rQz9B3YdD41wnCv8WzfJipf3QBzSXzgHZyvz5hZGuCuL5fUoTkHB/szCGHRrK7rkZ5F5UH18x+OWGuiFIrSfubm4ZhC8LyD9zYGIAzJGL3CVVQThQO9cyhoRVgpRQC8yU4ZAT8nInk4JStXiNgC6a+R9Wi/fPLQ3t1WNdBAxWz3mzpNa63K0P2B05yIV8UUIJBkFZc241NJxObzaYKaG5cgrZYJqDzNux3rde513VAkL55eCou8GI1t+lwYNN+1/2oUxn5c0FD7PV6CmZANfdtWEwDm08XmhPkUhx+kDiKGqblc8wjEO1bSegfi5g2eGpl6K1WTdjHkqU5PNFUP6qjhlrZr6vom8fY18hVxOWRVVHJuRPf7oxbvssKJ2X1CqywqowR+Khx9uAHUDfB9qZYKqliYhWmgSWfc77gdNX1yr58f2VvL29k58NADMjnfoCpkiKG4X5Mmfmrh8KPNaD1AcSm4C5aQFbT5DQWB9gvSJ/AG06Ed+8qzNQYJm0A/+OHjDSQ7WReLl3tVkPDIgZI3SG6zTNlaIZiPBxi6gR+SkFw5YjXI2RItt5uUxqeMejR1DncuEshy3aS2mFl9PkhTiAVuWIg1oBhnP+8gyWYCQCyIKAJQt43r4tDiGBnOFQqV6xxcGhRqWLZXMFGg771um3bbVbKXM2jU/09k+Jxr2fD9oMGVmT6oFJvJwAAIABJREFU63bPrtttu7tvqyQnDFcrVwuFskhQlAqReniXDGImubHRCBO7ofyfED9EMQaqKYZxBLN0wbZbBXQlytphtagdNO+d30vlQ4bmWnKIkOWlGJNM6nPhM3ITO1dywaeqVq2JeEKpPYdfjm4Z2VuHXWkvWSwBQZ0NKSEF+V3vb+/s6u5REsQMDQloKinHvcZ981f9qv4WWfa7POeHpfePJ0N7R2EsgtVHybImiOPH4ntxQMfGYnzAgWIIkUGOhIV8cGUg4KBHboXtPqyV7UWrriksVEIyCTcfNjOjmdvHKqAllh8kaFHlYJpbLlgll7dcJicQClYraH/hmDFEtZLeDb0tqI65nJ3UEGqIrJjNyfL05OhAQcBOHJM2Ss5GvWaVcjFkLYJtaYv5wlaLleXgYxdLVm00LCqVLZuPbDwcWA/T+9VCOmHNwxPLZiPdxP1O23p3txqYcZC9vWvbu/sHu75pyy+5AWwyKlqlWLJGs2XVWk1tANN0gnm3QZ5oag8PD/bQadsdFrODiczgJ6udzXcx44yymCl7UgAe3uNhpejWsAj+wTXHgysENj21BAPhTpciDfvcWpfWZmUl1FcqFQ3LCPzZfKZKBfwB/TZOkzJHYKsgfL3TO4fjifUGY7t+aCs7o4eGMMNyiXCD79WlHhq+3MjgYwOWfH2m/hEGdOzV5Owe/yAgJASAiYLZTzWtlyBxBEI9NwYcYJHqMZTD3G63kcgfckIE+3q1FHdYZP7tTo6TyBs9jiZakyBQIM0vGEJMzfNZOypDDyxaq1yxFVrPmo57Vh/SK5LhoTCClEqYykv6eQkN5guy+KHHZlHDcKhaKtqLk0NrNav6fw3x4FVjfzpfSpIHv2iI/5SelNaDbt86j4+2miFSYFZrtMS2YlVzf/dgN1fXTi7ZbOQCAppuMVtaKV+wg3rNmo2W1RpNt69l0ox4QhhRLKZDG4/61m537KHXtfveUCox192R6KaT9U4OmbCp6OHZuZfzGbGt2EU7gyspJU+WfvxuBBSRB6Yt4f15QEPASGgYBwAEhlVBTiS+w0Y+2N0oUxLUZ47gfliu6S1ceDpt/cHI7h+79o499P2jSBqU5uiHfxjQTyi7TwH9XaqI7/CzAOrdXtQDOf4S3kr7xBiI6MAMZ9V4WaeALhetBPQzm7XpfKqBGtaqDGVYYyGUT2knqh9IsclUQyKMzCjltuuNa0pncd5gDZaxZrFgx9WyndbrltgkbEOZDjQR0gf/HXDiMilngKOTxiGglN2lHCuztOXQUCsVhDV/eXpgBw0PaN4HgBI4zasQ0Pli3srVsspjSuxhf2jdx47Np1P1wKVqVTc4AIz2Y8fu7uivCR4X0svDM874cI3JcL3esHKtGoZbzB1ikuTWRv2u9XttrbiwmMVJ46Y7sIt237ozpIXXag0cvee4eeiqEGFaJTjXTKbTli9XBNhhMo3yCGs27ZK3Ww0AIzDbtAV4is1mmmbz3mhv+FjHoPXAFKTS0kZjAyATAQakaTjTOWXuTndgl7f39uXltb2/e5D1DdsLWWmFeZhvqmLMn99FsahGzDj7Drfp3+BHw339sUsQ/VnvXHDOIKAXmEXxCjEWHwhEZTc4i8kK3A3JhG46dqLYjCIfy+qGgg0JIQ1kNAXlJF9J/J2gxuEQh0scGFm5sMMEekq/V84TjBkJyzeLiBhWLJ/KWHqXtNFkol5aThDAHdVTI3awtin9MPROHCaRNML7CaRVvO/NpK1RKQrVJc4yiDPIE/TXq3XIXFntbjWIwsIGAQNAKWTx9cZyof9mUoxE72o6t2yC9VPeao26VWoNCfAR+MVazc8Y0G2LucQVkxl5U5iBcR/0tBYDuMKjOxzLM/rdQ2/vs8WqjOuLvZBWXHhHF3PWKPqOPQl3m/VcOqODl+HfYIBGNu6RC7fyBTaay8gEDxFC8dADc42AxD6XcYRP+bFFqgp84od10colyBkVe+j27e3FjX15QUDf2UwgGR+IxQH9HMe9X1p91KV3WA3+aAI62L6IpZh0KKCUMjTgQPDP2UdPH45nZecu+z8wTAIlRdlNQHPjcCNzgwCcAAoqUGdiJzkf/g68M0CT2+5QGZdhF8Migg3IKPhwiAuYtRHUKI4WUtkQ0Eu1BM6VZuiFJtfOxsuFjZYLm6yWhtYKQSuVkjAn4D0UC4jnOapNYgmodzLEW4Msw7WDqX0+iDqYDidZxyxc+ysfwT4qW6tWc5dNMiRyPlHJqs2mArlQKikDMh1ezCa2nE5ts0TidmPpXNK2G1RKZ9bt9azTc6TVCLWQ2dxue0N7d9/Trr49pqLJSlkEWqvgqKDccmkNDbVCJNPm8r5KRFCfbcDMn4/yWgosad9EULYj/BcrtkigIbhNSjgyKrhQYwGPK4d+Su1UZu9le+j07fXFtRBiV/ePqlJYb1HlPO+Ug0jy/qbxtvrj7qV/PD30VwKa6+5uDQGl5CH9YUDLK8l3yHyxn0Ucn2BED1o0i6DwIYolfbHUM5G4hTIF6d+Umemh2ZtCJKiVCsqgdbJSKiEr1mzC5HRYQ68r61BMYJq8IrJPOR9ZNoVhW8rGc4JiZr3ZVGwjMtg6wd4aBc21JrnZnGOjKVUJFvaxlKI8OBnoU6vFkspPDorNamGbFf5e0EWRFyqJeXR0cGhl5HArVcvW6parVi1XrYi8kARWOR7ZbNC18aBrs9HYh42ZpGVyaVst5zYZD+yx27V2ryeNcZBWVAD3g4m9ve/YTXek/3Zyhsvysk1gOi7Kp23coYQpOFpsHCDosQk0sfWAnnGIMClP+SGlSRwrP9chp+pASohhGdUR4BPtvIPrJntq5gAENLtsfMVeX97Klws73FgIYe9euw/bcPzHf3wK6D+rYP5u3xwCOna4cJTnUw8Nqjo+X/Vn4A570Pv3ERgoXXLTMVF1yKgrdYARLqFMCZ8347plfL5MTRnidABFLFZadbHmapQjq8gbi6dAG8ttYrGWLWZyfvPTH3ITptJWKUSWz/jgKDY7d+og3YBs9oRLVkBrd+1ViL9uXC9yQf/a/52/O6jVrJhDjtfJJUn43/SyrJwqNavUG1ZvNpWJsxAeclmVvlLqXq1sMRrZdNC3cb8r/jEDQTjHBE06m7TFYmaDEQHdU0CTKQlopv2s9K7aA7sbMjDEWsb506oeCDr0t9PI+cbOJBTwCYE+COqY+spWgAyq7QF75GBsR3UkMM9mK/0wyfRqB53W4cbAktdDZUOFdXp4IJVTxihXDx17/f5arxtOtNBh4EefbpcP7hXnAXzs66vQ5//gS+7nO//4v59/MOGmj7cQlKYe0D49jYOZv6Wko8/TTYN1q6iKaI+tFSDY2khvTF5QPowBUsrOtEd/ipztZmO1Ql4+y8UkkFK/EYQvT/jkO59KCwMNp3c5W4otzSAuQkAwn3MoIwbm/A6BX+KWwQEy/M7NlmERD4ZwSbGmpFmtPTVOGTk7brasXq5YKY9hPEGSsSyZuEo2blq+VrNCtSY1TNxldpT4cMDJxqDEHh9tOOjbaDiUfEcKNB3kiDxILbPZwmVzFdD9wVNArzdSG3kgmCeLvYEee/fdZqPBFlUQjKsyPbGcMTcigHCAUbHQMmCcJ2dJgCGSGHYlU9aLKKlSEgN51doJVJ0w/FRSGUebzeaagBPIr06P9TNMws9vHuz355fq99EQd8uhr+STD/7fNyafSu7vlnO/3U8/D+I/FdChBY0DOgahxFlbu2OVr5m9cZsUOCAZrJYavjAIY6XEsIsVClnERd/xD17agmAzs5YE/0tWIvCTO1ujrY1TB3paBDdiBqxpyCILTMudESSQC4AUbF2zvkKjfCTjsJ+WKmaKYPK+Vi3Exv26kCGSw6S40tBHszKdi39e/Wk2b0mQZVFkqXxefavUNBn0rRa2mo5sMRrapNe1Sd8DWfREDjSYTAgxFiiLmT2w2lpI1J4Vk2x9lkyLPUuDw37oTxTMfdwuJPpHS7BSlq4U81YvFa1RKmggxaHYHU31Paz8VHXw2gIoiIGgPK+kzOqe0VJTTaZtspjrMyIqCTqyMtNxHlRc2BGdAs7JZGUt/P76zl6/v9RBQLke4/Y/uOE+BfS3i7/v/7u+SRDhSQLXHS9ciD4OKm46lbQJMNiuhEkGLwse6iIIlMqoebC3FapMKpRJO25U7ahetQhPtd3G5pOpC89r6AI0dGcFbkjWYKDS2E2TnUTtNCtQ+ucKdoDKRrls5XJJXsZwevOFouXySN66hlZqu7EUJT2v0CeClkhnLZnNKgBZFZHp2fFaLm87iAmZrDtsbFZhwj225Xhs81HfpkyWBwMxsJjCU9AkMmkrkJmFpabk2AlBBt6aAZg8mGfBQlauk0sF9ONgagNYWkzuqR5woiSgkwkFdAPSS6WogRZ0zIcurK4407rQY+xhhjACQ0D2ykETVZmYIEV0gWrF1V3cOQSQCpxtqqp6pSzrG64+lMzL2wc7v75RBqf3DuItH96aXwloHZ77XvrjHYz9eIZi33hS/G8COrCAmLOIUhk0rd2hkUl4kAEKkrzso7kZ5dGMoqisVjCAJ7NkLIIWeNCwo0bNtsuZreczm4/HCgCRPbRzTVoBNRF+l5wp1qImqmReboUFB9zC/rohp4uSxO1AZ4FPVmCzk00xWEpYDu1q1lrobiOWx0CLXjjpMsLSKafMh8SBqAO/k1XVfGaL6cSmI9hWQ5tOx7K8oa8X2TSUuNlCzoM57+IBKKYSCEyfGd5hhyM3C8Ay86UEH4bINc1WNmZnjLEfTCqChz09GPV8Woej1oNBO/2xPxL6ji+JGrI/DlpoakmCMyUzDSoB6ZTJVMHfJ5+ZFEolxo/u+tZqFRBuKIbiJ722Nna+3YE9Phvi8aYcoxDLMTyXkvIa7sOA5u/ircP3n6L+1G/8zx3Qz05h9teucOLSthLOD4on+9n4zqwY4Q+FMICrasqtIjxYl0BbPD1sWKtesUG3a5PR0HaLufpl3TBB2A/7HTy1QH8RQEAPJws0wNcgPF2BI5PWmqsc4WJRVKaGAgghA5AFQ7QnR4ysZakaoCJq/cN02z2o6Lkx+KCwpyyXOinCAQTjbCKwCSuiWATQpXMhXPiwLRdRnguwrdIWhw0GgZTcwqUHQzrhrxEnELR1YzQDSBfxniA/SBKIeZ7mFTDMfL3GLp5BIOs/srVmBrGKadA8Z/vAZJzDiZkGh4fzq11mStY5Ga5mCOigfUavjiACBCpWjL3hWGqfw4m7kYqM8Tyg92qsz4P6U0B/RMfWn8jQTyhQDYXEYSZQY0ksUTA9cNmN8iCjYPjmCpqeXQlonopgPj48sOODmqCiFxcXNuh2rAhsk/JYov/u2EF2Zm0Dfwg1QNBjnqEp31Hh2FkCGCOsLVE7s6GHZ5hUCPtcpvF+w7Lj5U8vs4FIpjUwkywvQyVJ87oapmie0D6Bm+KvpWxsEqInE7NjJ3jgKRPMmWJeZa1K6cFI5BRBQwlkPZ9rYFPCEtDDxdJ2ybRlo8jG2MwCvun2bDSaeGYTXhrzd1dpjbXJFisfTsXXyjOv984QUdjHS3FUv3Op7AyzKq56CGi+mFjzegl8oQFlpOdzDimFSmd98aGQYbgXfLcd/098G38K6I8ooMNL2U/Dw5RbA6+ADg0azK5zHT48GUrC2AoWNxLi8xVIKXJReAKUjAVkkh0rpu6nx4fWqJa0lrm8uLBhr69Skak5N6YUM1cr94iCN401DAglZXkPdgKaklEHReBrU1rTU9Jf++qMDIpbiA/LuLE1yebwQFgh1v4OXHA0s2PhXjllipuMskjQV6MNwPCdgAbpFkzg2bdtJBjo5TU4aALXlUB89Ms1mC4WNpwGPvMK4Ele4JT51rXYUD/BqhXWlhBZOjydFYdAoRRFNWNwHrkqIEzt9Dqyel20OJT68qfWdN8tY1UAB1cSrivPEpsRSnRCPfpS5Tyvk8NMftHP4JwKYjG5YnNdh4GGZdCPv+Tev9c/mvc/xfJTDD3fLf29Y/15xg7vIry8uGeOVU0UwkE4ISZ5ZAImWEOxTFrlJ18AFo5aDU1THaGVtLubGxsPR5rKAgUl8OjvCGi/ezyYGWiRW5JS+XOlT9Y14ljTo+/53K59tncHkW+Tw0JjEXsODX8f/qZEeuBgEgGFHS8Oj4jOu9uE3CmDdS5aX25o58IMJNOZzAVWNgSKqYk2pnb0rzhbUhHkFCSj6dR6Y8pq4KxmucDj3mnOsLGrm1u7e2zLCwvGmuuLuzopeHaqk3jGoIDmfbBZkFKJUye5ZDhM0r5IlETEiyD0yLqLCiWI+TvuZ6vvB5widVY015YcCH6Yx5Y+MeJIR16MHIwVVp6BkfbhrUv7I+uhPwzory7x4nMtLIWeUdH+3uEcY3T3AJT4JcYm6l4Relm4c0BBHByuFkqfnXKiQSYtZBZZAt3o44OmvTw9UnYmo3Yf29KNhtKInC8ZViLwkokNOt3BeYKARnk0F/Dlsf4Y2V8cYCa4Qr2FAZCm8t7va4EVhkKx5cx+FhAGfWRuDiAE8rC6VR8eubk6UFZYYtynuskZBO52QqlhRDeUUB/G9mRi9/gSKyn0sJTflNo8wKPzBIBUCsWiQ3A3W+v1h1JbgRrJAE1URlUPJuYZFQkvIKaeUk4zPISUwQwBwAjXAOqjLHY37uypQZhIJez63TaHSsWBReisTYW3ZxpPjy8dtCCGLsjsvr9yXEm8JnPWVew09uFd6/fODzigFa7fmIm/Ppi/cgkC5PKZcPnfLbL/uKdW0MZrCQKa1yaiu68n3N7Vebgx+x2ZYJV7250yr3adhy17dXYsSR52zcP+QAGNBhgoKxe0c+G6cGboKpBtsmhtIfxHJlU5jt/GE3JY4YZqqHykmJY/Yd9i72jd4LrJXbSPg0e72xRlq5unUz0U85EUP114D4irvzdWaGRPis45Uktk3rlb0jhSLbb/8d48QOAVYAyz8M5e7YCGZiyBtlggjhhtRBig8VwKrL1g/y5ARjd70T/wAA5rTeqg5DWTecm4gzFSu0u9ViCxex9vGeiZq5VQefC+EyYxQ4J6NMPSiIMDAoabLoCff9pFxT5lfmPGWnM6779y73MIfKzMq2815X4K6G8TvF8fqaEA/AiYZx8GdLyO2PdToYcOR3zojz2gXfWCa0DQhIDeuYpms1qxo2bdTg6bKou5CcajkY3R5NIe2sUSAH4sKPnCGSk9MwT/RJBwG1v11qyMZHbnga2yWV5TDlV1FU3v8910Mojxq8QOE3sGSnFZLjdKD2pAMVBFBePMMJZzm5u4euDYotwH5DEVb9uRWn4YuWsnf3IQZsTFdvO+KTrdlrTM/9/eeXC3dSXLuhlBgCBAkGJUsCSH8az5/7/ivvvejINyzswJIMCIt77q3uccgJBImrIte6RZHMkkiHhqd6quKpeli045cETU3m9pmQLgNzvenGL/W6kvQn4cJtTkCDhI0CBq6GHGW97s4wAj4tJVV4bDgat8xUUXkxAC2VED2i0CB5UJARpxw1UO1yZCBk5AOQNoN+yN1LLwng4IZqkU+xIXNTJAD4rCGfHKOZI9+8W/LcDG/kpGcv9t93Kl34oUyzkj0SCLD1IplkTtfWwkkMAhhogtmRwHNM0goh4XHt8nIl+r12y2PmWz01PqTHOpHcJgkvH4ga82Csyn1lFt7Bexq2CyalkKPW/m0K66UmLOyn2RlkcDyVs+HCmFzmtSYNFu97ASC419kpVt1NU+2qHh5dRKak45TSBhpC64p/ecCLSMGCVlMkniadMdP/Rxj3zB/DBSWo1BPYBmnxpuuHa4x6zTalkLxpnGXYe2B9Gkzd/4SXuAJMOQcGKI+ZFZpChIqq1ljEiH83Q//LtjAUNWvaxkYhSAoON0XfvijMw2Wx179cEXMRAD1OPo/HNFm3Tf+jtlajJLiLl0f4SO3spfBNB5FM4u988G6BSgM2LslbD5m355AKDDM1V319sE8wuODrZfeChQurhfmoECnHIJqaBqbGmNiRQiO9tYkOdi9SbMkGpMZrMtjX4OVM8hhgBxgsULACOvqlACBZRprY+IjDiADMwD0FycXle7YwjNJH2CArXbq7oDJfzvrtNaZYPjTTpSWV3UUTyj4IIQgDa8FKUjncYdpNORxQyPyWPJSB4yizSyh61Np354RIBmGkAm0MauBqXSNrXsvm219pXCwwwD0AKRfKV9HEUm5B1u/5I4Ablz2OCKDRaiFCnr02fEwTg2KkDPYVgwP2fXF+dtuFSRjPCDF6/t2Zt39uY9+88dp9tKKYV78f5E0Wrbo/9fENCjw6OO4AER+CKA7tcF/hjI0kmY7jOrXX4TKq/4S5FnpwwkJjrBjioeOgHoYCzJE5mUU4vwrgFNKsyFzZyUdK/Cjm8ZEb0JZ5RFJ5yLlkOAhhCUSbZ86L4S7QEHiwPHJz7rHRfzK/kpu0a4mFAREQE0Cx2k9RjMy29Zs26WOtyq1uvq1OTxTacsLZcqKoBE0ACBPSdoSL1FgHaQcrqJZ9050P4282cIKRw8vk4KoENatzRuHC3QRGGzcR/cBkC39poicuw0WxIQBNCwxjgY1YRKzp0a0/lIK8kSeXPPn7teA0tRUWoAdubtnEU8FuPBxuSElFOXZmdsce6aVRvXrDtWtucolLx6Yw+fPrfNbfewchZdMMTCqbN/MpPGWb1XXJK3+vJUTIZyQCcfxPyppwVvF0zrp8Olc6C3mTAIasV53xcBaEUwT6296RGRQqSCwp9IJDQiCfVJIgmAhnql1BfJIxwjkLcJZ0VPvWGMzUqRckfz12NtUZGG7++37P3GrrTIZLQmcI2pjkVetqK1S1w9uIi9gSbva+l8e7MoO4C7p+6HXal41xv5geiki19OydD1DjC/J+F61arMeEdceUUG8S7joyxFSqhj0iZDSxy5JDaTdptNF1GAPy5uO6uQ4zZRmZSG2QjMNeicEG9wz4Aos79v+81922bk1WzZ+o77VUnKGOMBojp73lpT9c609tBjw0yvKSo+P6iiaQmIyTDYSNNBN2zVMo6WWNROSlxxGg730k2r1Gdto9myp2/e2v/+dN/ernyQMV0O6IIybJZ2R+ROeXjPhV0EdKRD2ab9FYPNFX99aHSIj7u32XUGdN7sjZtFIhKffpSZn3waXyygsw2sPkAnJdcCoD3DcCKG/JK6Pi4CJHSVATWAZsQyPzNt87MNm5uuyVVyc3NLIgdsSUnE/+DAXq9t6uKG9kjdTi3rxrFdbRkBsGTjktYR3KfLudluPev1pSI2flxSMfYUm8OB+lcMsNhMonNMHZvUPuQzBRtMKbi7NsqHi84+bhgVBPyQSDoRmCkTkkSPusuKrl0bAVg02qpVKaEwy2ZMh7SRpI/aGM+1bGuvpW0nRPlkG4SoPSw5SpkMrLExFSozPleXZoPX2UTxGK156UAfwH2+pCQ6VbbFmu+0s7gxu3jdpmbnbLhUtpXtXfvl4WN79uqNvXzzzll+mlwkL+1CUMtC9aDWUQ7odOF7cEhAuSIqr/Dr5wA6f45Zmz5S84wg5xoAvxOgP9VVL77jv/EdSKyw+PVE+UuHVJ76eertdZYziWCNAWhFzFEnoJBmT09O2tLcrEgmuHAMd09ks8KFSxrKH/79fGVdYnrJ6JBU2W1cvEYm1aQLrA6u/KSdg506uggwqANcKvlesAzx/MMQx/zU618tgrBxJcLFqC5iDheeg9hVSCIxM54Y93LixJf9yRoYGVFn89xY2kDkIC2wpPsCsACMwwoRwXJlUpa61j12kQTxvg9sbbtpm7stzYMRU2SDjYNFzhiKzsHc0666E2Lk3R0NPd4LMgsEDXhDSFJ824o+ADZG4zZXLdvc1IQtTE044eS0a/W5eZuem7dri9dVSz999cYePH1m9x89lWQSemL9gE49iKwp3HcZng1QX86udAC6N6/wwyYRmmPAnpFD8lRbE9GPAjp7O3oodhdKuTOsFjrr/bnw50hxROdMBgnxWKn5ErTA1Djhdmk9z23vIlpmIBy2GnantZqiMym3HR+aSfvKd3Rx60DMj73h1+tbti61DLcuJcImQKfdX/kzsY8dSiB0manZASfcbrrj/J4WEpAPjk44v88fGZervmReSzRHNMGbYJ0DF+0HxC5fPKn7If1F0pbXq+UMeOKlcRdV5D1h4ePUqZdEWVhjsMGGRseshPMG82KaW3h2DZlEDwA0YN5uMgv2hY5O2LbyvEn90ixdl55UW+G6e+ajbTHJJkPK0UQ8iCS+G00pwhLLUr1iC7WKzU1OKOKToYxX61aZmbWbt++Kjkrv4t6Tp/bvnx/YBl5gu82c4xM87osAWiVbgUX2hUXoAYDm0xCwmNlF86AQCJPpmqJZ4XT1m+QvVWOWQjA9F9CFBrhHzNQKTalPuu/PEKGTtIzonWGsXjCT03AoRkFESUXA+J1scyqM5ImqRLQGgJ6ZtsbUpB3utyQeINM6OuWIELB8cXAgq1g1xSLFFbc6XhIAFB973JcRcGOUR9OJCwYSTeF0k/ZqNhxLGJL6jUUQj1ApdXLFE76H6AGLHAARTjYzctJu1DCVRg+7tzKpKFFQGmoSV/DNLrjn3VNcNjtiXbFMcoL+p9wx/SAh6qojPzamwwsAs+UEYwvGGcQQGatDZNE82Zuy/l54o4kyhkkBB4RkemVY7+M+iT9aV89XzTC62+WS3ZiuCtCzLJOwksrrGC/beG3a7nz/g003ZhS17z95Zv/z71/sw+qapJNOj70254/nX/6c+kdaxTww9V1Snym/xvPezJ9BuhgaZWm274+uqwA0H1ECdAKjy1sHdU8jkbP7o8UXA1jSn8sDOkXOPwjQEYn90srnlHG2OZtJTg+5bE0yjxdpA1/mRt1ma1XZznTZRMI3OrjByfXBWWenkiSis3zcZcnB617EC2Q6PzaqOpN1P2pH0l21VGcJAAAgAElEQVRqdAgTaXOrxU5zpNB0eanj3WbVu9YqEyB+CDwntjA3Y7Wpqr4HoJnLEoH5HiqZPC5p8jFbWLDboKSqT0Bqi0QTB8mQdVHllKVMWwsYHcZOLI45v8VKo74bTkSGrom0L9pfPB+ei7a12IhS4y668T2A9pm5lE0xokuAFkPNywoOPvlklUatgZvl9JTNV8uqpSXWz445o6lK1e788KMtLi7KyfPx85f2P//52V6G0btUY8Ih87KA7t+VTsntn1VPnwNoT7P0laWnQ25oHzRELgxJuMQpm0foFKkHRP/gHvcfJCm4FyN6vsqWDo3PGaE9mSCwiGYZ2UH2mkQuyEsHZSvUdmIteX2rjmyICGhRooQ4X02AFmMMGmWyKaX7LCUNlwemYYZDBl3lw+OgVWIfS2MJSiYpKzPrVttr3pAUJmJ6mg0wPJryfAAbgNaOsMgZJjIIe8DUijyPudmGNKtJvTkkmMkSuSUvVILbzc4xZeqJygW+2ARzD7AxeUqT6rNUgjY2tkCsSzbpnneHREiRV3TMuclCkCgi1UXkgPePetjVQanX/bnrfzGv5x33nWyke/MIrZRbiy1eY7MVxubZdHnMZiZLtlyrWmOyJGlg9Mmw/d3jI5qYVIS+fuOmlE6fv3pj/+enn+3Ji1f26t0Hqa/iaNIfoQden/HNQoxKl236SSEjjfCVJZOfI6v81LMyOxfQPIUEaKfLeSpOUE6a1lzYgrSO2iKQ+/9diNtF1PbkMjm91o+CvLbN7/szdhP7AK2OqrKOeDnBJhOA3fvQKR3JmUOg9s5z4lFfq0/ZTL2mTispITpadJeJVgncvAJ+hkYZhyVRnO2l0viE1XC8qJS105tM5ImY7ADr9JEKqA93UPLU+CVkiCF0ZAKGGMjtd2SczhwY/SyMBOQOUp0UgDl05Bd1Qkfcm1CNetUqE2M2jsTxAVpj7bAMckAnnfLDdsd2m3u22dy3rfaBaJ+oB5JqE1W5P7KLTQT4MaNvd1xhhLQczjiz8mBzqLhSOn/qiyIhbKBm3vCIEuEM0MGAo+mILe21yQl90RAjWpNRUAo09w9tl88RQH/3vV2/ecuW5xfs5Zu39v9+/dXuP31hz1+9lcMmK5XiyhdS7ssAOr/tn9sB/zigs20Fv3Zl/JaaAFK/SMP+IAfEfzv+ssQ6QuAlTqY+EtkfCWgdXGwaSZ43Dq1s4Z3vRz+BuMtLyiiXdKY9kjB/RdGELxcSHFGTSLUke8Sk35L1paEzog6z1ENxTZRAwYRm05IJUt1MA4oLPxYiVMNjARNNLs2PnfCi2fHYmGx7eFyl682WJHewjuFQcYfLSWlssXFFBGSMhmoJ98lhwIGCdjZ2uF1oq/hhadED0gj2sW48QITe2Wvah+1dW9nesyNVKaTBHFJ+UHCIAWQXzEeO1w/MlOF4uu2EkkxcIHbARV8Vqcd3WL3M8+48rw8rHerlmcqEUu4pwDzK7bvase4cnFiL+ypP2u3vf7Abt27b0uKSVjn/8+s9+/XRU3v84pWyDBqB6bl4uXVOJPzETc5c7ZHdXqSmzptr5z2DwT//OKALQVCnZfakMoh5iuKhWf/269sVIq70J4adwkwWoYvzwJ7+4pUeqphyp0wkZSAaFekF5p+eN5cYC3l0kQGatpnGoyNr0vTG2UIREB0vGcijL93R7FZ1Kel57Eh7RAWk6GKP2+ZeU4sEbBRJIkdUyPSe+mdRwesJbWvkdZDA7RxkdNSpybIOGGpc0t21rW1tNHE4MN6pT5ZteWledTMHACKGzZ0d7XTra7KqXWlkkobp0h+29bkK0ERoxAaIgjS79pr2enXTXq9vRsd+SCQbjj5XFqHEwPTdlzMkUCCBA6dW8n/YC9E5138wSiy8XleLcb231L1ngYXaeV5RuWzTkFkmxqUAw71yOEoF5aRrB5RIUUPf+OaOLS5ft7fvP9gvv963nx48sgfPXkiFpd3p+MQmiDyD8FpkReZX+NlrfdB3dMVeEBZX2eQqjK2KSUOhHx8YTU4s/jGkD8MHOOlPzh694DP/KBTdFjYHdAFT2Tv9mWrpQsoNoN3kDhsdnCq4MIoC7MlX2htNfFF/MotW1MKRkYsxxi5QQIkkXLDSlobWCbuKRo8EB2B9DekwQMSfNJ/Istvct72Ws6mk7sHoJt0vZBbcNhhbyS+qJMDLpE1EE1cv4fe2tnfUkNrfbzujbcQfm4MAMzdM6Yjqml2f4Inlc13eYt6HSnhcYxQiQsdpV7V3EhHg+aHu+WZty15vbGkUBpB4XZ5hHEYVNmSHuHDQ4Q61k4xzjo0sTTitbUb5ogUZ7x9LLDBcI3nvADI2OviF1UsjshuiZsb8TqKCUQo5oE/tdHTcSrWG3f3xn4rQc/ML4nMD6P/cf2gPnjy3LVRO2250J3/ofLbSc4UOojmnLndf1dh3ZRfGoxcIP1cZgQ1cn8wwk6WUaZ87wbfYKArFxDxQX+Apn3cTN273P31n5e8J6CD5C9BcEOGa0dMX0CJD7CXHwoUMxhHTk9e07+1yccDPpk4mUnHyj5x2xTfmtumVkR6SdpOiE/XbCAXiwsHeMHWzDOucHsrFiuy+CC1jLuSHMKDE+EnfSdnHIK/QMT+yjc2tWAA5cVkh8atdrH5ijANoXGKCbItBUuH7Mk5XJnFqFdJ36KyTEzqQUC6lxlX9T6oeO9NvN3ZkTse+8eGRSxrJgO8osgZUS7ouh8yYTDNzmG3xLohocnykDgV/1IAN0g/PlxpaOt3aSkMXnUYYNkOmLwku8n7Ewcc1o447pU2latWZOfv2n/+ypRs3bboxa6/fvrWf7z2wn+49sPsAentbJYk35vySi7/OBXS6QR5Vi9JFvdf54DDX3zgrBNZCVnYeYrLnMcg5oxfQTqJIRJOzaYN7L1+g7LjocxrEtfvE714xGyhGaGHVo7P8oAqd7FT/pAS8yPpWPRyOk3Sg1bhK03jt6nal/1WXcqWbzNGIIQ3GCgZAMTIisgIw/KeRzpG1DuMmDgNApMjl9STsLdWVjGU0t0ZB0+fFUuGkbj84zOxjlNIr7fPGHtGag4Boi8wtUsGKbl3vXnO7SSxzpBhS1fonkRQeOrU9BwzBjCi4gt/ytmtq04xKJBDv5nu0daXOIwkF8v0ioGkUUg6oyRcLLwnQXgYxDx+TMOL0ZEkLGNTPpaGujbKdVVA68b1pXwOFVlubvWazS9ft2x//aXOLyzZeqtizl6/sp1/v2c/3H9nDZ89te2cnRANzQOefc37pfWoR6SKAHnwRfzx6/5ZIfYEIXQB0ukr7n9n5PYRLgPmPvGmIHQx7XZs6+t7l9h1f/xDzF5jTDvKmmNhbSNJid1rGgN2ZTVrYl9YVXk5sX1UEXrqwNGJoRpEqUnMzpkrkDVJVau7dfVhVbgCH3hgqKLpvvugUw4YiFGnMgx0OvlNjQdjwUgERAwgvWslEpOGU5QrXByfywbIC0BBiyAS0x42N7tCpTZQmrCInR+bWp9Ly3tvbUx3MBSxhg+MT8bTXmxje4+3l66WIEHCgJBDIWA6yR3Nfr6cAE91W64who8xriTMxxqZD7lbJiEqAHrcZ+XW7aUFq2iYt9bRiacOjNn/9pi3e+sZu//APqzeu6bk9fvbc/v3zL2qKPXn5yl/T4WFW04s0FJ+9/51yxfMvdJUK59+s8PrPT8cvU1NfANARmy5a0f+ReLzqY8VrglvjgHZBAyLPSdejbH4qp9qqEJvjk04i79S0k+VyRuYA/NR1SPoSYYiSEElK2LN2OpLvlZE5hI6yk0V4VEAI4HZ2mrbf3nfnDogoiAoimzM87LvKxycSDAAQbMQRpelUs5IJOHhepNLiZDMbVqRE8J+ZdqxjDvtSCR1vCfXj6SXNM99LVue9XPHMABWWFiKBh9qSUud+v6Otse39tntdI4yA1zVjukivxbCLBQs2t1wkwbvKon1GB9spr26R6x+N9yg4jMrwtWHjTYxYbWLUahBcpMyCGqpzAyQ4IYooohQY6pXsxrff242739mtu9/JdWR3r2n3Hz3WHJpVyhev3zprrQjoNIGN55emsefvFfpY9zxA9+aUH0+583Q+y/fOveIvJEF07r38JW/ARe9PnJRY/4wRlWbsAeh0PKdIne2hFMdWpIqhBsIyQzr7oHPCdkquD0TqqRI2NyxCHGsUiCNGGZXQkPn1phpjs2Nr7rqTBTU40ZmmEFERMGOx6lY0eE+5p5Z2h6nZYx3JHxunj7J2rLkPRmh0gTnAAEPSHiOFniiXNf8mKlOTkqP4zJ1mEw4Vw9qJltBebGHBUkNEn246z4P/Fl8bydxOJ5RZiMg+dkqi/GisJf6Ct8K8aZe+vCnWVXlCFoFBIKAuj2IV5OBmyyrRP0Vb1QaNT17GJ8o2UZ2yO//40W5++73NLd3Q819ZWbVfHz6y//3Pz/bs1Wt7+2HVF0Uy4Ua/Jk6ZS2aA7oVyQazozJX/aUAXFXs+Dpr+IvIyqfdXQEdkTvj0ZkjKuTxKpEjdk3x7Cz77I7a0hAPgVrjzxvioy/Co/qtgJl+22SpspoqvTJJCTjfUrXZiiIvkt1tNfbFHTFqObC0sMIAJq4mOLCASWaQAaK+pzToIBwwNqyk3VSnJCVN7xVzscvBgDg49FHlfb24xUpqanLR6vWbzi/NWrVbMcLekMXdwYEPD41rCwP3iAK72eMmGZEMzZNvbO9LcprEE4Ld2XM6XFNwZYWnG65MBmG0nbFpJhMHfRDHn1Pl30k7atqIBVoXSOo5z57CcRojY+IJxew4tAjPZjT4nHQRDVqnWbKoxY9/+618CdLU+Y1jTvnz50n6+f9/+70+/any1trGh6YIO8fRpntlP6G3Q9jCdB7RwPh6hfQQ3cKobD1EcyH6N0JfJFIoCB4U5ejZXT4VT3KeTHlyULgJBH6A94vOVOMjI5VI7A0YZnZfxl2axYkxReRICSq0eERHKpUel49Agk5Uq3V+aSJIBHrJ2GxpnR7vJfCkKhiA/cVCWL4j0d930jnn4VHnCG0WiWrpbZZ16Hh8siQR6v4C5NMsbtem6lejEwyA7PDAYYbwd0rlud0QgKckvCjHAcdvY3LSVtXWNyVADEc0TO5zOocZ+zntPyiDOBnM5J9cxS70LFwf0vobz0YeVWjOamqRHAWkEQJNmUw5Ijgn5o3yRQhFyaNjqs7M2u7hkd/7xT1u6ddtGxyZse3fPnjx9Zr88eGj/uffAVtc2NLJyskvUzXGGO9Glvz+bDvfCbf8QQKcHOb8B/F8YoZPqZ2H/tgjaSLMKh3UWoZ34zcWWd/aVfkkvO3FqGE25siYRDztTOtvJqNzrxGGbma7bdL1m1anwqqL2Rk3zEJ0xJ5ScssUkKuSxnUL7RKKoDUHlUMonfLUPD5TW0lQiMiNAKO1sZsbiO/tIip8j1EcqzygIM3ikfGUGT5QbG7UaTpe1qhYYACqHwBGApj7W7jLySVjnDNtkfdrKlYqYbWubm/b+w4pAvba+Ka9oZumk3ToIUw1CbS+UxM421FKxOXy64HJDnvqkVVLGUwI0vQdqhgA0um1upeMCgomSrMiOi8nisi3eumW3vvtBu9Acjitra/bg0RP79dFj+/XhY2mFsxMd1Zan2gnDibkmUJ8FUqYHMCCIfDJCD767QqZ3lk925abYZQLdX+62qRFWsMLpH9MVX1N2SBcaYG6O5sJ4vtbowgP+p6sml9Jdsbl8l9g3g5ileld7YX7OZqantcqIyd1UdUoLEQBaJBS6xUoFXQS/e3LoPs4hd8sWV1o3ZLNoD/E9KJbSnnbXDTjkPDa1t9RQ0BDHIXNi3GamJtUVp4Emxlp5QvxummO4W9IMI904PiblRhjQAY0E8dBYyWr1aZFSACh7xWvr67a2sW2r61v2fn1d0RClEnepSFUy2XRwz8VU8sNQ21MFuqc68DQQR4athsdWCY01p4H6+M710GiGyfY3AO1yUC6dtHjzlt24+70t3LxttcasbW9v2+s3b+3X+w81qnr04pWadsn5JH18OaDT8y6OZXP+xVUAXeBiDYTP1xr6MqdK8d3KxhFZiD4zA8+zLv+AibASyCNdHR3RuMO9ktJAq6ufkc6y5lie8FRagGZbqeJAX15csEa9LhYCgJ6Zbph1T7Rn3MI8vd1hFiUOtauXoABC9HajN9fqRjRhTGBe39oWDXOn2VZtKgneA9egBhw07WjS0aAj9S+PU3viOoFJXUkcbT1vSoFKRf+WJa0Qh/TPkervY+bepPKTU0rh95tNpdkbm9taxVzb2rEPa2sCNA09sbVCQ5uzVPNwXtNoCBHHeC8JGLpKybAmAWW20cQMI6vx0RxWu+xJp71v0m5f74VGDh+gJI2z5dt37db3P9rswpKVKlX78P69PX3xwn6+99Cevnwtf2jm6vDdc45BTmv2dNs/ff+rQKDKxKLykVZW737yWjx/RPXpS/n8Xev/wpT77Ft2XoT2uBuAjqig3eHxMQH6AMN3uNLB+9bqH+wxgEMEjtqZpQXq1Fq9aotzc1arTuqiIqIvzM+rCXXQadva+xXb29mVlczEZFk+USxfqJZlnfEUOSMXsrfRMXWYWdYnhdzd3Vfa6BK8XKxdl9ylli95xkBH/ZT7CfsczNxJ/bUxhg8XAgpyovQFEwgrblsjtUEtYJDW7mzv2Id3HwTmjS1sbva1rEHEZs6OPBGAVp0ckryeJrscUkym/LAiShNh5d1FN3vYKjQWdQD436qZh/znHAhpu417cgvgYT3n8lTdbtz5zr75xz8VnTn0Xr58ZQ+fPrOf7j3UttX7lVXXFBOHPHHWBgG6MIfWRk66GryFli0Yxk8+VeWeFUO4TCTy257X8f4K6GJMPtsFyd5xpaxJJWN0VLay1Mak2wCa1UQ6ukq9QyEU0EG3nKx4Tc2/Zxp1uzY7Y7ONac1/6QzDx16Ym9NclQbY6xcvbWN9w+vr2pRNQvpAJ4x5NEZv3dPw1honx1Q0pH7d3Ni27e09Ne9oRjEPJvIRuQAlvlZENkoGSCKuKTaux5mqTenQ4AoVNZRDqEIKXrHqZDVUwH0dTV7TXbON9XV7/eqNrQWgaYIhuACYSbcPDw71HJKrZHL0AIjS8g41VR5TjFo1u3yuXJbKKZkNHW0209x90x0rvdZ2+WG43vHv0VGr1urWmF8UoG9+94ONjaNcemxPnz23B0+e2i8PHtubDyu2vrHp7LTgbkcsTqtAGViLk4wo93skr71Z2vunbwAS0hYXX864CMy9rj57fHwF9KUB7dEXze1qcLKZy7IEwZhGWtPxPhOVuO3EhFu/EtGX5q9JAB52FosGrBXyfXTIkALCSfLxo0f24f0HpcH1et2mGw3VuwKAyCWk9RPeuBoZEVlifX3T1lY3xN+WnaqUP1O6655PiBdw8fP0mG2zwTSBfnitZrV6zQ6p3wE6ZUVIAwN2fi4xRMDM78Zhsba2Zq9fvrbVjS1b39oVQ42ZLoQTalN6AaT+EvaLeT9/63XITogvtsdGtJetUoaozKRAzUOX5xUpRhLGLumbxDYEaH15mo6MMIKAN+58azduf2vL39y1g4OOqJ2PHz8VoO89eWYr65s6BOWEMgDQHoPPStVnjLFCWO5nEkYc7SvdziePDF6t/PhR8bFI/RXQGRus981LJ2+WZMX8MG3/MBNmt5gL6eT4VJGW5QRADZjUBpIHcnJE9HVJPKTnZ2dimWNEq4+k3jcWFxRtTo9P7O2bt7a1uWXj+DVXKl7fxuIEHW80vSB6UBcjKMByA6BuarOqo+8DIcClph36YKS62pRyECTnCJhlHCRI9jJK4gKXZQ6ArlYE5unpaWUHqIVmHn7Dw7a1tWXv3r239c1tW9/a0wonDTrqUg4MNqiYb0M2EUT0FrtCqgAsf2fvL9DoYr7sERoSTYCbWTNfoR9GZE6bWKl25oRi0YRMZuH6Tbv9g/O2G7Pztru7Y6vra/bw8VOl3I+ev7KNrS29V0lpNE+kg4OQut294+c8Wwvj0Jwrmo6Ai1XSxQicEzDzaJtPTP0JZEMCRYre7/UfBF8BnQqh3Kos0q3evW8ZpofQAxeeUlHqaFQ04VTjiKFl/rbq16St5R5TcfGOjUkxpDFV9S4tPsxjowL57RvLajrtU4du72rlkbSUbrP0xYhAYnrRAYeowQfrCiFK+6FTIqAHT1sa3+bWNaikdIi6rhZKNgCQUpBJtS3RUp7PHEDKKkpWrpZFNJmuT1t7v2VtiRr6FYYW9x6p/uqKbW3v2WYI6PMeZFrbGAfIwtVlg3hS0hUHtIgABtvLAe0dbInmE6XHYIZxO9ce91rabXHSGEcaHHHFwwy7trBg129/a9/++C+bqjeUxaytr9m79x/s/uMn9ujZS8kPbe/tqr5PVjwpeU0NUC+v8j+DKrH0vV7wJUHMoCBeJHf+zLf5CujLADotcAwNiTBCgykpjhC6OkcuM8TqIpExzlL3mVa9B7faDcwBDiMsDoZrjbpcK1lPpP4ksvHL3JbxmI+cWHo4CitU3znGDpWDI3kte4rtO9zSEkPknjXMzkGMq3x/WltdsshNMks+rPFZOUINrIGOK+0mJadp53PvQx0iZCAI/G3v7Nrq2rocHdsd1DyJxi78JyVSFjIoQzQ+81mx3DRpfLHuGA0vTQ5CwonvAV5PtR30an6Fo6ZM3jOxDY9ecM1r0zN28w5p9m1buvGNpgM87uramr15/97uPXpiT1+8loYYfHQmE4k/UFxTSLV0P6AVGwtJ3GBAF5tWnxmpF7y7/2pAf6y7ncgiPUQh6fjm7ypbU9SkjKeY7bLaCJBcphbdaVfmcG2yWHkUi2xEUdIBPS59r5n6lEBNlCUVpINLzVyrTikdJXWmJu0cdkRxpDnE3jOHBHVrJPgBbFcI4XnQqOOLKC27nDI8bUZp6I6N6vUoskvf60TPhZGVxmGxBEI3m+4y9TApNz+jT7DXbtvWzq6tb275dtcxErvoZvvqpublEEckjEDd700veV+H/JJGWKGG45JM1NHeFEt/J48vd9J0ze5QdVOzD0JMfeaaiCS3v/tBqfbUdEOHT6vZtA8rK/bq7Tu79/ip9MPera3r/eD5OaGlX8PO0+5e74joghcuCGVI/SXuBUH3e97sK6ALETq90Zoo98+o+wCtpQAWBqJ7jRJIEhiU7jQdXupJCcO7pK7Xjp5ujqKkURrTTJq1SsAEmQTgag6Lo2VjRov9iNKTivOVdpjZv4ZOud85EnAk/C61TudHU7c2Ww5mQAtvnAjMYwnYE+MCIc0hDgwAvXBt1hr1mkoG+UDjbBmRVTPbo0MRN4jQ9AvQKwPUTlFlBOTZAQeEmk3sKw95Gp8ATUOPWbIbsgNoONyI6nvdrKgNiUTmfGHjE7dNqjkJSbDUKlNVW/7mji2jF3bjlk1WayLEUB5gkvfm3Tt78eaN3Xvy3F6+fW9r29senck1rgro/tL590TqBe/7K6CLKXegWKdz9CjyKN77jmoHF4DG8oXbzXh6yHwTQFG7ouaJthU1uCSOwikRWxxAy8zXPbEm1HUmnSSCIw80VePiNNvba1oLKuX+vnfLeSy5TJqbz2kH+SRT+eCX+B46WYBNXs5h/M4BAqDdFfPQ1rd2XNOrazY3O60aP/OdYmUz/BZYLwS0vF5uCwUUQHMgZGKGcZi4IYF3s70G5rDz2hmuuszsqdWp67Xx5UstvCYfQbkoJX9rVNXX3VbqPuqReW5hwZZv37H5pWWrTE4JzNTtu7t7Yocxc36ur3f2YW1D0whF5/DOghued4wTR/v8CJ0v7ZzhIl0Qer/Pzf6egB403R+QHvWn3KmzHc3Y1MfJGjrFj8AjV2wJQYSAiAGHGwGu0CpHTgjiCXxrCeO5Bp5qaamLwDYbQRoIOibRelJSRKS91K5Ew/bhofjRyBJ19jtWnfQa3PudvkqJYiV7xuJMS50VCSU0vA5dkD5cNkh1IbmQzvMaUU1BQJDbkkrD7S6XxnyezgHBcCmaUICebj71N5kBq5uQSCCzJIGCwjno7DhSbA6SsN9JgCa9ZhRF86sENyaZ2Ye9q/tju5aYFExUN4cDKI0zDOvLZbt+567dvvuDzS0tW7VWEzONQ4+lFbaoqO+fvnrrkXlry9U9O0cxgfDmWp5yJ3LJxVLujwL6gtfe7wNns78ZoNPiRfHtctgO5IyEYUBO8St0tlOELnZCdE/5TmtKcTW3FU97XML5vmM8lNWygDJZ2ShKi/UUVqh0lFWLj1ltCuUQRPDHBASAI18oZryHTr0UbbPkAgi8MkYvbmuDwECKLDHeEFUVq9sxZ1Ip+oez5WlXzTKibCJYuBm864q5Q0gwsiR0eKIamhJCSp6np8oAkEri4CBK+3zZVVW85g3iBzRP/be/d3S0XeiBjrbvZQu4ISXkYPYGWjayCbED3rfa9LRdW1i0m9/cNpQ8cbwcHhmV8ggz583tbXu3smpv3q/Y6w9riszNZtP7GtlMPC10JI+qHNCA9bwa+iygi9de4Zr7g9PyvwmgBwH5/DMwcXzU4JA/V4H6d07HA1ByCUjuppsbv7vpO91i706TplJTkxqjt6VUNKlZkk7KO4oUe0x62fWpqTiA0NpGW/pQsj38odZ069foUksGyFwdRLxpd3JUfRj8cQkJyt7VswMnlnhKTlmgL/aWj47cVB6vKKI4j6FuNCqiowI0t0OdhMfrapbtskKQNxAETA2uVDpAJU0aYQ5W33OGNMIqpAPa3zv+uNmeUzp12+AI6OOBvz4yapXqlC0sL9s3d7+z69ev2/zCopvmoRG+u2trG5v2fnXVXr77YC/eMiPf0e44RvUyxkNNtkD8STPtOKuzRldvQne2Kfbpq+sTQeT8y/JKt/gK6EQsuTSgnbXklq85iUTWptAmJQYYBnXHLpDHWIeOsJpNATqNbwQa/3JGWDhxSJ/azQBThHz/5RUAABBpSURBVEu1PWDje5SrAIz5dwJ0MjL3VULnTTuYWDBwk3U1vgB/NMCI9N7owzO6pNqXLno64jDZo9NN7Zwx4uL3Wffsdt2gzlNkf26wwVKkpumlWXOAFgKJaJ3FuXJyndTM3QHtxnRDkkeip7C0fN2Wlm/Y0o0bmjNDooFmyqG3ubOtxZDX71fs3eq6vV9dt1YLf2rvavsCSAA69NmKgP540/oroK90ylz+lz93hD5fPco1oF3by7eJvI/GBZs8pojWpLgc+0S31sGR5rVppMX3ZfUqxpQ3jlwoj0gF8cSJIIBLAGY0JgbWSfgmuxghnXFM4wRQhPzjtvwMsghfZBR8nw40tbDL/3ijLs2u5c0F+STcPHhVx6fB+tJoykdSLiPErDw1+jxddoEHAB3aWnSzmS8T6dUAS00v72AXa2eROzJAu1umF7vuPV1rTNvcwrzdvn1X2tr16YaaX639llhymzu72st+u7pqr9+tqNnH9/Csopuf/8kBLVH/nKX+CbL1xQHdowz6J4y1/h4ROttxvtxR0Jty5wqfPcqeH7nLBOi0Z3xKJztsB4i6yA7hFAm4qReJngBaypiiQxKpkQrwrq4zwRDF4wJmgQIjee8QC9ChzU0dCyjlthGujAnQAlMSyxtyW1e1AEKuB2VSZ3G56Z6iqAzxIIYcqK4XqUSiAWhru9CC29Z4pkBzzA8FyCJ0rLl7uvNsYfljpYYhGuKpucV4CgD7UoUDWk2zSMVd0CBEDmRYT8nRlcbZ5FTNbn3zjS3fuG4LC/MSVSBwM2Nnbr+5syMwv/mwau/W1sTVZqW0te/rpv1tkCSGkEXrjHGWM7x6FywuCui0anm56/Bz3vqvD+iClNDl35i81sn2X0lJzzRFzt5zWghIWy+ksUlgP/G92Ydm3ksHm/unXtUCg6KcA9oJGK7dTYI7Msx2lKfJdKeTS4WkbRHmkzrJSYyCXINajhSHB974ipmvoquE73xvOjlewN5yhlROeATQncMDGxtxQANIKZzg9xRhUtkDW1YSc3DDd0+xHdD6ijTFywlTdM4WKGJkJ+CG9poidABdTTDNn12iGKbX8MiYNWZn7dr8vF2/ccPm5ubEbed1Kc3e27ed3T0th3zY2LB3K2u2urllW7t7yoiSo2SaQfbwpvXyseTxz9afe699cB5gvwL68tj6rb/xZwI6+NGktEQCorD7HTtcaHTRva5UxnVxq4FG5AmdLTW9DqMxdXyisZY08qTzzT512crjCCl4LcuFnGpBwM3jSHQAAYIudXkaWbFk4bWnRPije020V+MvtrDEOedQ6XozLblWavf68Ei0UTXYolHlvSvntOuRtCjhmWqqRVV2xIjJu9TeD0iC+c4UY5zlEZvbptTbDw3v3rMLDuPr5s2bduP6DatO1YzZPXU846m9/ZY8qTa3d+3Nyrq9X9/QCG53r+VMMGUWaYaUz5KE4+zbAdncRyJ44n2OiWlfuoc6OOiC/RqhfyuM89+7EqBz4QLmFLlU7/k1tHeNQwZ3aEQrk4DNl/X9igGIWjJAVEBsJ/ds5lFDOkvRGn1tUnDM6bSTHOMbt9fBP1oubG6mFkIL3l1PC/YQV5zKqM57gZboz9M7x4r84f/E4cEBAXA5EGg+yWsrutek9jDMVIfLncNLAwWyAJ5HZ//vzD+cEiIBPgE6Gc4partgAYBWtA7iimpw3s/xcUXh2blrtrh03a7NXtO2F0cIqT6jslarJcVTtrwUnTdZ39yx3da+CxPCow9Rx8KFEpG40OVOobmA36J+VxIkyPzbhP+UwvtnnEf9P6+zXQTRf3HKXaB3BjLysdX5gE5voq/wecPKo9+Ju1uEQigXvTarpC/NuMlTS4nD06XGqUICfsx1qWXZAvJuEF1yOS4qHfXmlkdmj9YSL9Ah4aig08wF5ymwoO0pslJvboNdju9ly7ea1FWqoS7Wl+pqRXA1+2KPOYE45siZIF8AWhtlPLeY0mdbUJExpMPPwQwjjKgcHfHEBdA227BNVqs2vzBvN2/esrt37jpnfQinkaaWKvY7bf29vdfSfPnd6oZt7rn/NXvpZBz6HM7wB3qhnZ6rjxtyYGaqIukHBbRk95mYRzoI/ryZ86Bo+BXQ4tg70f4yETq9menC8FTRQyaRzp0gXQjvkO0pGFtRy6a9ZP47zWCJuNTVGgmxWRWe0NKxxgmC1FkUSI8M3vByECTGUyqL6ZQrlgQw3arV1UbGEdHTwQJ19NRdLFi7VMealBcwuIQt958iUDq0nIzmIS3V1d7Yi4gV9ah3j70EiPPGR1FKsT0tT/5VLpE0bjMzDSm3MF+evXbNpusN9QcAMdrf1Mtip+3sykQe2aONnV1JCzPrz2SSsh33wQlgnojnUTbRP1OE7lUEGRB9s0bslxGZs+txkFnd1fPgP/gePtrlLnY4z6ZI2QpcerrxDa0jXmGVhg43qTICgTxqswObCulaLF/HtJSRrFG1Hhi2NXR1YWIddxkPnYj2SdQ5wtFR6X2IxEW6nNJKzahTTRsCAFxmWZQNS0XdbgTCCA2nMHWLMZbAq0js3fosG433Vna2HB6MpMI0L9XNnqX0UzEyOGftN6+9Q/VTJBa63iMyxJuuT9nN60t2fXlZpuyVyUmJOOy1mra9iwjhlmuXIaawvWPr6KfJpXNfwv8ijQyKpgMuxTOAjgzEC5biCDRdM/2gzV1XvjRO918/QqdLr7+P4TGqQPnsn1XnP8suxc8EaLdnwTPKBfmIeHS4adZwmUtAoASJBFtXlvd9ASEXq6MWZ+c4MbmYpRK1/cL1tDLclFMNW6htM7qkEo/kb+3RVqCMHNNTU4/GHDbeneb/4x0pGK9zADioUwMsFxrw3+sfuhYplZ7+0wTgf2qchQIpssFIMi0tzNm1mYZNVTGhd5tbwE4dDwtuZW3DPqxv2vuVNdvY3rGtXdJv3C4PfKbe9/Dnpdx+YKUEO2igBfB7hPbexZm0OrIOv/nXCP37he8zkfo3AhoYfKIGO+8FJE4yHW4nhiA1hE0r9EN/TiKNIP8DO0zexsxsIYCIUqHr5AgAH7vDo0ZeAfDDQxcPcEJLb52rzDdv6hbyjGjtDPRh8RGysvKUH0f72tPrqHcBdMZmLwI6T83TAyZ8+X5VHBias9PBx3e6bDP1ms3OTNvywrxWN8slnDuHtNCS5uUO6AM1v1Y2tmwVPbC9pubMGv1FOfEpABc/r/z5B6AL71XP7XQtxQ+z2xSzvC+rdv57pdzZJ/HxKNybSvVG7zMR+oqATulq8l7C5J1/U0NCncQiVt5Ww3TAYZOh2e0EEsgfqjWjyeZ60DHqYiHiEG440R5BfeptlyPyeOJ0yX5Ax6UXhnz5FVy8lt24z+teBaaoiZ0skjrZGoTlcS0doIUInRrsfh56X4EsQYKJI27cB5AX5mYEYv5GmQWJYxhdzMNJo9kE40s713v7WtPc0Qqp73jvH3SC7eav4ncF9MDr68uKzH9TQMfLKl6pGVoT2M9+EIMAnTre50XjT/08LTuwqEE0RgThCJ9ltpUkuNfV7Fc/i9skMUDfQKIJ5o0wH0V544xojYACjSDqbDW1TlwVhGZT8U82comUOg/ZeYRVZ/yjgM4PyRTdskQ1A3Tq6TubLKPColHG+iRSS2UXcpip1SSiICug6ZpN16oalfG8OKSa++xYN9UA29pt2uZuU+k1IGfzjNGeFkLw/Erd5lglvchnVYzQvWdfb4+ltymWwSUOt8IB0l9pXORJ/I63+ZvU0Bd5hy4O6DTrPZdHcIGH9XVJH125XJGL8O202oq2jJgYaVVKpN8O+kSP5Hbue5zX1zJ5k4i+R/rd9oEM7I4OkAfy2W6vNk7f6Zblwjkrykdd/mJ6InTGGnHmV0pC+wGdyQLItqdrJ0euoIJnFt5eiCYsz8/a0rWGzTUasttBVVRmAfKz9s0y+Oh0sTe3diQLzNfGzp5t7eFJ3RHtVNX4CZMDOvM5JC86aOwHdP4R9rpanAG03p8c9F8liC5w8f++N7k4oCMhVzC7Si2dXo+PamKTqeSCBi7VgwYX0dHVLQEzTTL3bQ6HiVjecOKGg5XnBRMKeiP+0M19/Jg7itJinxTaawmGhesxkFvsIhYr3jSX9eVmGb2H1UxOokjC1XF0xKJHIsS45U9ZTpaNqSlr1KuSWEKLvCy1FJpeviut8RkAPTpRXZx0ytYC0KTcaJczXkukG83hRQRK78bFrpxsJDUwqn4C0Bl56ctMs4uv/r8oQvel44UPtT/lLgI6/eyiNdrgS8tPdlYeJiZGRAcFvMyL26HjPTTsxuYAWrpjUrx0TjdpK3W1b2Kl2bUvT6Dttddq2zZNos6hnDfyZk5KuCMu9SAyGxgXGmcxFktUyAKgfZ4ccVBvCiSaHNDcyQhLKaVxm56q2lyjbouzs6qXZ+rVWOMcCwZHNNricWj8MZ5DUQQq5+oGNM4dW9veU4c7pdpaFNESViyLXDLdvTygP9LlvuTjXuy4+Ty3+u8D9ID37Y8CNLAi+mLrIhcLVEmoOcNgNUXpJCRIE8nF6L37nRRA+Df1NdkD9eRuq6O0tN1qq5N+BtDRsc2HNIU3IXXREq2THxXE7BPhQg2zALQ3vFDzdFADFET/iMKNWtXmpuvWqE8p1UZOiaaXryp6Tz4S1yzbYIlCQg77bZcGhsqJ1vfurtRY4G/LI0sqqjkL7LK4GgToVJAUKZ/KcFK5EbN5HWGfowb7PLj96L18BXSx4ix8Yole0X/R/PZInS4dXzl0YYMREULQAkPBqyR9MSSC3ALW2WbRWIr0VGqZ+vIaGDYYKfd2c1+LCWiPub1LELsVnCNC94+s4me6eD8JaE/ivbeQM+rSQ9DYg3c+x84y3l3TNatWy9JNczmlsYxFl2bGUiGJJZWDDmZ/BwI0NfSaTOObtrW35/vMkF8g04j5lhNfLoqNHKxRbcSHmlhsDuBUqKRmQtHp8ctPtdN78RXQfxigey+/tIwgqraUQTBno3HmlFHS7+QaAaj9yy1g9RXC/WxxQRcFDHSDt3dbEpgXfzsomkEBK6xMesrsF3GklX1mD9n2VNZT6wM0dFS62GOj1piatNl6VdriaKIhmEjDK+2MJypqinJqgh2fZjplpNSMotD63tlrqbPN66B+prbW5pT6Gek9vFxs/groix59f5PbDU65Mw6QXuUZJtIVqKE9TYyY8YrrLd9jNrS8QSZSCkyy8HcqAtodHH22S7OIEdYGUW2nKX0tQI10SFqkSMIDea+6COg0tup5Zj08bMX8aH55h3dIoojVSsXmGjWbn6lJNRQh//Q801ZWOhz8GHEdNjUEER1MhgDttu3ut0XnJNtg5txstjXmu2pjsr/UyNLsAuMrO9wy6udZ9tln+sh/V9R8jdBnInQ0fLK3PU+3inHhomOSy3x6Lh4YutxIAofYoBNPPEqnCO2A5nuIJ3QVkRnxbGzvScWDtUiI1z2AzlgnhZmrakUXWOiHs6gqMa7KAZ2oosNWn5xUmj0/W7e5mXrWtU57zX6IpNVKd/vLAK15/LEdHR9JK5uG2G6rra8dlEhauH60dfvLxeP8VeQDu97h/GBAp65/em/+/N3my1w76bb/H4OUb1im5URiAAAAAElFTkSuQmCC;" vertex="1" parent="1">
          <mxGeometry x="40" y="170" width="104" height="104" as="geometry" />
        </mxCell>
        <mxCell id="MPf_6T6VnH1m0KOM8aa1-3" value="" style="shape=singleArrow;whiteSpace=wrap;html=1;arrowWidth=0.4;arrowSize=0.4;verticalAlign=top;labelBackgroundColor=default;" vertex="1" parent="1">
          <mxGeometry x="150" y="188" width="88.7" height="68" as="geometry" />
        </mxCell>
        <mxCell id="MPf_6T6VnH1m0KOM8aa1-5" value="编码器" style="text;html=1;align=center;verticalAlign=middle;resizable=0;points=[];autosize=1;strokeColor=none;fillColor=none;" vertex="1" parent="1">
          <mxGeometry x="164.35" y="207" width="60" height="30" as="geometry" />
        </mxCell>
        <mxCell id="MPf_6T6VnH1m0KOM8aa1-6" value="" style="shape=curlyBracket;whiteSpace=wrap;html=1;rounded=1;labelPosition=left;verticalLabelPosition=middle;align=right;verticalAlign=middle;" vertex="1" parent="1">
          <mxGeometry x="238.7" y="156" width="30" height="132" as="geometry" />
        </mxCell>
        <mxCell id="MPf_6T6VnH1m0KOM8aa1-7" value="" style="shape=curlyBracket;whiteSpace=wrap;html=1;rounded=1;flipH=1;labelPosition=right;verticalLabelPosition=middle;align=left;verticalAlign=middle;" vertex="1" parent="1">
          <mxGeometry x="360" y="156" width="20" height="132" as="geometry" />
        </mxCell>
        <mxCell id="MPf_6T6VnH1m0KOM8aa1-8" value="微笑：0.99&lt;div&gt;&lt;br&gt;&lt;div&gt;肤色：0.85&lt;/div&gt;&lt;div&gt;&lt;br&gt;&lt;/div&gt;&lt;div&gt;性别：-0.73&lt;/div&gt;&lt;div&gt;&lt;br&gt;&lt;/div&gt;&lt;div&gt;胡须：0.85&lt;/div&gt;&lt;div&gt;&lt;br&gt;&lt;/div&gt;&lt;div&gt;眼镜：0.002&lt;/div&gt;&lt;div&gt;&lt;br&gt;&lt;/div&gt;&lt;div&gt;发色：0.68&lt;/div&gt;&lt;/div&gt;" style="text;html=1;align=left;verticalAlign=middle;resizable=0;points=[];autosize=1;strokeColor=none;fillColor=none;" vertex="1" parent="1">
          <mxGeometry x="280" y="137" width="90" height="170" as="geometry" />
        </mxCell>
      </root>
    </mxGraphModel>
  </diagram>
</mxfile>
